<svg xmlns="http://www.w3.org/2000/svg" viewBox="0 0 144.06 270.64"><defs><style>.cls-1{fill:#47304e;}.cls-2{fill:#f9d37d;}.cls-2,.cls-3,.cls-5,.cls-6,.cls-8,.cls-9{stroke:#47304e;stroke-miterlimit:10;}.cls-3{fill:#dd5454;}.cls-4{fill:#fff;}.cls-5{fill:#579bb1;}.cls-6{fill:#41b9c0;}.cls-7{fill:#fdca38;}.cls-8{fill:#f9d45d;}.cls-9{fill:#e73b68;}</style></defs><g id="Calque_2" data-name="Calque 2"><g id="LOLLYPOP"><path id="cadre-noir" class="cls-1" d="M133.93,209.9V49.82A62.82,62.82,0,0,1,116.6,37.91a60.36,60.36,0,0,1-12.42-16.63H37.56A60.36,60.36,0,0,1,25.14,37.91,62.82,62.82,0,0,1,7.81,49.82V209.9a63,63,0,0,1,17.33,11.91,60.36,60.36,0,0,1,12.42,16.63h66.62a60.36,60.36,0,0,1,12.42-16.63A63,63,0,0,1,133.93,209.9Z"/><path class="cls-2" d="M122.1,2.3C116.16-.94,107,.36,101.68,4.83c-4,3.69-13.32,10.51-23.62,26.31-4.49,6.59-14.81,13.18-23.62,32.63C52.05,75.18,72.07,81.15,75.28,79.64s24.91-44.9,24.91-44.9S111,22.06,115.05,17.82,128,9.68,122.1,2.3Z"/><path id="ongle" class="cls-3" d="M104,16.82c.25,1.43,3.51,4.77,6.48,4.55s10.32-6.16,15.23-11.58c1.6-6.26-4.75-6.14-6.82-6.91C118.89,2.88,104.05,7.65,104,16.82Z"/><path id="lum-ongle" class="cls-4" d="M107.21,16.32c.27.56,1.25-.36,1.25-.36-.77-3.83,7.18-8.78,6.25-8.16C108.18,10.23,106.83,15.48,107.21,16.32Z"/><path class="cls-1" d="M106.38,2.9C83.28,16.48,89.07,57.09,89.07,57.09S78.16,84.52,72.56,92.71c0,0-.28-.49-2.12-1,3.85-4.1,6.68-42.94-2.42-49.36.82-2.34,7.16-7.45,7.16-7.45S97.85,2.05,106.38,2.9Z"/><path class="cls-4" d="M71.57,39.66c-1,0-.64,1.68-.64,1.68,2.76,1.75,5.49,13.46,5.47,12C75.13,43.1,73.05,39.69,71.57,39.66Z"/><path class="cls-4" d="M92.9,14.88c-7.22,8.45-9,29.45-8.8,43.46.1,6.34-1.21,5.91-3.84,9.37-.49,4.14,3.66-.76,4.25-4.84.07-.45,1.61-3,1.6-5.12C85.66,44.21,85.88,27.37,92.9,14.88Z"/><path class="cls-4" d="M92.9,14.88c-7.22,8.45-9,29.45-8.8,43.46.1,6.34-1.21,5.91-3.84,9.37-.49,4.14,3.66-.76,4.25-4.84.07-.45,1.61-3,1.6-5.12C85.66,44.21,85.88,27.37,92.9,14.88Z"/><path class="cls-3" d="M112.5,81.93c-.82,4.5-10.29,4.16-19.91,4.5,0,0-23.66-.56-21.7-5.87C77,63.88,86.36,48.4,101.69,48,128.39,47.35,117.85,52.55,112.5,81.93Z"/><path id="dents" class="cls-2" d="M108,52.82c5.25,0,10.9,4.2,12.39,6.11.9-1.34,4.09-7.83,4.09-9.4,0-5.91-11-6.52-19.71-6.52s-20.54.17-20.54,6.09c0,1.57-2.07,9.44-1.18,10.79C85.52,56.18,101.62,52.82,108,52.82Z"/><path class="cls-5" d="M107.53,135.43a28.33,28.33,0,0,1-12.9-3.55,114.8,114.8,0,0,0-12.37-18c-5-6.63-13.18-22.9-10-30.55,7.44-14.58,12.69-36.73,26.09-37.06a101,101,0,0,0,11.27-2.58c1.88-.55,11.76.57,11.17,7.29-.25,2-12.91,32.12-1.91,27.42-1.55-8.21,7-14.18,10.09-27.32.39-2,2.78-7.84,2.77-11.76a9.84,9.84,0,0,0-.47-3.26A35.33,35.33,0,0,1,130,29.85c0-1.53-2.35-2.77-5.25-2.77s-6.27,2.19-9.48,3.31c0,.08-13.7,1.47-15.36,1.92C93.42,34.05,83.15,46.84,82,49.83c-.4,1-23.24,45.62-21.52,48.25.75-.49,5.84,6.57,5.84,6.57,9,11,8.44,26.22,9.48,30.74,1.3,5.57,3.82,10.22,6.74,13a34.23,34.23,0,0,0,26,11.68c18.51,0,36-22.69,35-40.12-.75-14-17.44-33.32-19.16-32.61-.81.33,14.06,29.93,8.87,37.46S119.65,135.43,107.53,135.43Z"/><path class="cls-4" d="M79.91,121.05c.61-.4,1.62,2.36,1.62,2.36-3.28,3.41,2.57,19.18,2.07,18C78.82,134.74,78.44,122.36,79.91,121.05Z"/><path id="langue" class="cls-2" d="M127.83,147.87c-23.66,8-40.34,5.51-36.65-18.47,1.93-12.62-27.12-30.77-16-50.69,4.77-8.55,35.57-4.27,37.5,23,2.23-11.83-11.11-21.13-11.11-21.13s13.67-8.17,24.08,3.54C138.86,99,142.93,139.68,127.83,147.87Z"/><path class="cls-1" d="M49.51,56.11a7.32,7.32,0,0,1,.19,1c.86,7.1-7.27,13.92-18.15,15.23S11.15,69,10.3,61.89a9.42,9.42,0,0,1-.06-1.06C6.2,65,4.05,70.25,4.7,75.63c1.36,11.28,14.48,19,29.31,17.2S59.76,80.46,58.4,69.17C57.75,63.79,54.42,59.22,49.51,56.11Z"/><path class="cls-1" d="M30.24,27.08C21.48,38.67,14.33,46.39,13,56.1c.78,6.64,9.6,11,19.66,9.83S50,58.37,49.4,51.71C47.87,35.64,22.21,47.63,30.24,27.08Z"/><path class="cls-1" d="M56.1,143.65a48.63,48.63,0,0,1-29.77,14l12.3,23.6a50.86,50.86,0,0,0,14.75-5.14Z"/><path class="cls-1" d="M56.69,93.56a2,2,0,0,0,0-.24l0,.24Z"/><path class="cls-1" d="M8.64,128.75l10.62,26.34c8.62-.8,27.07-4.52,37.18-15.51l3.25-38.76C46.34,129.48,17.05,129,8.64,128.75Z"/><path class="cls-1" d="M58.51,102.68c-4.61,6.66-13.34,12.15-23.44,14.1-14.67,2.83-21.72-5.19-26.9-11l.47,20.68C16.48,126.7,45.51,126.43,58.51,102.68Z"/><path class="cls-1" d="M40.22,184.26,51,204.88l2.11-25.19A49.48,49.48,0,0,1,40.22,184.26Z"/><path class="cls-5" d="M11.37,22.45s12.13,7.39,13,14.89a84.88,84.88,0,0,1,.46,14.07S12,48.79,8.43,39.9,11.37,22.45,11.37,22.45Z"/><path class="cls-5" d="M21.38,9.07c14.74,7.38,3.77,26.77,3.77,26.77S23.73,35.16,17,24.48C14.16,15.9,19.36,16,21.38,9.07Z"/><path class="cls-5" d="M53,47.85a8.21,8.21,0,0,1,.18,1C54,55.61,46.21,62.1,35.84,63.35s-19.44-3.23-20.25-10a8.55,8.55,0,0,1-.06-1c-3.85,4-5.9,9-5.28,14.11,1.29,10.75,13.8,18.1,27.94,16.4S62.73,71.06,61.44,60.3C60.82,55.17,57.65,50.81,53,47.85Z"/><path class="cls-3" d="M60.88,65.37c-2.33,9.89-11.72,18-23.79,19.43S14,80.62,9.37,71.56c-5.77,5.6-8.89,12.69-8,20C3.13,106.36,20.71,116.42,40.61,114s34.58-16.34,32.8-31.15C72.54,75.58,67.82,69.44,60.88,65.37Z"/><path class="cls-2" d="M52.17,46s-1.29-13.95-20-6c6.29-3.63,11.21-.08,15.79-.63,5.55-1.47,3.58-16.63-20.11-26.58C37.78,25,13,31.06,15.46,51.32c.82,6.93,10,11.52,20.52,10.26S53.22,54.74,52.17,46Z"/><path class="cls-6" d="M65.22,139.8C52.61,149,38.7,151.43,29.32,151.88L40.92,175a71.56,71.56,0,0,0,17.59-4.28Z"/><path class="cls-7" d="M71.43,91.94l.06-.23-.06.24Z"/><path class="cls-2" d="M16.15,125.66,27.8,148.84c10-.38,25.38-2.85,38.26-12.91l6.16-36.7C53.66,126.05,25.83,126.3,16.15,125.66Z"/><path class="cls-8" d="M70.3,102.24c-6.07,6.17-16.74,11-28.61,12.47-17.24,2.07-28.79-2.23-32.45-9l5.37,16.84C23.63,123.18,52.67,124.38,70.3,102.24Z"/><path class="cls-6" d="M42.41,177.93l10.14,20.18,5.22-24A69.48,69.48,0,0,1,42.41,177.93Z"/><path class="cls-1" d="M62.18,64.52C58.76,76.1,54.77,79.62,40,84.73c16.57,1.14,14,22.9,11.78,25.77,13.66-3,20.83-7,22.61-22.91C75.25,80.07,69.45,68.92,62.18,64.52Z"/><path class="cls-1" d="M40.57,62.38c3.28-.59,15.11,6.6,8.29,20.72C67.55,74.24,65.42,52.74,53,47.85,53,55.75,45.26,60.48,40.57,62.38Z"/><path class="cls-5" d="M63.4,18.71s-2.35,14-9,17.62A85.12,85.12,0,0,1,41.53,42S39.2,29.13,46.11,22.46,63.4,18.71,63.4,18.71Z"/><g id="cerise"><circle class="cls-3" cx="58.35" cy="45.58" r="13.19"/><path class="cls-1" d="M78,17.62c-1.06,0-2-.35-2.22-.7a.34.34,0,0,1,0-.14h0S58.15,32.92,58.32,35.51a2,2,0,0,0,.59,1.68,2.43,2.43,0,0,0,1.72.46C60.22,29.49,79.54,17.3,79.54,17.3A2.34,2.34,0,0,1,78,17.62Z"/><path class="cls-6" d="M78.37,17.5c-.93.09-1.77-.08-1.87-.38a.2.2,0,0,1,0-.11h0S59.16,33.54,59,35.83c0,.55-.17,1,.33,1.44a1.81,1.81,0,0,0,1.45.22c.6-7.28,19-20.46,19-20.46A2.58,2.58,0,0,1,78.37,17.5Z"/><ellipse class="cls-1" cx="78.19" cy="16.97" rx="0.54" ry="1.76" transform="translate(55.39 93.67) rotate(-85.69)"/><path class="cls-6" d="M90.1,23.24s-3-1.68-5.68-3.11-7.68-.73-7.68-.73.71,4.83,5.17,6S90.1,23.24,90.1,23.24Z"/></g><path class="cls-1" d="M28.78,41.34c17.06-4,19.39,13,10.68,19.55C49.23,60,54.89,51.79,52,44.78,48.31,35.57,33.82,36.13,28.78,41.34Z"/><path class="cls-4" d="M47.44,55.38c1.38-.91,2.82-3.37,3.32-4.43,1.79-3.18.21-8.53-2.29-9.34C50.8,45.36,52,49.43,47.44,55.38Z"/><path class="cls-4" d="M53.4,70.64c-.55.2-1,2-.38,2a12,12,0,0,0,7.62-10A11.89,11.89,0,0,1,53.4,70.64Z"/><path class="cls-4" d="M69.34,96.62c.12.69,2.14-2.63,2.22-3.39,3.44-9.4-6.86-19.07-11.87-20.6C63.63,74.6,73.5,86.31,69.34,96.62Z"/><path id="_1" data-name="1" class="cls-2" d="M86.35,154l-4.7-22.75a8.8,8.8,0,0,0-2.38-4.43,8.78,8.78,0,0,0-5-3.39l-21.91-5.45a8.89,8.89,0,0,0-4.07,0,10.3,10.3,0,0,0-1.21.16l-21.18,4.38A8.83,8.83,0,0,0,19,132.87h0a8.83,8.83,0,0,0,10.43,6.85l20.39-4.21,15.48,3.84,3.75,18.18a8.84,8.84,0,0,0,10.43,6.86h0c3.58-.74,25.79,29.1,26.46,25.73C106.17,189,86.59,155.15,86.35,154Z"/><path class="cls-2" d="M82.63,158.05,58.55,136.37a8.82,8.82,0,0,0-8.38-3.26l-22.72,3.76a8.76,8.76,0,0,0-4.69,1.71L4.08,152.38a8.83,8.83,0,0,0-1.85,12.35h0a8.82,8.82,0,0,0,12.34,1.85L31.46,154.1l17.24-2.85,22.12,19.92a3,3,0,0,0,4.27-.22l31.59,21.67C107.79,191.38,83.88,159.17,82.63,158.05Z"/><path class="cls-2" d="M76.67,159.62,62,146.56A7.56,7.56,0,0,0,54.61,145a8.65,8.65,0,0,0-1.82.5l-22.63,7.82c-1.74.68-17.94,15-17.94,15a8.83,8.83,0,0,0-1.86,12.34h0a8.83,8.83,0,0,0,12.35,1.85l17.86-13.2s11.06-2.11,13.82-5.12c0,0,.84,5.61,7.66,11.06-4.72,18.67,15.25,47.67,19.63,45.7l25.7-25.47C109.77,186.08,79.74,162.36,76.67,159.62Z"/><path class="cls-2" d="M71.54,172.05h0a7.56,7.56,0,0,0-8.25-6.6l-19.39,2a7.39,7.39,0,0,0-2.16.56,5.41,5.41,0,0,0-2.88,1.21L26.35,179.65c-2.62,2.19-5.26,2.83-5.81,8,3.72,6.47,9.41,5.17,9.41,5.17A9.06,9.06,0,0,0,36,190.93l10.65-8.88,18.36-1.89A7.27,7.27,0,0,0,71.54,172.05Z"/><path class="cls-1" d="M111.49,148.35s-28.15-20.26-32.78-23.2-23.45-6.37-24.61-7.55c9.69,4-.73,11.54-.17,15.71,6.17,1.88,6.6,10.57,2.59,11.35,5.83-.79,5.68,16.71-1.89,18.38-2,2.18-3.59,2-3.48,3.66,11.09,2.11-11.59,35-11.59,35-.73,1.43-9.2,8.17-5.41,12.19,12.39,4.3,7.61-26.87,21.52-20.81,2.61,1.14,3.93,3.08,3,12.68-.24,5.55,5.07,9.93,5.07,9.93,3.07,2.74,5.13,1.33,6.43,11.7,1.87,1.36,1.9,9.13,6.83,8.08,4.26-1.24,18-23.42,19-18.44,3.28,9.79,13.35-27.26,15.38-27.68C116.2,188.35,116.6,156.66,111.49,148.35Z"/><path id="ongle-2" data-name="ongle" class="cls-5" d="M13.73,153.78c-.19-.94-2.29-3.29-4.09-3.36s-6.14,3.22-9,6.34C-.13,160.65,3.75,161,5,161.64,5,161.64,14,159.63,13.73,153.78Z"/><path id="ongle-3" data-name="ongle" class="cls-5" d="M23.41,167.45c-.2-1-2.39-3.44-4.29-3.51s-6.43,3.38-9.41,6.66c-.83,4.07,3.23,4.44,4.58,5.1C14.29,175.7,23.66,173.58,23.41,167.45Z"/><path id="ongle-4" data-name="ongle" class="cls-6" d="M31.74,180.59a3.91,3.91,0,0,0-3.2-2.43c-1.44.05-5.25,2.9-7.78,5.54-.87,3.12,2.31,3.19,3.34,3.62C24.1,187.32,31.61,185.21,31.74,180.59Z"/><path id="ongle-5" data-name="ongle" class="cls-5" d="M33.08,125.48a3.79,3.79,0,0,0-2.34-3.81c-1.74-.55-7.95.77-12.51,2.4-2.91,2.83.82,4.22,1.79,5.09C20,129.16,30.15,130.14,33.08,125.48Z"/><path class="cls-4" d="M65,163.72A4.24,4.24,0,0,1,66,160c2.92-1.69,4.5-7.22,0-12.17C70.62,150.31,75.18,158.53,65,163.72Z"/><path class="cls-4" d="M61.53,123.58c4.27.58,12.55,2.37,15.52,4l.13,0c2.85,1.06,1-.08-.39-1a1,1,0,0,0-.23-.11c-7.67-2.6.23.11-15.11-4.28-4.64-1-1.12.11-.66.82A1,1,0,0,0,61.53,123.58Z"/><path class="cls-4" d="M63,138.07c4.18,1.07,12.2,3.79,15,5.72l.12.07c2.71,1.38,1,0-.28-1a1.48,1.48,0,0,0-.21-.13c-6.19-3-7.16-3.11-14.53-6-4.49-1.56-1.12,0-.75.74A1.05,1.05,0,0,0,63,138.07Z"/><path class="cls-4" d="M60.45,168.85a103.08,103.08,0,0,1,13.68,3.65l.12,0c2.53.84.84.06-.41-.53l-.2-.08c-6.8-2.12-10.78-3.13-13.35-3.76-4.07-1-1-.06-.51.35A1.51,1.51,0,0,0,60.45,168.85Z"/><path id="ongle-6" data-name="ongle" class="cls-6" d="M82.39,149c-2-3.31,4.56-10.06,7.88-10.12,5.79-.1,14,6.7,17.82,11.62-.43,7.28-4.48,8.17-7,9.84C103.48,160.31,81.83,160.2,82.39,149Z"/><path class="cls-2" d="M107.94,229.75c-1.1-2.56-6,9.57-6,9.57l5.72-25.43c.71-6.58,11.21-19,15.69-22.93-2.6,1.43-13.65-16.35-18.85-20.19C94.85,163.65,88.55,159,87.4,157c-5.26-11.56,4.17-15.71,8.08-14.66S111.8,153.17,116.73,155c2.49.9,11.72,10.3,17.2,16.34,0,5.29-.15,11.37,0,13.26.3,3.78,0,12.86,0,23.65,0,3.16-3.44,2.48-7.54,5.32Z"/><path class="cls-2" d="M77.62,209.84c5.12-5.06,10.55-9.81,13.24-14.44s6.27-21.18,6.5-28.65c3.86-8.24,17.74.86,17,10.3.74,9.89-6.11,19-5.83,29.67.16,6.44,3.28,12.42,4.31,18.6-2.86,4.34-6.12,6.32-8.65,13.12-15.15-1.16-27.59.56-29.23,0C69.29,231.37,66.64,220.7,77.62,209.84Z"/><path id="ongle-7" data-name="ongle" class="cls-5" d="M104.58,184.77c-1.24.54-5.7,0-7.27-2s-1.3-9.73,0-15.58c3.87-4.1,7.48.09,9.28,1.06C106.57,168.26,111.57,180.25,104.58,184.77Z"/><path class="cls-4" d="M103.58,182.53c-.51.15-.48-1-.48-1,2.86-1.71,1.43-9.58,1.57-8.63C106.88,178.43,104.33,182.29,103.58,182.53Z"/><path class="cls-4" d="M99.51,169.86c-3-2.34-.87-2.44-.33-3C102.5,165.75,98.35,168.89,99.51,169.86Z"/><path class="cls-1" d="M85.74,218.22c0,11.74,4,22.61-38.47,20.22-3.8,7.71,1.94,16.67-2.72,16.82S46,243.74,42.1,240.37c-4.9-.13-5.7.45-9.88-.91-6.28-2.05,3.31,11.94-7.51,11.7-7.87-.18,1.23-13.75-3.92-14.6C5.17,254.8,23.9,263.49,13.2,270.64c-6.17,0-.24-37.3-3.9-40.33C7.68,229,9,246.8,9,245c-9.08-3.71,1-6.84-6.36-26.81C2.59,206,21.2,196,44.16,196S85.74,206,85.74,218.22Z"/><path class="cls-6" d="M55.05,216.15c1.11-8.91-25.51,5-23-13.5,1.53-10.14,19.92-8.74,26.16-6.41C70.6,210.25,58.36,215.43,55.05,216.15Z"/><path class="cls-6" d="M54.87,215.58c3.48,5.73,25.91-9.29,25.91-13.85-1-6.38-18.68-11.91-24-3.95C54.33,202.58,64.39,211.33,54.87,215.58Z"/><circle class="cls-9" cx="68.49" cy="204.18" r="13.84"/><path class="cls-6" d="M66,211.89c0,5.61-5.27,10.16-11.76,10.16s-11.93-2.19-12.74-7.67c-1.31-13.86,9.93-5.17,12.74-12.65C59.07,205.31,66,206.28,66,211.89Z"/><path class="cls-6" d="M57.6,197.41c-7.66,5.92,5.83,9.16-14.65,21,13.91,13.51,22.91,3.81,24.26-1.39C69.36,202.63,53.78,207.23,57.6,197.41Z"/><path class="cls-1" d="M59.13,191.79c2.81,6.21-7.11,5.65-3.5,13.52-2.07-1.49-2.31-3.78-1.92-6C54.23,196.49,58.47,197,59.13,191.79Z"/><path class="cls-5" d="M46.88,200.88c1.24-9.52-28.55,5.3-25.79-14.43,1.71-10.85,22.28-9.35,29.27-6.86C64.27,194.57,50.59,200.11,46.88,200.88Z"/><path class="cls-6" d="M46.68,200.27c3.89,6.12,29-9.93,29-14.81-1.14-6.82-20.9-12.73-26.84-4.22C46.07,186.37,57.33,195.72,46.68,200.27Z"/><path class="cls-5" d="M46.88,200.88c1.76,13.25,24.84,10.43,17.44,25.14-9.46,14.44-26.14,11.41-31.83,5.82C23.22,222.28,45.88,200.17,46.88,200.88Z"/><path class="cls-5" d="M47,200.85c3,9.52,34.28,9.38,37.3,7.42s9.29-8.71,2.16-17.69C70.63,174.2,64.9,202.51,47,200.85Z"/><path class="cls-5" d="M85.23,208.79c7,15-8.74,25.67-20,24.46-15.54-1.67-19.57-32.2-18.38-32.86C57.21,215.45,68.45,189.34,85.23,208.79Z"/><path class="cls-5" d="M46.88,200.88C34.83,205.75,17.14,244,3.42,208.05c-4.35-14.92,6.23-25.29,18.11-23.25C18.68,201.38,49.3,191.14,46.88,200.88Z"/><path class="cls-5" d="M46.88,200.88c-15.39,11.15-11,28.9-14.39,31-10.55,6.32-24-.58-24.51-15.5C7.67,192.55,36.48,207.14,46.88,200.88Z"/><ellipse class="cls-3" cx="61.91" cy="188.08" rx="15.49" ry="14.8"/><g id="tige-cerise"><path class="cls-1" d="M86.34,158.8c-1.25,0-2.42-.39-2.61-.79a.27.27,0,0,1,0-.15h0S63.13,176,63.34,178.92a2.14,2.14,0,0,0,.7,1.88,3,3,0,0,0,2,.52c-.51-9.16,22.13-22.89,22.13-22.89A3,3,0,0,1,86.34,158.8Z"/><path class="cls-6" d="M86.82,158.65c-1.1.11-2.08-.08-2.2-.41a.15.15,0,0,1,0-.13h0S64.31,176.7,64.14,179.28c0,.61-.19,1.1.39,1.61a2.25,2.25,0,0,0,1.71.24c.67-8.16,22.25-23,22.25-23A3.11,3.11,0,0,1,86.82,158.65Z"/><ellipse class="cls-1" cx="86.6" cy="158.06" rx="0.6" ry="2.07" transform="translate(-77.02 233.64) rotate(-86.07)"/></g><path class="cls-5" d="M59.14,196.32c0,6-5.89,10.87-13.16,10.87S32.63,204.84,31.73,199c-1.47-14.81,11.11-5.52,14.25-13.52C51.37,189.29,59.14,190.32,59.14,196.32Z"/><path class="cls-5" d="M49.73,180.84c-8.57,6.34,6.53,9.8-16.39,22.49,15.56,14.45,25.64,4.08,27.15-1.48C62.89,186.42,45.46,191.34,49.73,180.84Z"/><path class="cls-1" d="M51.44,174.84c3.15,6.63-7.95,6-3.91,14.45-2.32-1.6-2.59-4-2.15-6.38C46,179.86,50.7,180.38,51.44,174.84Z"/><polygon id="tige-courte" class="cls-6" points="112.98 126.8 116.51 127.76 106.65 166.27 103.03 163.04 112.98 126.8"/><polyline id="ombre-tige-courte" class="cls-1" points="100.1 162.95 109.49 128.75 113.21 129.77 103.72 164.32"/><path class="cls-1" d="M121.64,104.11a37.58,37.58,0,0,0,20.35-.06,26.43,26.43,0,0,0-40-12.91A37.43,37.43,0,0,0,121.64,104.11Z"/><path class="cls-1" d="M120.69,135.51a24.63,24.63,0,0,0,21.67-29.79,40.3,40.3,0,0,1-40.51-13,24.62,24.62,0,0,0,1.92,38.16,7.23,7.23,0,0,1,1.61,6.48c0,.19-.24.5-.19.56-2.38,2.21-4.77-1.08-5.11.17a2.59,2.59,0,0,0,2.06,3,3,3,0,0,0,2.24-.23,2.59,2.59,0,0,0,2.06,2.95,2.77,2.77,0,0,0,3-.88l.12,0a2.76,2.76,0,0,0,2.11,2.28,2.59,2.59,0,0,0,3.3-1.52.43.43,0,0,0,0-.11,2.93,2.93,0,0,0,1.9,1.52,2.58,2.58,0,0,0,3.3-1.52c.34-1.24-4.1.59-4.32-2.75a2.59,2.59,0,0,1,.13-.58A7.16,7.16,0,0,1,120.69,135.51Z"/><path class="cls-3" d="M123.21,104.37a33.35,33.35,0,0,0,18.63.09c-2.47-7.38-8-13.67-16.31-15.95-7.54-2.07-14.78-.06-20.53,4A33.77,33.77,0,0,0,123.21,104.37Z"/><path class="cls-3" d="M120.57,134.85a23.35,23.35,0,0,0,20.52-28.22A38.18,38.18,0,0,1,102.72,94.3a23.28,23.28,0,0,0-6.89,11.16c-2.63,9.6,1.65,20.26,9.23,25.81,1.47,1.79,1.75,2.38,1.16,4.5a32.37,32.37,0,0,1-6.52-.6c-.32,1.18,1.89,4.55,3.29,4.93a2.84,2.84,0,0,0,2.12-.21,2.45,2.45,0,0,0,2,2.79,2.62,2.62,0,0,0,2.83-.83l.11,0a2.61,2.61,0,0,0,2,2.16,2.45,2.45,0,0,0,3.12-1.44.36.36,0,0,0,0-.1,2.85,2.85,0,0,0,1.81,1.44c1.4.39,6-1.95,6.29-3.13a21.93,21.93,0,0,1-5.93-3C117.9,135.64,118.38,135.64,120.57,134.85Z"/><ellipse class="cls-4" cx="123.42" cy="91.85" rx="1.65" ry="5.21" transform="translate(23.25 208.63) rotate(-86.04)"/><ellipse class="cls-4" cx="112.37" cy="92.69" rx="2.33" ry="0.98" transform="translate(-19.78 31.42) rotate(-14.65)"/><path class="cls-4" d="M107.06,99.32c.44.32.22,1.45-.59,2.45-7.63,9.38.74,25,.31,24.64S96.07,113,104.89,100.6C105.64,99.56,106.63,99,107.06,99.32Z"/></g></g></svg>