<svg xmlns="http://www.w3.org/2000/svg" viewBox="0 0 71.55 153.49"><defs><style>.cls-1{fill:#fff;}</style></defs><g id="Calque_2" data-name="Calque 2"><g id="Icones"><g id="facebook"><path class="cls-1" d="M71.54,49.66H47.23V34.73A11.11,11.11,0,0,1,48,29.86c.83-1.78,2.6-2.61,4.43-3.29H71V0H43.76V.17H42V.35H40.63V.52h-1V.69h-.87V.87h-.87a69.67,69.67,0,0,0-7.12,2.6A24.06,24.06,0,0,0,24.48,7.9,20.26,20.26,0,0,0,21.7,11a18.08,18.08,0,0,0-1.21,1.56,15.88,15.88,0,0,1-.87,1.56,14.76,14.76,0,0,0-1.56,3.13,19.36,19.36,0,0,0-1,3.12,8.79,8.79,0,0,1-.35.87c-.08.23-.1.46-.18.69a8.94,8.94,0,0,0-.34,1.57,19.47,19.47,0,0,0-.52,3c-.33.34-.12.87-.18,1.3a7.67,7.67,0,0,0-.17,1.21v1.31a7.05,7.05,0,0,1-.17,1.21,30.71,30.71,0,0,0,0,4.6V49.66H0V76.92H15.11v76.57H47.23V76.92H68.76v-.78a3.78,3.78,0,0,1,.17-.7,5.08,5.08,0,0,0,0-.78,3.08,3.08,0,0,1,0-.43c0-.14.16-.26.18-.35.16-1,0-1.95.17-2.95.11-.82.23-1.79.35-2.61s0-1.75.17-2.69a3.78,3.78,0,0,0,.17-.78c0-.2,0-.41,0-.61a10.44,10.44,0,0,0,.18-1.3,8.66,8.66,0,0,1,.17-1.39c0-.22,0-.47,0-.69s.14-.4.17-.61c.07-.45-.06-.94,0-1.39a7.15,7.15,0,0,0,.18-1.3c0-.52.17-.86.17-1.39A6.76,6.76,0,0,1,71,55c.13-.93,0-1.75.17-2.69a8.26,8.26,0,0,0,.17-1.39C71.36,50.42,71.62,50.08,71.54,49.66Z"/></g></g></g></svg>