<svg xmlns="http://www.w3.org/2000/svg" viewBox="0 0 80.11 80.13"><defs><style>.cls-1{fill:#fff;}</style></defs><g id="Calque_2" data-name="Calque 2"><g id="Icones"><g id="instagram"><path class="cls-1" d="M80.11,10.6A10.28,10.28,0,0,0,69.52,0H10.6A10.27,10.27,0,0,0,0,10.6Q0,40.06,0,69.53A10.27,10.27,0,0,0,10.6,80.12H69.52a12.23,12.23,0,0,0,2.56-.27,10.23,10.23,0,0,0,8-10.24q0-14.78,0-29.55T80.11,10.6ZM66.77,56.22A10.28,10.28,0,0,1,56.16,66.79H24A10.29,10.29,0,0,1,13.34,56.13q0-16.07,0-32.14A10.28,10.28,0,0,1,24,13.34H56.16A10.28,10.28,0,0,1,66.77,23.92Q66.79,40.06,66.77,56.22Z"/><path class="cls-1" d="M48.73,51.75c-4.81,3.66-10.27,4.13-15.52,1.16-7.21-4.1-9.14-10.49-6.86-18.32H18.53V56.18A5.13,5.13,0,0,0,24,61.59H56.12a5.14,5.14,0,0,0,5.46-5.5V34.6H53.72C55.86,41.46,54.5,47.37,48.73,51.75Z"/><path class="cls-1" d="M40,49.44A9.38,9.38,0,1,0,30.67,40,9.36,9.36,0,0,0,40,49.44Z"/><path class="cls-1" d="M60.54,19.59H51.62v8.89h8.92Z"/></g></g></g></svg>