<svg xmlns="http://www.w3.org/2000/svg" xmlns:xlink="http://www.w3.org/1999/xlink" viewBox="0 0 439.96 276.99"><defs><style>.cls-1,.cls-2,.cls-3,.cls-4{stroke:#f9f6ed;stroke-miterlimit:10;stroke-width:0.25px;}.cls-1{fill:url(#Dégradé_sans_nom_10);}.cls-2{fill:#fff;opacity:0.6;}.cls-3{fill:#3d0003;}.cls-4{fill:#fff8f8;}</style><linearGradient id="Dégradé_sans_nom_10" x1="143.54" y1="628.6" x2="155.55" y2="628.6" gradientTransform="translate(55.97 -485.22)" gradientUnits="userSpaceOnUse"><stop offset="0" stop-color="#6d040b"/><stop offset="1" stop-color="#ffb455"/></linearGradient></defs><g id="Calque_2" data-name="Calque 2"><g id="PINCEAU"><rect class="cls-1" x="199.51" y="-2.76" width="12.01" height="292.28" transform="matrix(0.53, 0.85, -0.85, 0.53, 217.97, -106.9)"/><path class="cls-2" d="M368.06,54.29c-3.45-.18-10.45-10.92-11.19-15.29C360.3,46.19,363.5,50.4,368.06,54.29Z"/><path class="cls-2" d="M46.39,256.24c1.3-3.11-5.75-15.56-9.83-18.33a39.58,39.58,0,0,1,8.54,14.25c.87,2.36-2.13.89-3.36,4.19C41.9,256.81,44,254.94,46.39,256.24Z"/><path class="cls-2" d="M93.6,221c.7-1.74-4.39-9.24-7.15-11C92.37,216.36,92,220.13,93.6,221Z"/><path class="cls-2" d="M88.31,221.62c-1.56-1.11-27.12,14.88-35.93,25.52C75.1,227.43,82.39,225.91,88.31,221.62Z"/><path class="cls-2" d="M14.05,274.84c-2.73-1.2-10.06-12.09-9.5-14.61C4.33,261.72,8.33,269.07,12,272c.83.88,2.72-2.88,4.09-3.33C13.49,271.26,15,274.44,14.05,274.84Z"/><path class="cls-2" d="M314.38,81.63c-1.32.06-4.39-3.92-4.84-5.61A16.69,16.69,0,0,0,314.38,81.63Z"/><path class="cls-2" d="M40.88,257c-2.56,3.52-8.16,2.45-8.16,2.45S38.09,259.46,40.88,257Z"/><path id="embout_2" data-name="embout 2" class="cls-3" d="M46.81,257.09a.94.94,0,0,0,.84.06c.36-.23.41-.9.2-1.9h0c9.48-11.91,38-31.89,46.81-33a.45.45,0,0,0,.39,0s0-.05.07-.08h0c.37-.68-1-3.86-3.2-7.39-2.35-3.74-4.75-6.46-5.37-6.07a.32.32,0,0,0-.13.21C84,212.7,52.26,235,36,236.35c-.8-.62-1.43-.87-1.79-.65a.77.77,0,0,0-.3.57h0c-.52,3.15-2.09,5.24-3.86,5.89h0a8.13,8.13,0,0,0-.86.48,9.06,9.06,0,0,0-3.48,4h0l0,0a10.29,10.29,0,0,0-.4,1.1c-.9,2.31-2,4.13-6.21,6.8l-5.81,3.63c-2.42,1-5.14,1.21-9.81-.57-.46-.36-.8-.51-1-.39-.44.27,0,1.92,1.17,4.29l-.33.18a7.1,7.1,0,0,0-2,9.82A7.1,7.1,0,0,0,11,274l.29-.21c1.68,2.11,3,3.32,3.43,3a.4.4,0,0,0,.15-.33l0,.07c.62-4.64,1.51-8.37,3.64-10.24l5.76-3.61a16.62,16.62,0,0,1,8.91-2.28,8.93,8.93,0,0,0,1.16.11h0a9,9,0,0,0,5.15-1.37A9.53,9.53,0,0,0,41,258.05,6,6,0,0,1,46.81,257.09Z"/><path id="embout_1" data-name="embout 1" class="cls-3" d="M328.25,73.72C339.34,66.89,362.23,53,371,55a2.71,2.71,0,0,1,1.05-.65c1.75-2.44.78-7.91-2.34-12.89s-7.62-8.24-10.57-7.74a7.13,7.13,0,0,1-1,.66C352,44,330.15,58.4,321.82,63.46l-4.23,2.65-6.85,4.29c-.32.09-.63.17-.91.22a2,2,0,0,0-1.13.27c-1.58,1-1.28,4.34.68,7.47s4.83,4.86,6.42,3.87a2.09,2.09,0,0,0,.86-1.25C320.69,78.45,318.19,79.92,328.25,73.72Zm31.53-38.91c1-.65,6.43,2.55,9.19,7s4,10.4,2.47,11.33S366,50,363.23,45.55,358,35.93,359.78,34.81Z"/><path id="Brush" class="cls-4" d="M371.72,53a44.23,44.23,0,0,0,6.78-3.4l.06,0a58.76,58.76,0,0,0,5.92-3.1c15.89-7.64,27.19-20.55,35.22-33.62A74.58,74.58,0,0,1,436.46,1.66a54.57,54.57,0,0,0-6.8,2.86c3.59-2.63,7.41-4.88,9.5-4-1.86-1.41-7.08,1.74-12,5.34-9.43,5.22-18.09,13-24.95,20.36-1.72,1.89-3.3,3.84-5,5.74-3,2.79-6.12,5.69-9.34,8.4-.5.39-1,.78-1.51,1.16,3.22-2.91,6.05-6.24,10.59-11.12A145,145,0,0,1,424.16,7.07l-1.5.83a24.46,24.46,0,0,0,6.47-6.71C420.92,9.79,410,9,400.66,12c-1.71.55-3.44,1.07-5.18,1.71l1.24-.56c3.56-1.37,7.09-2.1,10.65-3.24-8.52,1-18.05,4.5-26.82,9.63-3.87,2.25-7.68,4.16-11.21,6.93l-9.41,8.22a1.55,1.55,0,0,0-.69,1.06c-.36,2,1.73,6.17,4,9.82S367.8,52,370.4,53.2A1.93,1.93,0,0,0,371.72,53Zm2.93-3.06c-.44.2-1,.5-1.5.74l-.55.15c.24-.13.48-.28.72-.44l1.71-1c1-.35,1.92-.78,2.89-1.24Zm40-32.43c1.19-1.1,2.37-2.2,3.53-3.32l-1,.82a.94.94,0,0,1,.1-.1c.64-.57,1.27-1.13,1.92-1.69-6.52,9.48-12.75,17.15-21.94,24.1a57.12,57.12,0,0,0,10.86-11.7A61,61,0,0,1,397.7,35.79C403.5,29.75,408.79,23.47,414.69,17.47ZM398.8,33.28c-1.45,1.71-2.95,3.4-4.58,5-1.91,1.33-4,2.68-6.3,4.18s-4.63,2.9-7,4.28c1.45-1,2.68-1.81,3.32-2.22l-1.57.88c1.9-1.19,3.8-2.53,5.66-3.95A70.07,70.07,0,0,0,398.8,33.28Zm-10.59-.72a39.81,39.81,0,0,1-6.28,6,49.63,49.63,0,0,1-5.07,3.08l-.5.25a55.13,55.13,0,0,0,12.31-10.18l.94-.79C389.13,31.43,388.65,32,388.21,32.56ZM409.44,14.3l.26-.09a76.19,76.19,0,0,0-7.46,4.67l-.9.52A77.35,77.35,0,0,1,409.44,14.3Zm-47,24.42-.06.07.1-.14Zm.4-.89A9.65,9.65,0,0,0,362,39a13.22,13.22,0,0,1,1.68-3.12c.59-.68,1.24-1.34,1.92-2A22.53,22.53,0,0,0,362.86,37.83Z"/></g></g></svg>