<?xml version="1.0" encoding="utf-8"?>
<!-- Generator: Adobe Illustrator 25.4.1, SVG Export Plug-In . SVG Version: 6.00 Build 0)  -->
<svg version="1.1" id="Calque_1" xmlns="http://www.w3.org/2000/svg" xmlns:xlink="http://www.w3.org/1999/xlink" x="0px" y="0px"
	 viewBox="0 0 84.7 146.1" style="enable-background:new 0 0 84.7 146.1;" xml:space="preserve">
<style type="text/css">
	.st0{fill:#FFFFFF;}
</style>
<g id="Calque_2_00000161630213016365138600000007454910099679360693_">
	<g id="Icones">
		<path id="localisation" class="st0" d="M42.4,0C19,0,0,19,0,42.4c0,0,0,0,0,0c0,30.7,42.4,103.8,42.4,103.8S84.7,70.6,84.7,42.4
			C84.7,19,65.8,0,42.4,0C42.4,0,42.4,0,42.4,0z M42.4,62.2c-8.8,0-15.9-7.1-15.9-15.9s7.1-15.9,15.9-15.9s15.9,7.1,15.9,15.9l0,0
			C58.3,55.1,51.2,62.2,42.4,62.2z"/>
	</g>
</g>
</svg>
