<svg xmlns="http://www.w3.org/2000/svg" viewBox="0 0 719.74 474"><defs><style>.cls-1{fill:#fff;stroke-width:3px;}.cls-1,.cls-5{stroke:#f39c50;stroke-miterlimit:10;}.cls-2{fill:#292866;}.cls-3{fill:#2a2766;}.cls-4{fill:#f39c4f;}.cls-5{fill:#f39c50;stroke-width:2px;}</style></defs><title>COUL_macaron</title><g id="Layer_2" data-name="Layer 2"><g id="CRIPE"><g id="COUL_macaron"><ellipse id="Ellipse_orange" class="cls-1" cx="359.87" cy="237" rx="358.37" ry="235.5"/><g id="insertion_metier_bold" data-name="insertion metier_bold"><path class="cls-2" d="M108.76,356.83c-.18.94-.8,3.28-1,3.87H96.85v-.81c1.94-.14,2.12-.29,2.12-2.14v-8.38c0-1.85-.22-2-1.88-2.16v-.81H104v.81c-1.72.16-1.94.31-1.94,2.16v8.54c0,1.21,0,1.76,1.26,1.78,0,0,1,0,1.14,0a2.19,2.19,0,0,0,2.11-.86,9.11,9.11,0,0,0,1.39-2.29Z"/><path class="cls-2" d="M117.16,350.45c1.45-.53,1.94-1.23,1.94-1.87,0-.84-.8-1.1-1.7-1.3-.13,0-.37-.27-.37-.77a1.34,1.34,0,0,1,1.49-1.28,2.34,2.34,0,0,1,2.27,2.53c0,2-1.63,3.06-3.3,3.5Z"/><path class="cls-2" d="M131.92,360.7v-.81c1.67-.16,1.87-.29,1.87-2.14v-8.38c0-1.85-.22-2-1.87-2.16v-.81h6.8v.81c-1.65.16-1.87.31-1.87,2.16v8.38c0,1.83.2,2,1.87,2.14v.81Z"/><path class="cls-2" d="M164.72,347.21c-1.34.18-1.76.47-1.82,1.45s-.13,1.61-.13,3.52v8.76h-1.24l-9.17-11v5a32,32,0,0,0,.11,3.41c.09,1,.55,1.48,2.18,1.57v.81h-5.46v-.81c1.25-.11,1.8-.44,1.94-1.48a31.62,31.62,0,0,0,.13-3.5V349.7a2.66,2.66,0,0,0-.46-1.78c-.4-.55-.93-.62-1.85-.71v-.81h4.29l8.38,9.75v-4c0-1.91,0-2.63-.09-3.45s-.41-1.41-2.24-1.52v-.81h5.43Z"/><path class="cls-2" d="M183.12,350c-.44-1.41-1.06-3-3.09-3a2,2,0,0,0-2.11,2.14c0,1.21.82,1.94,2.75,2.9,2.36,1.17,3.85,2.31,3.85,4.49,0,2.6-2.15,4.49-5.3,4.49a12.71,12.71,0,0,1-3.7-.68c-.13-.51-.5-2.8-.66-3.83l.86-.2c.44,1.39,1.67,3.79,3.83,3.79a2,2,0,0,0,2.16-2.25c0-1.27-.8-2-2.64-3-2.29-1.23-3.79-2.34-3.79-4.62s1.81-4.14,5.11-4.14a15.81,15.81,0,0,1,3.14.4c.09.81.25,1.95.42,3.34Z"/><path class="cls-2" d="M207.14,357c-.11.59-.73,3.12-.92,3.74H194.8v-.79c2-.2,2.13-.31,2.13-2.16v-8.4c0-1.87-.26-2-1.76-2.14v-.81h7.15c2.31,0,3.08,0,3.39,0,0,.4.13,2.2.22,3.57l-.86.11a5.5,5.5,0,0,0-.95-2c-.39-.44-.68-.57-1.8-.57h-1.43c-.84,0-.92,0-.92.79v4.6h2.15c1.23,0,1.46-.33,1.79-1.89h.85v4.91h-.85c-.36-1.63-.53-1.9-1.81-1.9H200v3.79c0,1.52,0,2,1.4,2h1.57c1.23,0,1.56-.15,2-.75a10.16,10.16,0,0,0,1.35-2.2Z"/><path class="cls-2" d="M231.08,360.83c-.14,0-.4,0-.66,0-2.8-.13-3.61-.73-4.27-1.65a40,40,0,0,1-2.27-3.87,1.23,1.23,0,0,0-1.34-.73l-.44,0v3.21c0,1.78.22,1.94,1.87,2.14v.81h-6.73v-.81c1.67-.18,1.87-.36,1.87-2.14v-8.43c0-1.73-.22-2-1.87-2.11v-.81h6.38a6.76,6.76,0,0,1,4,.83,3.38,3.38,0,0,1,1.47,2.93,3.77,3.77,0,0,1-2.75,3.57c.33.66,1.19,2.09,1.85,3.1a19.22,19.22,0,0,0,1.67,2.29,2.69,2.69,0,0,0,1.39,1Zm-8.39-7.19a3.29,3.29,0,0,0,2.16-.57,3.16,3.16,0,0,0,1-2.58c0-2.33-1.34-3.17-2.57-3.17-.6,0-.88.09-1,.22s-.2.4-.2.84v5.26Z"/><path class="cls-2" d="M252.31,350.21a6.92,6.92,0,0,0-.95-2.16c-.4-.46-.57-.64-1.87-.64h-1.41v10.34c0,1.85.22,2,2.18,2.14v.81H243v-.81c1.87-.16,2.07-.29,2.07-2.14V347.41h-1.34c-1.23,0-1.58.2-2,.73a8,8,0,0,0-.9,2.09h-.84c.15-1.61.31-3.33.35-4.38H241c.33.5.6.55,1.26.55H251a1.44,1.44,0,0,0,1.27-.55h.64c0,.92.11,2.86.22,4.29Z"/><path class="cls-2" d="M263.48,360.7v-.81c1.67-.16,1.87-.29,1.87-2.14v-8.38c0-1.85-.22-2-1.87-2.16v-.81h6.8v.81c-1.65.16-1.87.31-1.87,2.16v8.38c0,1.83.2,2,1.87,2.14v.81Z"/><path class="cls-2" d="M288.69,346.09a7.17,7.17,0,0,1,7.39,7.31,7.55,7.55,0,1,1-7.39-7.31Zm-.33,1c-2.24,0-3.89,2.2-3.89,6.09,0,3.72,1.47,6.91,4.44,6.91,2.09,0,3.72-2,3.72-6.05C292.63,349.65,290.91,347.06,288.36,347.06Z"/><path class="cls-2" d="M322.13,347.21c-1.34.18-1.76.47-1.82,1.45a35.23,35.23,0,0,0-.14,3.52v8.76h-1.23l-9.17-11v5a32,32,0,0,0,.11,3.41c.08,1,.55,1.48,2.17,1.57v.81H306.6v-.81c1.25-.11,1.8-.44,1.93-1.48a28.54,28.54,0,0,0,.14-3.5V349.7a2.61,2.61,0,0,0-.47-1.78c-.39-.55-.92-.62-1.84-.71v-.81h4.29l8.38,9.75v-4c0-1.91,0-2.63-.09-3.45s-.42-1.41-2.24-1.52v-.81h5.43Z"/><path class="cls-2" d="M331.61,362.94c1.3-.57,2.11-1.27,2.11-2.13s-.57-1.12-1.76-1.36c-.15,0-.35-.36-.35-.93a1.5,1.5,0,0,1,1.59-1.43,2.52,2.52,0,0,1,2.31,2.77c0,2.07-1.87,3.41-3.61,3.88Z"/><path class="cls-2" d="M375.06,347.21c-1.34.18-1.75.47-1.82,1.45s-.13,1.61-.13,3.52v8.76h-1.24l-9.17-11v5a32,32,0,0,0,.11,3.41c.09,1,.55,1.48,2.18,1.57v.81h-5.46v-.81c1.25-.11,1.8-.44,1.94-1.48a29.23,29.23,0,0,0,.13-3.5V349.7a2.61,2.61,0,0,0-.46-1.78c-.4-.55-.93-.62-1.85-.71v-.81h4.29l8.38,9.75v-4c0-1.91,0-2.63-.09-3.45s-.41-1.41-2.24-1.52v-.81h5.43Z"/><path class="cls-2" d="M393,346.09a7.17,7.17,0,0,1,7.39,7.31,7.55,7.55,0,1,1-7.39-7.31Zm-.33,1c-2.25,0-3.9,2.2-3.9,6.09,0,3.72,1.48,6.91,4.45,6.91,2.09,0,3.72-2,3.72-6.05C397,349.65,395.26,347.06,392.71,347.06Z"/><path class="cls-2" d="M423,350.21a6.73,6.73,0,0,0-.94-2.16c-.4-.46-.58-.64-1.88-.64h-1.4v10.34c0,1.85.22,2,2.18,2.14v.81h-7.31v-.81c1.87-.16,2.07-.29,2.07-2.14V347.41h-1.34c-1.24,0-1.59.2-2,.73a8.71,8.71,0,0,0-.9,2.09h-.83c.15-1.61.3-3.33.35-4.38h.66c.33.5.59.55,1.25.55h8.8a1.45,1.45,0,0,0,1.28-.55h.64c0,.92.11,2.86.22,4.29Z"/><path class="cls-2" d="M448,360.83c-.14,0-.4,0-.67,0-2.79-.13-3.6-.73-4.26-1.65a40,40,0,0,1-2.27-3.87,1.23,1.23,0,0,0-1.34-.73l-.44,0v3.21c0,1.78.22,1.94,1.87,2.14v.81h-6.73v-.81c1.67-.18,1.87-.36,1.87-2.14v-8.43c0-1.73-.22-2-1.87-2.11v-.81h6.38a6.74,6.74,0,0,1,4,.83,3.38,3.38,0,0,1,1.47,2.93,3.76,3.76,0,0,1-2.75,3.57c.33.66,1.19,2.09,1.85,3.1a19.22,19.22,0,0,0,1.67,2.29,2.69,2.69,0,0,0,1.39,1Zm-8.39-7.19a3.29,3.29,0,0,0,2.16-.57,3.13,3.13,0,0,0,1-2.58c0-2.33-1.34-3.17-2.57-3.17-.6,0-.88.09-1,.22s-.2.4-.2.84v5.26Z"/><path class="cls-2" d="M469.82,357c-.11.59-.73,3.12-.93,3.74H457.47v-.79c2-.2,2.14-.31,2.14-2.16v-8.4c0-1.87-.27-2-1.76-2.14v-.81H465c2.31,0,3.08,0,3.39,0,0,.4.13,2.2.22,3.57l-.86.11a5.5,5.5,0,0,0-.95-2c-.39-.44-.68-.57-1.8-.57h-1.43c-.84,0-.93,0-.93.79v4.6h2.16c1.23,0,1.45-.33,1.78-1.89h.86v4.91h-.86c-.35-1.63-.53-1.9-1.8-1.9h-2.14v3.79c0,1.52.05,2,1.41,2h1.56c1.24,0,1.57-.15,2.05-.75a9.74,9.74,0,0,0,1.34-2.2Z"/><path class="cls-2" d="M505.1,360.7v-.81c1.68-.18,1.79-.33,1.79-2.31l0-8.59c-1.58,3.79-3.32,8-4.9,11.71h-.73c-1.43-3.59-3-7.68-4.57-11.53-.29,6.91-.29,8.27-.29,9.07,0,1.18.46,1.49,2.11,1.65v.81H493v-.81c1.26-.11,1.83-.36,2-1.68.08-.66.17-1.91.68-9.17.06-1.06-.09-1.65-2-1.83v-.81h4.75l4.25,9.7,4.27-9.7h4.64v.81c-1.76.18-2,.35-1.91,2.11l.17,8.26c0,2,.11,2.06,1.89,2.31v.81Z"/><path class="cls-2" d="M534.3,357c-.11.59-.73,3.12-.93,3.74H522v-.79c2-.2,2.14-.31,2.14-2.16v-8.4c0-1.87-.27-2-1.76-2.14v-.81h7.15c2.31,0,3.08,0,3.39,0,0,.4.13,2.2.22,3.57l-.86.11a5.5,5.5,0,0,0-1-2c-.39-.44-.68-.57-1.8-.57h-1.43c-.84,0-.92,0-.92.79v4.6h2.15c1.23,0,1.45-.33,1.78-1.89h.86v4.91h-.86c-.35-1.63-.52-1.9-1.8-1.9h-2.13v3.79c0,1.52,0,2,1.4,2h1.57c1.23,0,1.56-.15,2-.75a9.74,9.74,0,0,0,1.34-2.2Zm-7.53-12.32,3.79-3.68a8,8,0,0,1,2,1.63l0,.2-5.26,2.51Z"/><path class="cls-2" d="M556.25,350.21a6.73,6.73,0,0,0-.94-2.16c-.4-.46-.57-.64-1.87-.64H552v10.34c0,1.85.22,2,2.18,2.14v.81H546.9v-.81c1.87-.16,2.07-.29,2.07-2.14V347.41h-1.34c-1.23,0-1.58.2-2,.73a8,8,0,0,0-.9,2.09h-.84c.15-1.61.31-3.33.35-4.38h.66c.33.5.6.55,1.26.55H555a1.44,1.44,0,0,0,1.27-.55h.64c0,.92.11,2.86.22,4.29Z"/><path class="cls-2" d="M567.43,360.7v-.81c1.67-.16,1.87-.29,1.87-2.14v-8.38c0-1.85-.22-2-1.87-2.16v-.81h6.8v.81c-1.65.16-1.87.31-1.87,2.16v8.38c0,1.83.2,2,1.87,2.14v.81Z"/><path class="cls-2" d="M597,357c-.11.59-.73,3.12-.93,3.74H584.63v-.79c2-.2,2.14-.31,2.14-2.16v-8.4c0-1.87-.27-2-1.76-2.14v-.81h7.15c2.31,0,3.08,0,3.39,0,0,.4.13,2.2.22,3.57l-.86.11a5.5,5.5,0,0,0-.95-2c-.39-.44-.68-.57-1.8-.57h-1.43c-.84,0-.93,0-.93.79v4.6H592c1.23,0,1.45-.33,1.78-1.89h.86v4.91h-.86c-.35-1.63-.53-1.9-1.8-1.9H589.8v3.79c0,1.52.05,2,1.41,2h1.56c1.24,0,1.57-.15,2.05-.75a9.74,9.74,0,0,0,1.34-2.2Z"/><path class="cls-2" d="M620.91,360.83c-.13,0-.39,0-.66,0-2.79-.13-3.61-.73-4.27-1.65a39.94,39.94,0,0,1-2.26-3.87,1.24,1.24,0,0,0-1.35-.73l-.44,0v3.21c0,1.78.22,1.94,1.88,2.14v.81h-6.74v-.81c1.67-.18,1.87-.36,1.87-2.14v-8.43c0-1.73-.22-2-1.87-2.11v-.81h6.38a6.74,6.74,0,0,1,4,.83,3.36,3.36,0,0,1,1.48,2.93,3.77,3.77,0,0,1-2.75,3.57c.33.66,1.19,2.09,1.85,3.1a18.14,18.14,0,0,0,1.67,2.29,2.69,2.69,0,0,0,1.39,1Zm-8.38-7.19a3.25,3.25,0,0,0,2.15-.57,3.14,3.14,0,0,0,1-2.58c0-2.33-1.34-3.17-2.58-3.17a1.51,1.51,0,0,0-1,.22c-.15.14-.2.4-.2.84v5.26Z"/></g><path class="cls-3" d="M469.58,166.44c13.06,0,23.54,2.39,31.08,7.91,7.18,5.34,12.14,14,12.14,26.12,0,26.85-23,37.71-40.46,37.71a33,33,0,0,1-5-.37l-12.69-3.31v28.69c0,15.45,1.29,15.82,18.21,17.66V286H422.13v-5.15c15.81-1.66,16.55-2.76,16.55-18v-73c0-16.37-2-16.73-16.55-18.21v-5.15Zm-14.9,61.62c2.21,1.1,7.17,2.39,13.43,2.39,12.32,0,27.59-6.25,27.59-29.43,0-20.23-13.25-28.32-28.7-28.32-5.33,0-9.19.92-10.3,2.2-1.47,1.29-2,3.5-2,8.46Z"/><path class="cls-3" d="M623.52,256.75c-1.1,4.79-6.07,23.73-7.9,29.25H526.23v-5.15c17.1-1.29,18.39-2.94,18.39-18V190.17c0-16.37-2-17.29-15.82-18.58v-5.15h56.28c17.29,0,24.47-.18,26.67-.36.19,4.59.92,18.39,1.66,28.14l-5.52.92a61,61,0,0,0-5.52-14c-2.94-6.07-7.17-7.36-18.21-7.36H566.69c-5.7,0-6.07.55-6.07,5.89v40.64H581c13.79,0,14.71-2.75,16.92-15.26h5.7V243H598c-2.39-13.24-3.87-15.08-17.11-15.08H560.62v36.6c0,12.87,4,14,13.24,14.16H591c11.22,0,13.06-1.65,17.1-6.44,3.5-3.86,7.36-11.4,9.94-16.92Z"/><g id="ORANGE_BLEU_NUIT"><polygon class="cls-4" points="384.39 276.49 343.38 278.35 362.5 316.91 408.48 310.06 384.39 276.49"/><polygon class="cls-4" points="374.74 234.08 414.16 245.36 388.61 274.67 345.27 257.84 374.74 234.08"/><polygon class="cls-4" points="378.17 153.08 337.19 155.15 356.02 191.77 402 184.92 378.17 153.08"/><polygon class="cls-4" points="380.81 197.53 340.04 193.13 352.66 229.9 399.15 230.64 380.81 197.53"/><path class="cls-3" d="M356.7,25.29s4.54,87.84,22.14,83.69,39.5-38.68,39.5-38.68-39.8,73-55,71.06S356.7,25.29,356.7,25.29Z"/><ellipse class="cls-3" cx="379.72" cy="73.4" rx="14.56" ry="9.71" transform="translate(284.56 448.26) rotate(-86.7)"/><polygon id="_Path_2" data-name="&lt;Path&gt;2" class="cls-3" points="399.67 194.65 353.32 201.55 356.02 191.74 401.99 184.97 399.67 194.65"/><polygon id="_Path_2-2" data-name="&lt;Path&gt;2" class="cls-3" points="406.37 319.41 360.52 326.21 362.52 316.93 408.51 310.05 406.37 319.41"/><polyline class="cls-3" points="345.25 257.82 345.5 266.26 388.92 282.99 388.63 274.65"/><polygon class="cls-3" points="395.85 238.3 349.32 237.65 352.73 229.91 399.17 230.63 395.85 238.3"/></g><path class="cls-3" d="M207.81,256.29c-2.57,8.83-7.36,22.08-10.11,27.78-5.34,1.1-19.68,4.41-33.66,4.41-44,0-66.4-29.24-66.4-61.43,0-37.52,28.51-63.46,69.71-63.46,15.82,0,28.69,3.31,34.76,4.23.74,8.28,2,19.32,3.49,28.51l-5.7,1.29c-3.68-12.32-8.09-19.87-17.47-23.73-4.78-2.2-12.32-3.49-19.31-3.49-30.35,0-46.35,22.44-46.35,52.79,0,35.49,18.39,58.3,48.19,58.3,18.76,0,27.95-8.64,37.33-27Z"/><path class="cls-3" d="M334.53,287.19c-2.39,0-4.41-.18-6.8-.36-13.43-.92-20.6-4.42-28.7-15.82-6.8-9.38-13.42-21-19.31-30.35-3.68-5.89-6.07-7-15.45-7h-6.44v28.88c0,15.63,2,16.55,16.74,18v5.15H225.46v-5.15c15.27-1.65,16.56-2.39,16.56-18V189.16c0-15.64-2-16.19-16.56-17.84v-5.15h46.91c13.42,0,22.43,1.65,29.42,6.25,7.54,4.78,12.51,13.06,12.51,24.28,0,15.82-10.12,25.75-23.73,31.64,3.31,5.7,11.22,18,16.74,26.3,6.81,9.75,10.3,14.34,14.53,18.94,5,5.34,9.2,7.36,13.43,8.46Zm-67.87-59.77c9.57,0,15.64-1.47,20.24-5.34,7.17-5.33,10.11-12.69,10.11-22.62,0-19.68-13.06-26.86-27.22-26.86-5.33,0-8.46.74-9.75,1.84-1.65,1.29-2.21,3.13-2.21,7.91v45.07Z"/><line class="cls-5" x1="420.47" y1="317.34" x2="619.99" y2="317.34"/><line class="cls-5" x1="96.22" y1="317.34" x2="333.79" y2="317.34"/></g></g></g></svg>