<svg xmlns="http://www.w3.org/2000/svg" viewBox="0 0 269.72 206.3"><defs><style>.cls-1{fill:none;stroke:#f59c51;stroke-miterlimit:10;stroke-width:6px;}</style></defs><g id="Calque_2" data-name="Calque 2"><g id="Calque_1-2" data-name="Calque 1"><path class="cls-1" d="M249.13,203.3H20.59A17.58,17.58,0,0,1,3,185.72V63.14A17.58,17.58,0,0,1,20.59,45.55H249.13a17.59,17.59,0,0,1,17.59,17.59V185.72A17.59,17.59,0,0,1,249.13,203.3Z"/><path class="cls-1" d="M151.11,151.21h-32.5c-1.38,0-2.5-2.67-2.5-6V103.61a11.69,11.69,0,0,1,.58-3.83c.46-1.31,1.15-2.14,1.92-2.14h32.5c1.38,0,2.5,2.67,2.5,6v41.63C153.61,148.54,152.49,151.21,151.11,151.21Z"/><path class="cls-1" d="M198.21,3H71.5c-.57,0-1.08.61-1.42,1.57a1,1,0,0,0-.45.73V38.69c0,2.47.84,4.48,1.87,4.48H95.87c1,0,1.87-2,1.87-4.48v-15H172v15c0,2.47.84,4.48,1.88,4.48h24.36c1,0,1.88-2,1.88-4.48V7.48C200.09,5,199.25,3,198.21,3Z"/><path class="cls-1" d="M139.2,117.84,253.41,57.35c6.2-3.29,3.57-11.85-3.63-11.8L19.84,47c-7.21.05-9.71,8.65-3.43,11.85l115.73,59.06A7.68,7.68,0,0,0,139.2,117.84Z"/></g></g></svg>