<svg xmlns="http://www.w3.org/2000/svg" viewBox="0 0 354.56 604.41"><defs><style>.cls-1{fill:none;stroke:#f59c51;stroke-miterlimit:10;stroke-width:18px;}</style></defs><g id="Calque_2" data-name="Calque 2"><g id="Calque_1-2" data-name="Calque 1"><path class="cls-1" d="M177.28,9C84.34,9,9,80.41,9,168.49,9,298.35,163.92,586.9,163.92,586.9a13.47,13.47,0,0,0,25,0s156.6-284.7,156.6-418.41C345.56,80.41,270.22,9,177.28,9Zm5,447.32a5.72,5.72,0,0,1-10.64,0s-65.82-122.61-65.82-177.79c0-37.42,32-67.76,71.5-67.76s71.5,30.34,71.5,67.76C248.78,335.35,182.24,456.32,182.24,456.32Z"/></g></g></svg>