<svg xmlns="http://www.w3.org/2000/svg" viewBox="0 0 158.26 150.53"><defs><style>.cls-1{fill:#855771;}.cls-2{fill:#e32185;}.cls-3{fill:#ebb4d4;}.cls-4{fill:#a5156a;}.cls-5{fill:#9f2d73;}.cls-6{fill:#f0d347;}.cls-11,.cls-7,.cls-8{fill:#e0c53f;}.cls-8{stroke:#483e18;}.cls-11,.cls-8{stroke-miterlimit:10;stroke-width:4px;}.cls-9{fill:#bca957;}.cls-10{fill:#6b515f;}.cls-11{stroke:#322d17;}</style></defs><g id="Calque_2" data-name="Calque 2"><g id="Calque_2-2" data-name="Calque 2"><path class="cls-1" d="M125.45,30.41c-13.67-28.68-49.56-38-83.25-24C9.11,20-9.09,51.84,4.58,80.52c11.45,24,39.27,49.37,56.12,40.58-21.3-2-33.41-18.66-42.25-37.2-11.07-23.22.91-52,26.74-64.34s58.43-6.72,69.49,16.5c4.47,9.37,9.86,19.07,8.73,30.38,2,.22,3.46,5.64,3.46,5.64s-.13,0,3.57-.56C132.64,60,130.86,41.76,125.45,30.41Z"/><path class="cls-2" d="M123.27,33c-14-29.44-47.74-33-79.87-20.9C9,25-1.09,58.75,12.94,88.2c13.91,29.17,46.21,42.74,79.17,27.55h0c-34.73,14.61-61-5.11-72.2-28.67C8.54,63.24,18.73,34.9,45.26,22.26S104,16,115.33,39.78c4,8.38,9.51,25.91,7.58,34.64l6.3-2.27c0,.07,1.06-6.49,1.14-8.45C130.58,57.51,128.59,44.17,123.27,33Z"/><rect class="cls-3" x="121.75" y="66.41" width="10.09" height="8.09" transform="translate(-3.29 6.27) rotate(-2.8)"/><ellipse class="cls-4" cx="126.59" cy="66.41" rx="5.05" ry="0.69" transform="translate(-3.09 6.26) rotate(-2.8)"/><ellipse class="cls-3" cx="126.99" cy="74.5" rx="5.05" ry="0.69" transform="translate(-3.48 6.29) rotate(-2.8)"/><rect class="cls-3" x="46.85" y="116.19" width="10.09" height="8.09" transform="translate(-78.66 130.5) rotate(-71.15)"/><ellipse class="cls-4" cx="48.07" cy="118.93" rx="5.05" ry="0.69" transform="translate(-80.01 125.99) rotate(-71.15)"/><ellipse class="cls-2" cx="47.8" cy="117.79" rx="1.61" ry="0.39" transform="matrix(0.32, -0.95, 0.95, 0.32, -79.11, 124.96)"/><ellipse class="cls-3" cx="55.73" cy="121.54" rx="5.05" ry="0.69" transform="translate(-77.3 135.01) rotate(-71.15)"/><path class="cls-2" d="M130.16,65.8c0,.38-1.54.8-3.49.94s-3.54-.07-3.59-.45c-.21-1.69,1.54-.8,3.49-.93S130.33,64.12,130.16,65.8Z"/><polygon class="cls-1" points="117.53 49.82 125.23 43.91 127.64 56.54 119.94 62.48 117.53 49.82"/><path class="cls-5" d="M119.92,62.35l7.7-5.9.84,4.41L124.31,64a2.76,2.76,0,0,1-4.39-1.67Z"/><rect class="cls-6" x="126.39" y="43.4" width="4.27" height="12.76" transform="translate(-7.05 24.94) rotate(-10.79)"/><path class="cls-6" d="M127.62,56.45l.84,4.41,2.76-.53a1.45,1.45,0,0,0,1.16-1.7l-.57-3Z"/><polygon class="cls-1" points="31.26 101 22.61 105.41 32.97 113.02 41.65 108.64 31.26 101"/><path class="cls-5" d="M41.55,108.56,32.9,113l3.62,2.65,4.66-2.37a2.76,2.76,0,0,0,.38-4.68Z"/><rect class="cls-6" x="24.36" y="104.53" width="4.27" height="12.76" transform="translate(131.58 155.19) rotate(126.29)"/><path class="cls-6" d="M32.9,113l3.62,2.65-1.66,2.27a1.46,1.46,0,0,1-2,.31l-2.44-1.79Z"/><ellipse class="cls-7" cx="133.19" cy="94.7" rx="25.29" ry="23.24" transform="translate(-24.23 50.8) rotate(-19.83)"/><ellipse class="cls-8" cx="130.15" cy="94.5" rx="24.02" ry="22.02" transform="translate(-24.34 49.75) rotate(-19.83)"/><ellipse class="cls-9" cx="128.68" cy="93.42" rx="19.71" ry="18.07" transform="translate(-24.06 49.19) rotate(-19.83)"/><ellipse class="cls-10" cx="128.68" cy="93.42" rx="15.4" ry="14.12" transform="translate(-24.06 49.19) rotate(-19.83)"/><path class="cls-7" d="M83.81,118.66C96.57,128,103.83,139.83,100,145s-20.31,9.27-33.08-.1S50,116.27,53.8,111.09,71,109.29,83.81,118.66Z"/><path class="cls-11" d="M87,114.09c12.24,9,20.31,23,16.5,28.22A17.59,17.59,0,0,1,100,145c-5.21,2.76-18.27-3.37-29-11.23-11-8-17.93-17.84-16.43-23.57A17.34,17.34,0,0,1,56,106.91C59.84,101.73,74.72,105.1,87,114.09Z"/><ellipse class="cls-9" cx="79.29" cy="124.02" rx="8.45" ry="22.59" transform="translate(-67.61 114.53) rotate(-53.71)"/><ellipse class="cls-10" cx="79.16" cy="122.82" rx="5.8" ry="14.12" transform="matrix(0.59, -0.81, 0.81, 0.59, -66.69, 113.94)"/></g></g></svg>