<svg xmlns="http://www.w3.org/2000/svg" viewBox="0 0 186.68 351.19"><defs><style>.cls-1{fill:#f7f0f0;}</style></defs><title>Logo calligraphie</title><g id="Layer_2" data-name="Layer 2"><g id="BLANC"><g id="Logo_calligraphie" data-name="Logo calligraphie"><g id="c"><path class="cls-1" d="M180,147.32,176.66,144h.3a19.51,19.51,0,0,1-2.85-2.6c.15,0,.21-.17.83.38a13.36,13.36,0,0,0-2.1-1.72,1.19,1.19,0,0,0-.84-.2c-.4.06-.72.22-2.57-1.19a9.39,9.39,0,0,1,.94.84c.91.68,1.47,1.55,1,1.38,2,1.23,1.72,1.62,2.44,1.27,1.34.75,2.17,2.18.72,1.26,1.18.83,2.27,1.76,3.38,2.67l-1.72-1.91C177.11,144.25,179,147.18,180,147.32Z"/><path class="cls-1" d="M162.92,132.8c-.18.19-2.29-1-1.07.13a9.83,9.83,0,0,1,1.26.73c-.62.26-3.79-2.18-3.3-1.16,2.24,1.29,2.49,1.63,4.08,2.13a30.27,30.27,0,0,1,4,3.41c.61.35.89.16,1.63.67l-.48-.37.46-.73a14.57,14.57,0,0,1-1.9-1.31,37.31,37.31,0,0,1,3.67,1.63,6.7,6.7,0,0,0-2.2-2.41,25.48,25.48,0,0,1-2.67-2.19c1,1.67-1.5-.65,1.13,2l-2-.57C164.7,134.06,163.79,133.44,162.92,132.8Z"/><path class="cls-1" d="M4.77,259.42a9,9,0,0,0-1.14-4.32c-.12-.39-.19-.73-.27-1.06l-1.52-3.3a6.47,6.47,0,0,1-.55-.74c.36,1.37.77,2.73,1.15,4.09-.32-.51.07,1.49-.35.66.09.31.43,1.78.48,1.35l-.15-.85C3.48,257.32,3.53,256,4.77,259.42Z"/><path class="cls-1" d="M52.66,132.56a5.23,5.23,0,0,0,.84-.37S53.14,132.29,52.66,132.56Z"/><path class="cls-1" d="M4.41,203c0-.33.07-.57.08-.72A5.87,5.87,0,0,0,4.41,203Z"/><path class="cls-1" d="M2,239.21l.23,1.49A8.39,8.39,0,0,0,2,239.21Z"/><polygon class="cls-1" points="151.5 128.66 151.66 128.59 151.58 128.59 151.5 128.66"/><path class="cls-1" d="M156.55,129.72a5.72,5.72,0,0,0-1.17-.56C155.76,129.34,156.17,129.51,156.55,129.72Z"/><path class="cls-1" d="M143.14,130.58a5.61,5.61,0,0,1,.82,0C143.48,130.52,143,130.44,143.14,130.58Z"/><path class="cls-1" d="M66.66,133.85a1,1,0,0,0-.44.1A.4.4,0,0,0,66.66,133.85Z"/><path class="cls-1" d="M159.8,130.16h-1.06c-1.84-1.69-3.37-2.07-5.46-3.23,1.53.94,3.11,1.81,4.58,2.84,1.93,1.69.43.91-1.31,0a2.92,2.92,0,0,1,.83.61c.29-.06,5.39,2.47,1.35-.06.24-.23.94.11,1.72.56s1.61,1.1,2.19,1.38c-.69-.65.61-.08.5-.43a15,15,0,0,1-2.16-1.17c-.25-.51,1.2.19,2.18,1-1.11-1.14,1.91.68.22-.76a32.68,32.68,0,0,0-10.4-4.47c1.2.55,2.48,1.13,3.68,1.73A22.85,22.85,0,0,1,159.8,130.16Z"/><polygon class="cls-1" points="152.27 132.9 152.06 132.84 151.99 132.84 152.27 132.9"/><path class="cls-1" d="M1.4,224.18l-.08.07C1.33,224.5,1.37,224.38,1.4,224.18Z"/><path class="cls-1" d="M67.82,122.75a11.18,11.18,0,0,0,1.22-.56C68.52,122.41,68.14,122.59,67.82,122.75Z"/><polygon class="cls-1" points="30.2 162.3 30.2 162.14 30.06 162.44 30.2 162.3"/><path class="cls-1" d="M30.27,162.14l.12-.26c2.55-4,.81.12,3.47-3.88a2.71,2.71,0,0,0-.09.41,26.23,26.23,0,0,1,2.17-2.86c.75-.94,1.35-1.76,1.27-2.12-.42.52-3,2.94-2.82,2.28-.82,1.12-2.34,2.53-2.74,3.17,1.65-1.61.53.11-.25,1.43-1,1-.22-.49-1,.4l-1.81,2.68,1.68-2.25Z"/><path class="cls-1" d="M33.77,158.44a4.37,4.37,0,0,0-.35.68A1.64,1.64,0,0,0,33.77,158.44Z"/><path class="cls-1" d="M47.66,145.17c.17-.17.34-.37.56-.61Z"/><path class="cls-1" d="M34.39,155.69a2.51,2.51,0,0,0,.4-.78A2.31,2.31,0,0,0,34.39,155.69Z"/><path class="cls-1" d="M97,121.22a15.13,15.13,0,0,1-3.22.28,2.85,2.85,0,0,1,1.11.32A19.48,19.48,0,0,0,97,121.22Z"/><path class="cls-1" d="M155.17,129.92c-.16.39-2.93-1.48-2.21-.57C153.7,129.54,155.3,130.42,155.17,129.92Z"/><path class="cls-1" d="M14.06,198s0,0-.06-.06S14,198.05,14.06,198Z"/><path class="cls-1" d="M16.77,174.78l.05-.09h0S16.77,174.75,16.77,174.78Z"/><path class="cls-1" d="M13.07,268.69c-.05-.17-.08-.29-.1-.33S13,268.58,13.07,268.69Z"/><path class="cls-1" d="M19.73,168.07l-.47,1.34a14.82,14.82,0,0,0,1.35-2.59c.29-.68.44-1.17.64-1.68,0,.15.18,0,.5-.26,1.16-2,1.38-3.39.38-2.57l-.27.75-1.29,1.1c.25.53-.44,1.69-1.19,3.11a37.48,37.48,0,0,0-2.17,4.23c.5-1.76.53-3.56,2.19-5.29h-.54c1-1.77,2.32-2.88,2.52-4.09l-1.18,2L20,164c-.91,1.42-1.63,3.48-2.63,4.67-.2.67-.34,1.35-.67,2.24a21.78,21.78,0,0,1-1.65,3.61v-.15a6.78,6.78,0,0,1-.69,2c-.36.73-.76,1.43-1.19,2.12A13.17,13.17,0,0,0,11.61,182c.21.63.66-.22,1.21-1.37a20.07,20.07,0,0,1,1.6-3c-.31,1.52-1.41,2.83-.41,1.83-1.08,3.37-1.57,1.62-2.13,4.55l.84-1.44c-.1,1.38-1.18,3.28-1.24,4.67.49.38.8-2.06,1.93-4.28v1.22l.69-2.4.8-2.36c-.1-1.67-.69-.42.14-3.5a4.24,4.24,0,0,1,1.75-1.21,9.72,9.72,0,0,1,.84-2.68A39.12,39.12,0,0,1,19.73,168.07Z"/><path class="cls-1" d="M155.31,130.79l-1.76-.88,1.11.83C154.8,130.74,154.83,130.57,155.31,130.79Z"/><path class="cls-1" d="M161,138a17,17,0,0,0-3-2.48c-1.36-.85-2.59-1.44-2.83-1.08a9.56,9.56,0,0,1,3.33,1.47c0,1.21-2.62-1.26-3.8-.83a14.44,14.44,0,0,0,3.3,1.56A15,15,0,0,1,161,138Z"/><polygon class="cls-1" points="153.32 134.8 154.96 135.51 154.84 135.37 153.19 134.66 153.32 134.8"/><path class="cls-1" d="M117.66,114.67c-.15-.34-1.39-.11-2-.08A7.06,7.06,0,0,0,117.66,114.67Z"/><path class="cls-1" d="M70.34,124.44c.87-.46,1.6-.9,2.28-1.28l2-1.06a27,27,0,0,1,4.46-2,16,16,0,0,0-5.62,2.19,19.16,19.16,0,0,1-4.88,2.26Z"/><path class="cls-1" d="M68.78,123.51c2.39-1.21.9-1,3.16-2a7.48,7.48,0,0,1-1.34-.07C71.44,121.74,68.06,123.33,68.78,123.51Z"/><path class="cls-1" d="M89.06,126.42c.28-.11.56-.2.83-.29l.17-.24Z"/><polygon class="cls-1" points="55.1 130.12 53.31 131.03 54.8 130.47 55.1 130.12"/><path class="cls-1" d="M90.58,127.24l.72-.43c-.77.19-1.55.4-2.31.63C89.51,127.34,90.05,127.31,90.58,127.24Z"/><path class="cls-1" d="M74.31,128.73c.42-.27.87-.48,1.31-.72-.13.07-.7.22-1.11.37S73.84,128.71,74.31,128.73Z"/><path class="cls-1" d="M43.68,138.8c.44-.48.87-1,1.33-1.43l-.19.07c-.47.46-.88,1-1.33,1.45Z"/><path class="cls-1" d="M64.89,135.33c.3.19-2.45,1.47-.64.87C65.56,135.39,65.23,135.36,64.89,135.33Z"/><path class="cls-1" d="M64.89,135.33a.28.28,0,0,0-.18,0Z"/><path class="cls-1" d="M45.22,145.52a12.07,12.07,0,0,0,1.65-1.38A5.23,5.23,0,0,0,45.22,145.52Z"/><path class="cls-1" d="M14.76,174c1.34-2.35.58-2.28,1.23-3.79-.7,1.37-1.13,2.19-1.61,3.07a30.67,30.67,0,0,0-1.66,3.53,20.11,20.11,0,0,1,1.42-2.46C14.46,173.92,14.63,173.84,14.76,174Z"/><polygon class="cls-1" points="48.27 149.04 48.66 148.6 49.1 147.58 48.27 149.04"/><path class="cls-1" d="M10.78,180.58a9.78,9.78,0,0,1,.88-1.58C11.38,178.71,10.53,181.06,10.78,180.58Z"/><path class="cls-1" d="M21.9,174.06a17,17,0,0,0,1.5-2.26C22.86,172.65,21.84,173,21.9,174.06Z"/><path class="cls-1" d="M9.21,188.74c.2-.49.7-1.16.87-.73C10.14,187.24,9.9,186,9.21,188.74Z"/><polygon class="cls-1" points="20.51 176.38 19.58 178.42 19.87 178.13 20.51 176.38"/><path class="cls-1" d="M25.43,176c.27-.12.68-.32-.1,1.12,1-1.7,2-2.14,2-1.91.62-2-2.5,2.23-1.1-.94C24.94,176.11,25.16,176.14,25.43,176Z"/><path class="cls-1" d="M25.33,177.14c-.15.23-.3.5-.45.79Z"/><path class="cls-1" d="M21.78,183.73c-.24,1-.81,2.66-1.24,4.07s-.73,2.55-.36,2.53a13.65,13.65,0,0,0,1.35-4.18l-.33.59.26-1.52Z"/><path class="cls-1" d="M1.14,218.72l-.09-1.44L.77,219C.87,218.55,1.25,219.51,1.14,218.72Z"/><path class="cls-1" d="M13.89,197a14,14,0,0,0,.7-2.61C14.37,194.74,13.53,197.09,13.89,197Z"/><polygon class="cls-1" points="0.36 240.05 0.72 241.98 0.82 241.56 0.45 239.64 0.36 240.05"/><path class="cls-1" d="M19.14,278.14c.31.72.58.85.72.92L18.2,275l-1.46-4.13c-.13.33.46,2.81-.23,1.26a6.61,6.61,0,0,0,1.38,3.1l-.54-.48c1.13,1.74.89,3.33.14,2.2l.07.15c1.23,1.54,2.42,3.07,3.74,4.51C20.53,279.72,20.08,280.44,19.14,278.14Z"/><path class="cls-1" d="M166.32,323c.26-.3.5-.61.73-.93C166.22,322.86,166.17,323,166.32,323Z"/><path class="cls-1" d="M22.19,282.63l1.2,1.35A8.53,8.53,0,0,0,22.19,282.63Z"/><path class="cls-1" d="M10.06,274.15l.54.69-.46-.75A.09.09,0,0,0,10.06,274.15Z"/><path class="cls-1" d="M117.54,346.83l.16-.24C117.49,346.72,116.66,346.89,117.54,346.83Z"/><path class="cls-1" d="M21.29,281.63c.07.16.15.37.23.61a1.34,1.34,0,0,1,.67.39Z"/><path class="cls-1" d="M16.75,276.15c.6,1.09,1.25,2.44,2.13,4l-1.33-3Z"/><path class="cls-1" d="M54.6,319.16c2,1.37,2,1,3.35,1.47.33-.21-.33-.8-1.1-1.44a7.52,7.52,0,0,1-1.78-1.95c.1.16.3.47.16.49l-1.49-1.37c1.35,1.37-.7.43-1.5-.24-.57-.48-1.72-1.44-1.43-1.46l1,.63c-1-1.13-2.81-1.71-3.63-3.11.06-.17.53.18.66.17a30,30,0,0,1-4.8-3.66l1.55.59a12.64,12.64,0,0,1-3.47-3,30.66,30.66,0,0,1-3.18-4.41c.12.36.45.93.1.71-1.3-1.41-1.79-2.84-1-2.38a5.67,5.67,0,0,1-1.31-1.41c-.45-.65-.92-1.42-1.41-2.2a21.09,21.09,0,0,0-3-4.09c-1.6-1.29-3-2.71-4.58-4.11s-2.91-2.94-4.4-4.45a12.07,12.07,0,0,1,.83,1.19c-.06,1.25.28,1.76-1.14.31,1.17,1.53,1.3.65,2.62,3.16-.4-.42-.79-.61-.93-.38s-.06.87.61,2.07c3.94,5.66,8,8.38,12.52,12.64-.13.25.58,1.32,1.57,2.5s2.14,2.59,2.93,3.47c-1-.28-2.29-1.53-3.56-2.86.73.89,2,2.44,3,3.5l1.21-.22c4.59,4.72-1.7-.62.23,1.73a20.36,20.36,0,0,0,3,2.13c-2-1.69-1.64-1.8-1.28-1.92s.71-.23-1.14-2.07a4.53,4.53,0,0,1,2.08,1.29,18.53,18.53,0,0,1,2.22,2.21c1,1.89-1.6-.85-2.4-.69A4.45,4.45,0,0,0,48,313.38C50.33,315.76,53.64,317.24,54.6,319.16Z"/><path class="cls-1" d="M21.39,282.56l.28.11-.15-.43C21.4,282.25,21.34,282.33,21.39,282.56Z"/><path class="cls-1" d="M38,307.71c1.09,1.26,2,2.19,2.38,1.78a5.2,5.2,0,0,1,1.59,2.17,26.49,26.49,0,0,1,4.9,4.38c1.71,1.62,3.18,3,3.62,2.41a36,36,0,0,0-3.5-2.64l.7-.71c-1.69-1.57-.69.34-3.06-1.93l.67.7c-.48-.35-1-.81-1.59-1.31A23.54,23.54,0,0,1,42,310.81L40.2,309l-1.5-1.75c.43,0-.83-1.52-.27-1.56-1.34-1.37-2.51-2.85-3.51-3.33-1-1.16-1.87-2.36-2.71-3.61.15.68-2-1.24.41,1.6-.21-.23-.15,0-.35-.26,1,2.2,2.2,2.53,3.45,4.15.55,1.14-1.57-1.32-.94-.33a18.24,18.24,0,0,1,1.49,1.8Z"/><path class="cls-1" d="M23.25,288.13c-.05-.12-.14-.29-.2-.42Z"/><path class="cls-1" d="M21.2,271.09c-.84-2.22-1.21-3.85-1.73-5.54s-.92-3.49-1.71-6.1c-.36-.23-.75-.47-1.1-.72-.24,0,.17,1,.69,2.11-.25-.17-.54-.36-.19.91.29,2.63,1.61,3.79,2.07,5.63l-.25-.54a17,17,0,0,0,.77,2.79A12.53,12.53,0,0,0,20.9,272c-.23,1.61-1.89-4.84-1.59-2-.39-1.95-1.73-4.52-2.18-6,.54,2.52.51,4.88-.14,4.31a6.11,6.11,0,0,0,1.19,2.18.45.45,0,0,0,.63.06c.33-.26.63-.48,1.57,1.74.29,1.07.62,2.18,1,3.18l1.22.75c.76,1.85-1.09-.88.12,1.94.67.63,1.19,2.55,1.67,3-.21,0-.42.05.22,1.49.14,0,.36-.21.89.9-.4,1.15-1.49-2.81-1.57-1.17.76,1.72,1.21,2.11,1.5,2.11s.44-.29.75,0c-.15-.05-.17-.24-.37-.67.25-.14.73,1.29,1,1a8.35,8.35,0,0,0-.9-1.45c.37.41.27,0,.07-.71a18.93,18.93,0,0,0-.75-2.07,20.76,20.76,0,0,1-1.12-1.94c-.4-.77-.77-1.64-1.14-2.56s-.73-1.84-1.11-2.76-.7-1.81-1-2.58C20.94,271,21.2,271.48,21.2,271.09Zm-3.68-9.64h0a4.84,4.84,0,0,1,.35,1.72Z"/><path class="cls-1" d="M134.19,347.15c1.19-.35,2.37-.74,3.56-1.11s2.35-.78,3.51-1.23a99.17,99.17,0,0,1-14.33,4.08C129.38,348.45,131.78,347.76,134.19,347.15Z"/><path class="cls-1" d="M35.81,317.58l.46.38A5,5,0,0,0,35.81,317.58Z"/><path class="cls-1" d="M173.74,319.59c-.18-.26.61-.87.82-1.26-.51-.19-1.2,1.58-2.9,2.67l2-2.72-1.67.92c1.57-2,2.95-4.13,4.36-6.13a43.52,43.52,0,0,0-4.85,5.56,17.58,17.58,0,0,1-4.74,4.52c.51-.63-.17-.2-.39-.2-1.09,1.16-2.62,2.3-3.2,3.16-.67.52-1.39,1-2.09,1.45-.14-.26.39-1.25,2.39-2.82l-1.32,1-1.32.94c-.86.63-1.7,1.26-2.51,1.88l-2.5,1.74c-.82.59-1.64,1.17-2.49,1.68l-2.56,1.59c-.87.53-1.79,1-2.71,1.45a42,42,0,0,1-6,2.51c-.4,0,1.06-.61.4-.42-.82.49-2.11,1.06-2.6,1.35a1.86,1.86,0,0,1,.81-.48c-1.12.45-2.09.79-3,1.07s-1.67.44-2.52.6-1.51.32-2.22.51a19.1,19.1,0,0,0-2.12.62c-.2-.27,2.2-.76,1.8-.76-4.54.82-6.69,2.33-11.36,3,1.47-.65-1.09-.34-2.37-.45-.93.22-2.16.34-3.54.55s-2.94.31-4.56.4c-.81,0-1.64.13-2.47.13H103.4l-2.29-.09c.81-.5-.8-.57-2.65-.79s-3.95-.49-4.1-1c-1.28-.16-3.26-.45-3.47-.1.73,0,2.39.6,2.14.75-1.87-.31-4.72-.82-5.08-.46l-2.16-1c-.23.32-1.07.56-2.34.23-2.51-1.74.12.73-3.7-1a10,10,0,0,0,2.31-.28,14,14,0,0,0-3-.73c-.35-.41,1.58-.32,3.07-.06l-2.33-1a35.08,35.08,0,0,1-4.78-.81,27,27,0,0,1-5.57-2.06c.73,0,1.91.47,1.16-.37l-2.78-.91a10.87,10.87,0,0,1-3-1.47c.28.09.15,0,.43.09a11.83,11.83,0,0,1-3-1.59,30.77,30.77,0,0,0-2.52-1.9.42.42,0,0,1,.22-.05l.6.26a1.61,1.61,0,0,0-.6-.26h0l-2-.89a9.57,9.57,0,0,1-2.45-1.34,7.12,7.12,0,0,1-1.34-1.29,27,27,0,0,0-2-2.65l.52.31a20.12,20.12,0,0,0-3.3-2.95c-1.36-1.15-2.73-2.25-3.24-2.84,1.21,1.53.25.68.92,2.06a4.36,4.36,0,0,0,1.49.71,6.43,6.43,0,0,1,2,1.43c-.68.26-3.52-2-4.37-2.13a3.22,3.22,0,0,1-1.29-2.8,45.27,45.27,0,0,1-3.64-3.69c-1.15-1.25-2.38-2.51-4-4.32-.72-.5-1.53-.86-2.42-1.5a10.47,10.47,0,0,1-2.72-3.54l.3.05c-.4.13-1.11-1.63-1.81-2.15.34,1.54-1.33-1.21-.78.54-1.44-1.95-1-2.74-.73-3.21a6.64,6.64,0,0,1-2-2.81,28.18,28.18,0,0,0-2.42-4.28c.6.41,2.69,3.77,2.18,2.17l-3.15-3.57,1,1.8c-2.36-2.78-2.08-4.09-2.81-6,0-.42.72.68,1.18,1.58-.44-1-1.34-2.35-2.06-3.55.12.16.22.19.2,0-.3-.32-.46-.58-.76-.89.12.17.25.38.38.59-.74-1-2.5-4-3.39-5.24l-.18-.58a.47.47,0,0,1,.2.22,6.53,6.53,0,0,0-.35-.7c-.2-.6-.4-1.2-.59-1.8l.25.31c-.12-.22-.25-.43-.35-.65L16,273.69a6.77,6.77,0,0,0-.71-2.4.66.66,0,0,0,0-.11c-1.56-5.65-2.81-11.26-3.81-16.26q2.65,2,5.27,3.77c.06,0,.16.05.36.25-1-4.65-2.25-2-2.52-3s-.85-1.85-.67-2.85l.31.46c-.7-3-.78-.83-1.14-3.52-.71-2.11.22,1.92-.36.59-.33-2.89-1.45-1.62-1.45-6.22.19.2.61-.57,1,2.06l.15-2.62a35.86,35.86,0,0,1,.7,4.25c.78,1.34,1.16.95,1.87,2.16-.33-1.12-.84-.82-1-2.55-.09-2.1.34.29.56.47-1-2.67.25-3.13-.66-5.52-.71.54-.75.06-1,1.88-.45-1.74-.06-4,.55-3.91l-.59-.32a11.79,11.79,0,0,0,.11-1.79l.17.29a1,1,0,0,0-.14-.37.11.11,0,0,1,0-.06l-.32-.58a9.59,9.59,0,0,0-.11,4.61c-.44-.88-.87,1.34-1.2-1.6-.08-1.26.31-.17.47-.26a19.28,19.28,0,0,1,0-6.43,26.09,26.09,0,0,0,.38-5.37,18.78,18.78,0,0,1,0,3,21.16,21.16,0,0,0,.28,3.89c.48-1.5-.28-3.21-.14-4.66.22,1.29.42,1.5.69,0l-.33-.63a11.2,11.2,0,0,1,.19-2.65c-.13-.05-.23.35-.35,1.17a17.84,17.84,0,0,1-.26-2.06c0-.79,0-1.68,0-2.61s0-1.93.14-2.93.27-2,.44-3c.35.19.26,1.62.25,2.66s0,1.68.4.25c.07-1.64-.59-3.08.18-5.87.22,1.25.63-1.23.88-1.15-.07-1.34-.21-2.7-.21-4.06a47.59,47.59,0,0,0,1.15-5.8c-.09.59-.24,1.35-.47,2.28a8,8,0,0,1,.69-3.89,28,28,0,0,0,1.33-4.29L17,200a23.79,23.79,0,0,0,1-3.41c.12-.53.22-1.06.32-1.58l.33-1.53.48.23c-.57-.49.76-4.77,1-5.77-.24.79-.48,1.43-.67,2s-.36,1-.52,1.48c-.32.85-.61,1.47-.9,2.08a20,20,0,0,0-1.73,5.5,60.44,60.44,0,0,1,.53-6.72c.37-.9.61-1.23.79-1.23,0-.87-.4-1.29,0-2.76l.44-.32a9.67,9.67,0,0,0,1.12-4,9,9,0,0,1,1.2-3.81c.48-.18.31.73-.07,2-.2.63-.43,1.35-.65,2.08s-.4,1.46-.55,2.08c1.3-1.56-1.25,3.9.42,2.13l.07-1.29c.49-1.17.77-.91.49-.17.51-1.61.48-1.18.4-1.89,2.62-5.91.51.95,3.4-4.62-.15.72-.89,2.28-.39,2.13l-1.54,3,.46.27A26.74,26.74,0,0,0,24.22,181a16.76,16.76,0,0,0,.62-3.59c-1.32,3.66-.68.12-1.84,1.81a3.05,3.05,0,0,1,.9-1.68c0-.3.81-2.09.44-2,.76-.12,2.2-2,3.48-3.52s2.48-2.68,2.48-1.54c1.49-1.84,5.09-8.16,8.38-12.16l-.62,1.28c2.12-1.65,2.69-2.71,3-3.65a7.91,7.91,0,0,1,1-2.6c-.81,1.41,2.38-1.87,3.41-2.29.75-1,1.33-2,2.12-3a20.59,20.59,0,0,1,3.06-3.13c.89-.06,1.51.54,3.26-.78l.89-1.29c1.81-1.23,4-3.31,5.35-3.74l-.23.19c2.22-1.09,1.89-1.86.22-.86l1.71-1.49L62,137c1.25-.93,2.43-1.9,3.82-3,.69-.55,1.49-1.05,2.35-1.61a24.47,24.47,0,0,1,3-1.68c-1,1,3.82-.63-.18,1.31,1.07-.75-.87-.17-1.19-.23A16.28,16.28,0,0,0,66.66,134c.65,0,.54.83,0,1.62a13.37,13.37,0,0,1,2.7-1.83l1.77-1,1.87-.88c2.44-1.28,4.67-2.21,4.77-3,1.86-.72,4-1.4,6.27-2.17,1.12-.34,2.28-.63,3.43-.93.58-.13,1.15-.29,1.72-.39l1.71-.27c-.2,0-.58-.07-.5-.19,1.32,0,2.63-.14,3.94-.14a6.59,6.59,0,0,0-.86.27c.86-.07,1.73,0,2.59,0,.32.19-.68.54-1.68.74-.58.15-1.13.11-.58-.09-1.3.49-.71.41,0,.35s1.49-.09.66.27a15.32,15.32,0,0,0-2,.38,27.24,27.24,0,0,0,3.59-.63,5.53,5.53,0,0,1,2.77-.1,15.55,15.55,0,0,1,3.07-.86,12.31,12.31,0,0,1,2-.26A15.18,15.18,0,0,1,106,125c-1.08.35,3-.16,1.64.51,1-.39,3.57.18,4-.23a7.07,7.07,0,0,1-2.47-.08c1.16-.12,1.31-.49,2.74-.38.18.07.07.16.07.16,1.9-.28.72-1.31,4-1.07a11.18,11.18,0,0,1,3.45.42c.26.16-.11.3-.74.43-1.27.26-3.43.63-2.84.79a7.12,7.12,0,0,1,2.39-.16,18.21,18.21,0,0,1,3.36.52l-.42.09h1.53a3.92,3.92,0,0,1,1.5.39,11.7,11.7,0,0,1,2.36-.93c1.28.18,2.53.51,3.8.75l-.84.1a17.67,17.67,0,0,1,2.4.4c.26.48-.82.11-2,0a2.7,2.7,0,0,0,2.26.5l-.46-.15c1,0,4.67.51,1.92-.42,2.2.24,2.64,1.14,4.09,1.46,0,.36-1.27,0-.64.48a18,18,0,0,0,3.37,1.11c-1-.47.42-.17-1.23-.94a8.36,8.36,0,0,1,1.51.29c.53.17,1,.26,1,.17a6.18,6.18,0,0,1-1.91-.7,18.78,18.78,0,0,1,2.83.94,22.74,22.74,0,0,1,2.72,1.32,1.63,1.63,0,0,1-.54,0,30.36,30.36,0,0,1,4.26,1.41,17.6,17.6,0,0,0,3.66,1.26l-.63-.48a5.4,5.4,0,0,1-2.17-1.11c1.83.78-1-1.19,1-.45a25.27,25.27,0,0,1,3.55,1.91,7,7,0,0,0,2.78,1.29c-1.19-.72-2.49-1.73-3.73-2.42a12.48,12.48,0,0,0-2.88-1.43l1.57.86-2-.57c-.65-.17-1.33-.31-2-.46,0-.36-3.32-1.33-3.07-1.74,1.33.42,2.49,1,3.49,1.42A32.91,32.91,0,0,0,143.9,128l1.65.87c-3.22-.85-7.12-2.47-10.3-3,2.54.29-3-1.23-.92-1.09a4.41,4.41,0,0,1,1.7.51c.38-.37-1.86-.63-2.4-1.14-.4.15-3.65-.42-1.84.36-1-.42-3.35-.54-4.71-1.11.32.6-2.72-.14-3.28,0a10.59,10.59,0,0,1-1.54-.49c1.35,0,3,.12,4.73.12.67.18,1.91.48,1.57.27l.07-.19c1.73.16,3.49.23,5,.44l3.72.52h-.9a11.5,11.5,0,0,1,3.83.93c.62.23,1.24.46,1.87.66a10.7,10.7,0,0,0,1.93.57c-.16,0-.46,0,0,.18,3,1.28,4.61,1.08,6.86,2.58l-.43.13c.23,0,1.73.58,1.6.13-2-.95-2.52-.88-4.29-1.88a14.47,14.47,0,0,1,3.79,1.22l.36-.41c1.77.32,2.95,1.81,4.69,2.19-.51-.45-1-.87-1.58-1.28a2.13,2.13,0,0,1,.33.11,7,7,0,0,0-1.81-.68,13,13,0,0,1-1.79-.89,11.83,11.83,0,0,1-1.26-.82,5.46,5.46,0,0,1-1.19-1.21c-1.27-.76.73-.39.73-.76a7.66,7.66,0,0,0-2.21-.57,7.78,7.78,0,0,1-2.24-.47c-.55-.3-.29-.31,0-.26l-1.55-.33c0-.22-3.71-1.63-1.36-1.22.33.12.94.34,1.4.55-1.44-.78-3.46-1.72-5.11-2.45s-2.9-1.34-2.73-1.6c-1.69-.6-1.26-.26-4-1.06-1.38.11-.1.85-3.16.44l2.32.75c.48.08.93,0,1.48.08l-2.48-.52c1.6.17,1.38-.11,1.93-.4a14.55,14.55,0,0,1,4,1.41c.91.48,1.58.9,2.49,1.28-1.25-.06-3.22-.7-2.61,0-1.74-1-2.16-.21-4.24-1.1h.45c-1.86,0-2-.54-3.53-.54.13-.07-.05-.18-.23-.27-3.26-.35.9.47-2.4.39-2.82-.58-.78-1-1.53-1.38,4.95.2,0-.91,5.4-.43.06-.33-.41-.67-1.27-.92a25,25,0,0,0-3.53-.68c1.77.61-1.36.79,1,1.69a13.05,13.05,0,0,0-2.5,0c-.71.08-1.18.2-1.71.28a10.82,10.82,0,0,1-4.63-.35l.12-.09-2,.35c-.88-.14-1.75-.33-2.63-.44,1.65-.65,3.66-.11,5-.45a8.1,8.1,0,0,0-3.88-.21,18.37,18.37,0,0,1-4.25.44c-3.11-.85,3.84-.34,3.84-1-.76.14-2.81-.25-2.56-.45,3.53.34,2.18-.38,6.11.28-2,.09.27.25-.12.52.59-.25,4.28.09,6.85.56.67-.44-2.19-.71-3.81-1.14a27.05,27.05,0,0,1-4.67-.35,19.54,19.54,0,0,0-2.16-.24,7.1,7.1,0,0,0-2,.17c-3.38,0-.25-.49-.45-.56-3-.31-1.29.39-2.29.48-4.59.49-5.15-.54-8.45-.27-2.7.77-9.3,1.56-13.87,2.56.52-.37-.15-.4-.48-.55-2.47,1.63-1.61,1-4.79,2.47,1-.21,1.91-.29,2.91-.44-2.24.6-3.8,1.87-6,2,1.49,0,.57.39-.76,1s-2.84,1.19-3.71,1.64c.52-.42.29-.73-1.07,0,.39,0,1.22-.19,1,0l-.25.13c-2.31.58-4.2,2.19-5.6,2.19l.27-.17c-1.05.44-2.11,1-3.11,1.44v-.94c-2.3.74-4.51,2.78-3.68,2.58-2.27,1.08-1,.24-1.55.08.55-.46,1.4-1.23,2.25-1.86a3.74,3.74,0,0,1,2.28-1c-.22,0-.7.25-.76.4,3-1.3,3.34-1.76,3.34-2.12s-.46-.6,1-1.36a19.47,19.47,0,0,0-4.45,1.91,39.18,39.18,0,0,0-5,3.48,12.87,12.87,0,0,1,4.94-2.41c-1.46.65-1.44,1.22-2.75,1.65l.31-.35-1.35,1.12c-.2-.15-1.27.37-2,.76s-1.2.63-.2-.37c-1.93,1.36-.45.81-2.16,2.11,1.23-.69,2.41-1.45,3.67-2.07l.21.49c-1.11,1.05-1.59,1-3,1.89l.43.42-2.78,1.2c.52.11-1.43,1.31-1.9,1.74-1.46.79-1.17-.61-3.1,1.5l.2-.07a22.61,22.61,0,0,1-3.7,3.14c0-.16.47-.61.69-.84a34.9,34.9,0,0,0-4.17,3.7c-1.33,1.32-2.49,2.5-3.33,2.69-.13-.51,1-1.25.71-1.68a11.36,11.36,0,0,0,3.14-3,10.38,10.38,0,0,1,1.12-1.43,14,14,0,0,1,2.53-2.07c.47.38,1.33-.54,2.29-1.51s2.08-1.93,2.86-1.79c-2,1.18-4,3.68-3.56,3.52a44.72,44.72,0,0,1,5.3-3.88c-1.28.44-1.32-.33-.77-1.22-2.67,2.22-8.16,5.42-11.88,8.7l.9.16c-2.77,3.23-.1-.87-2.53,1.38l-.69,1.4-.19.1c-.43.72-.88,1.41-1.28,2.14,1.18-1.23.27-1,1.83-2.13,1.36-1,.31.39.25,1-1,.6-3.65,3.66-2.28,1.51l-2.51,3.71c-.18-.2.4-1,.6-1.4l-1,1.2-1,1.26v-.11c-.71,1.09-1.67,2.29-2.51,3.49a23.67,23.67,0,0,0-2,3.31c3.07-3.06-.81,1.94-.23,1.94-.93,1.23-2.26.91-.68-2.09.88-.46,1.88-2.6,2.88-3.95a22.64,22.64,0,0,0-2.72,3.67c.3-.57-.18-.19-.7.32s-1.07,1.17-1.17,1.08c0-.31-.13-1.28,1.45-2.86,2.05-2.59.72.13,1.23-.71.59-.11,1.23-1.11,2-2.11a25.79,25.79,0,0,1,2.3-2.91c.19-.12-.18.43-.36.7,1-1.37,3.57-3.94,3.4-4.47-.89,1.13-1.81,2.23-2.67,3.38-.72.61.55-1.29-.53-.45a17.86,17.86,0,0,1-2.18,2.65V151a23.46,23.46,0,0,0-3.15,3.53c-.53.68-1,1.39-1.53,2.08l-1.3,2.06c.46,1.15.05,2.76.27,4.46l-1.79,2.8-.91,1.42-.87,1.47-1.78,2.95-1.67,2.91c.4-.09.7,0,.8.43a15.23,15.23,0,0,0-1.25,2c-.36.64-.67,1.15-.9,1a31.06,31.06,0,0,1-.65,3.16c-.26,1.07-.31,1.92.06,1.67l-.17.5a17.18,17.18,0,0,0-1.92,2.78,36.69,36.69,0,0,0-2.24,5c-.3.8,0,1,.53,1A19.27,19.27,0,0,0,10,194.78a6.32,6.32,0,0,1,.19-2.56L9,195.6c-.32,1.12-.69,2.24-1,3.39l-.09-.6-.36,2.8c.26-1.56,1-3.89,1.36-3.17-.39,3.16-1.45,4.75-1.29,7.53-.93-.22-1.26.66-1.61-.34a.79.79,0,0,1,.12-.3,10.49,10.49,0,0,1-.28-2.3,16.54,16.54,0,0,1,.22-2.72,35.62,35.62,0,0,0-1.29,5c-.22,1-.44,1.9-1,4.47-.68.35.35-4.86-.25-3.74.43-1.6.82-3.21,1.35-4.78a4.44,4.44,0,0,0-.09,1.36,29.56,29.56,0,0,1,.8-3.85,18.16,18.16,0,0,0,.55-3.27c.72-1.48-.33,2.55.28.87a8.18,8.18,0,0,0,.15,3.87c1.16-3.69-.14-2.31.59-5.55l1.17-2.22c.36-1.46-.42.41-.59.41.4-1.79,1-2.31,1.46-3.61-.25.34-.7,1.17-.81.89.53-1,1-2.09,1.44-3.09a10.54,10.54,0,0,1,1.76-2.81c-.81,1-.36-1.61-.09-2.61L9.17,185c-1.72,5.31-3.2,8.5-4.33,14.44L4.63,199a27.49,27.49,0,0,0-1,2.94,17.05,17.05,0,0,0-.44,2.24,14.81,14.81,0,0,0-.1,3.19c0,1,.23,1.85.23,3A30,30,0,0,1,3,214.94c-.76.13-.31,3.7-1,3.32.33-2.41,0-2-.44-1.3a15,15,0,0,1,0,5.09c-.31-1-.75,1.34-.75-1.35-.42,3.65-.5,5.74.15,7.65.56,6-.93,1.81-.44,7.81l-.3-.88c.08,1.25.1,2.5.22,3.74.1-.41.19-.83.32-1.24.2,1.46.48,2.92.72,4.38.59,2.66.39-1.14.72-.81l-.61-.87c0-1.77-.54-4.27-.16-4.65.15,2.9.55,2.18.84,3.32-.15-.91-.22-1.82-.32-2.74l.39-.91c-.07-1.36-.07-2.57-.07-3.64A11.6,11.6,0,0,0,2,229c-.26,1.13.33,1.85,0,2.85a10,10,0,0,1-.57-3.15h0l0-2.33v1.5c0-.52-.06-1.05-.06-1.61v-2.47c.17-.08.29-1.12.39-.67a2.8,2.8,0,0,1,0,1c.32-.23.39,1.61.78-1.46.41,1.15,1,3.48,1.22,3.4a39,39,0,0,1-.12,5.72l-.1-.11c-.11,1.55.49,4.82,0,5.09.11,1,.42,3.55.56.88.15,1.46.38,2.91.56,4.36-.92-.67-.82,3.51-1.82-.82.05.15.18,1.76.63,4.32l-.09-.11a.86.86,0,0,0-.2-.33c-.08-.52-.16-.84,0-.94-.36-.74-.55-.55-.62.14a26.36,26.36,0,0,0,.15,3.08l.55.52A18.42,18.42,0,0,0,3.56,254c.87,2,2,4,3,6,.17.6.32,1.22.53,1.82-.08.88.83,3.59,0,2.65-.15.33-.5-.57-.7-1.8,0-.2.14.09.14-.12-.39-.27-.78-.34-.72,1.23A9.71,9.71,0,0,0,5,261.07c.08.55.19,1,.3,1.55-.67-2.24-2-5.63-2.44-5.5.74.59.46,2.18.61,3.45-.31-.93-1.06-2.89-.8-1.32.35.51,1.57,4.61,1.17,1.61a25.81,25.81,0,0,1,1.34,4.3c-.71-1.6-.63-.45-1.14-.82.72,1.44,1.12,1.25,1.38,1.44.26,2.2.41,3.76.59,5.41a16.93,16.93,0,0,0,1.62,5.57c.29.6-1.19-2.78-.65-2.47a9.4,9.4,0,0,1,1.31,3.91,10.51,10.51,0,0,0,1.05,3.64l.29-1.08c.48.86,1.43,3.06,2,4.06-.08.36.91,3.62-.33,1.43a14.21,14.21,0,0,0,1.37,2.83,11.9,11.9,0,0,0,1.38,1.63,16.27,16.27,0,0,1,1.48,1.73,12.33,12.33,0,0,1,.83,1.29c.31.49.64,1.06,1,1.74-1.28-2.54-1.39-2.83-2.45-4.83,1.46,1.95.46.21,1,.21a13.93,13.93,0,0,0,1.24,2.92c.44.82.57,1.17-.43-.07.93,1.66,2.74,5,3.5,5.61-.23-.54-.48-1-.68-1.54a17.76,17.76,0,0,0,4.28,5.05,16.38,16.38,0,0,0-2.28-2.64,12.6,12.6,0,0,1-2.49-3.35c-2-4.27,1,.73,0-2.27-.66-.88-1.36-1.75-2-2.67.23.47.43,1,.67,1.42-.85-.12-2.31-4.61-2.85-3.87-.51-1.64-.86-2.69-1.3-3.74a23.43,23.43,0,0,1-1.32-4c-.59-.71-.09.55.28,1.55-.74-1.72-1.51-1.53-2-4-.37-1.21-.68-.16.17,1.91-.34-.89-.73-1.74-1.09-2.63s-.69-1.82-1-2.82l.23,2.21-.75-2.11.35,1.88c-1.57-4-2.89-8.74-2.81-11.08.71,1.71,1.55,4,2.31,6.14a20,20,0,0,0,2.46,4.81c0-.85-1.56-2.55-1.22-3.79l-.83-.9c-.54-1.18-1.57-4-1.18-4.37a24,24,0,0,0,3,5.55c.1,0,.26.26.45.73v.05A32.68,32.68,0,0,0,12,278.26c.37,1.18-.21.5-.36.41,1,4.16,3.61,6.21,5.21,10.33-.36.23,1.14,3.34.45,2.49A11.33,11.33,0,0,0,19,294.21c.58.7,1.15,1.27,1.7,1.94-.19.54,2,3.43.92,2.54l1.83,1.66c.64,1.53,2.93,4.08,2.88,4.81,1.14,1.38.79,0,2.14,2.13-.15,0-.08.16-.38-.26a14.51,14.51,0,0,0,3.18,3.88c-1-1.42-.16-.38-1.38-2.07.12,0,.61.31,1.22,1a15.48,15.48,0,0,1,2,2.49c-2.59-2,1.16,2.34-.09,1.43a30.2,30.2,0,0,0,4.73,4.45c1.57,1.12,3.1,2.11,4.85,3.33,3.67,3.28,8.46,7.26,12,9l-.41-.32c.69.39,1.43.68,2.14,1,1.13.73-.35.57,1.49,1.57-.9.11-3.15-1.82-5.1-2.75,2.66,2.62-3.13-1.5-1.41.31.94-.1,2.52,1.07,4.37,2.23.92.61,1.88,1.25,2.8,1.82a17.87,17.87,0,0,0,2.62,1.23c2.65,1.66-1.49-.26-.18.57l1,.16c1,.72,1.34,1,1.18,1.22a41.21,41.21,0,0,0,4.69,2.37,38.55,38.55,0,0,0,4.58,1.43c-3.39-1.2,1.33-.05-1.91-1.47a18,18,0,0,1,2.26.72c.92.25,2,.62,3,1-2.06-.54,2.3,1.85-2,0,.4.79,2.2.74,4.13,1.51-1.09-.12-3.43-.64-3.25-.5,3.15.48,9.49,3.61,10.85,3.3.64,0,1.3.1,2,.1l2.21.07a39.75,39.75,0,0,0,4.5.07,22.56,22.56,0,0,0,4.24.83c1.48.13,3,.22,4.55.42l-.56.19a20.37,20.37,0,0,0,3.22.14c1.22-.07,2.55,0,3.84,0l.59.43c.88-.09,2.16-.17,3.56-.24l4.25-.35c0-.26-2.49,0-1.33-.43-1.36.09-2.5.24-2,.48-1.35.11-1.43-.37-2.54-.53,1.73-.11,3.45-.39,5.16-.61a1.73,1.73,0,0,1,.6.07l.33-.52c1.34-.1,1.73-.07,1.53.17,2.87-.56,3.79-1.27,6.79-1.72a9.7,9.7,0,0,1-4.14,1.39c1.17-.12,2.32-.33,3.47-.55a10.42,10.42,0,0,1-1.79.59c-.76.18-1.63.33-2.41.5-1.56.32-2.81.64-2.25.94,3.84-.74,9.36-2.09,12.46-3.55a7.83,7.83,0,0,0,3.2-.65c1.18-.44,2.51-.88,3.94-1.26.41,0,1.32-.18.88.23l-.78.29a37.45,37.45,0,0,0,5.68-2.24c.92-.46,1.85-.91,2.68-1.37s1.63-1,2.36-1.46l1.85-.26c5.36-2.61-1.38-.27,3.88-3.27a17.24,17.24,0,0,0,3.9-1.86c1.47-.84,2.75-1.74,3-1.59.91-.69,1.35-1,1.25-1.34-.85.54-2.67,1.91-1.85.84a14.53,14.53,0,0,1,2.07-1.41q.93-.57,1.8-1.23c0,.15-.77,1.11-.32.67l2.74-2.28,3.08-2.82a29.81,29.81,0,0,0,4.87-5.81C175.11,318,175.28,318.44,173.74,319.59ZM82.5,122.74a.78.78,0,0,1-.36.26c1.67-.5,2.6-.74,3.42-1s1.55-.48,2.88-.82c-.26.14-.51.3-.76.46.55.3,2.61-.51,4.78-1l-.13.08a5.75,5.75,0,0,0,1.09-.25,8.74,8.74,0,0,0-.87.14,5.33,5.33,0,0,1,2.88-.59l-.3.35c.43.25,2.6-.16,5.08-.31l-1,.4a14,14,0,0,1-2.19.7,5.46,5.46,0,0,1,1.89-.1c-1.4.48-2.77,1.09-4.13,1.63a5.82,5.82,0,0,0,2.31-.67,5.48,5.48,0,0,1,2.69-.62c-.06.32,0,.55-.35.8a9.51,9.51,0,0,1-2.3.91c-2.42.23.09-.38-1.18-.48-1.72,1-2.48-.32-4.26.93-2.3.51-1.67-.07-2.47-.16,2.33-.51-1.23-.4,1.69-1.11-2.48.13-1.66.94-3.66,1.21l-.46-.55c-.94.15-2.42.35-3.94.74a24.74,24.74,0,0,0-4.25,1.52c1.09-.13.83,0,.35.32s-1.15.64-.92.76c.13-.71,3.08-1.2,3.13-.94-1.5.52-5,2-6.19,2.34l2.91-.74c-.47.35-1.6,1-2.6,1.61a18.22,18.22,0,0,0-1.88,1.27c-1.24.23-2.94,1-3.66,1,.62-.5,1.28-.92,1.92-1.38h.94l1-1a32.69,32.69,0,0,1-5.35,1.33C71.5,128.31,76.33,125.74,82.5,122.74ZM18.2,178.28h.54a37,37,0,0,0,1.66-3.41l.67-1.65.71-1.6c.49-1.08.93-2.16,1.49-3.26A33.51,33.51,0,0,1,25.33,165c0,.89-1.34,2.53-1,2.41,1.91-2.75.56-3.1,3-5.44-2.59,3.95,1.89-2.27-.19,1.46a36.33,36.33,0,0,1,2.44-3.82c.9-1.18,1.85-2.3,2.76-3.36s1.88-2,2.72-2.88,1.61-1.72,2.26-2.44c-.9.51.76-1.47.76-1.62.73-.71.71-.25.16.36,1.57-1.27,2.09-1.24,2.15-.72l-2.74,3c.94-.84,1.65-1.13,2.38-1.78l-.26.49c-.82.87-1.3,1.41-1,1.37l.52-.51c-.33.7-.12.42.2-.19.51-.57.38-.64.37-.78l.16-.39.11-.1a8.88,8.88,0,0,0,1.09-1.28c.38-.6.23-.55.07-.72.73-1.11,1.58-2.57,2.83-4.31v.15l3.24-3c-.09.17-.17.36-.26.53.56-.67,1.17-1.29,1.76-1.94.28.45.78-.3.88.08.93-.13,2-1.13,3.24-2.2a19,19,0,0,1,4.3-3.15l-.32.49a15.73,15.73,0,0,1,3.63-2.47c1.61-.8,3.33-1.66,4.71-2.27v.08c-1.54,1-1.67,1.52-.83,1.3-.5.41-1.32,1-1.77,1.35-.44.23-1.26.7-2,1.15s-1.42.79-1.65.65c1.76-1.14,1.59-1.09.59-.83a28.38,28.38,0,0,1-3,2.29c-1,.74-1.62,1.39-1.33,1.63-2.34,1.71-.8.39-2.63,1.39-.39,0,.12-.59.61-1.16-1.14.85-2.21,1.79-3.28,2.7l-1.62,1.38c-.55.45-1,1-1.55,1.45,0,.37,1.09-.47,2-1s1.58-.85.68.32c-.45.58.18,1.17-2.11,2.86-.08,0,.07-.24.26-.45a16,16,0,0,1-2.32,1.77c-.7-.13,1-1.45,1.48-2.35a19.46,19.46,0,0,1-2,2.16v-.31l-2.08,2.19c-.62,1.16,1.66-1.55,2-1.43l-1.15,1.58-1.54,1.59c-.63.65-1.31,1.39-2,2.09a22.64,22.64,0,0,1-3.75,3.37c-1.87,1.75-.65,1.3-.81,2-.59,1.49-1.92,2.24-2.69,3.55.19.11,0,.49-.18.92s-.33.88-.14,1.06l-1.49,1.92c-.14,1.57,1.77-2.32,2.45-2.62s.43.07.16.5-.6.88-.19.66a15.4,15.4,0,0,0,1.3-2.64c.61-.86,1.11-1.19,1.29-1-2.1,2.17-.56,1.61-2.1,3.46h-.18c.39.36-1.86,3-2.37,4.18-1,.94-.85.38-.51-.42a15.18,15.18,0,0,0,.89-1.81c-.59.91-1.16,1.77-1.68,2.77.47-1.38-.61-.37.18-2.14-1,1.74-1.47,1.7-2.22,3.48.48-2.26-2,1.93-2.45,1.93A14.66,14.66,0,0,1,28,168.23a7.31,7.31,0,0,1,1.39-1.39,13.73,13.73,0,0,1,2.22-2.94l.32-1.7c-1.05,1.43-2.18,3.58-2.3,2.69Q29,166,28.54,167.08a14.08,14.08,0,0,1,1.52-4.6,18.35,18.35,0,0,0-2.1,2.63c-.56.91-1,1.84-1.45,2.73a25.45,25.45,0,0,1-2.9,5l.24-.56c-.94,1.67-1.67,3-2.32,4.14A23.69,23.69,0,0,1,19.77,179a8.83,8.83,0,0,1-2.68,2.41C17.5,180.26,17.9,179.22,18.2,178.28Zm-9.09,39c.16.37.53-.08.16,2-.13-.17-.23-.05-.32.22C9,218.73,9.05,218,9.11,217.25ZM7.85,226.3c-.41.61-1,3.32-1.69,6.61,0-1.82.15-3.68.26-5.56s.36-3.76.52-5.65l-.32.46c.17-1.2-.1-2.21.33-2.83.07,0,.34,1.51.71,3.27s.7,3.74.93,4.67c.06,2.28-.09,4.7-.17,6.11l-.1-.7C8.41,227.3,8.26,225.69,7.85,226.3ZM10.14,254a1.42,1.42,0,0,1-.34,1c-.07-.49-.12-1-.18-1.42l.53.41ZM10,243.61c0-2.36-1.37-2-.68-4.27-.41-.33-.55.25-.55,1.11-.1-.28-.19-.47-.29-.47,0-.87-.13-1.76-.09-2.45s-.07-1.19.25-1.12.49.84.67,1.68a8.33,8.33,0,0,0,.72,2.18h0C10.24,241,10.47,244.31,10,243.61Zm.35,14.54.06.21h0a8.27,8.27,0,0,1,.19,1.31Zm.31-40.68c-.59.36.3-1.64.15-2.49-.28.54-.51,1.08-.76,1.63.05-.79-.18-2.39.35-2.25-.26,0-.48-1.33-.63,1l-.12-1.78a1.59,1.59,0,0,0-.22.35l.18-1.56a17.08,17.08,0,0,1,1-2.75c.14,0,0,1,0,1.68a18.3,18.3,0,0,0,.74-3.82c-.61,2.4-.6,1.06-1.15,1.51.12-1.54.73-4,.81-4.89.67-2,1.67-3.55,1.67-2.1a37.75,37.75,0,0,0,.66-4.24c-.32,2.69-1.13-.25-1.32,3.22-1,.8.25-2.91,1.1-4.5-.15.91.31.24.43.51.53-2.59-.34-1.57-1.07.19l.52-3.07-.1.29c.23-1,.54-2,.83-3v0c.68-.14,1.07-.09.67.63l.93-1.44-.7,2.43c.79-.83,1-2.61,1.44-3.83.8-1.28-.72,3.29-.55,5A8.16,8.16,0,0,1,14.06,198c.5.57-.88,4.58-.88,6.28-.84,4.06-1.6,2.46-2,6.17.21-.42.43-.83.67-1.24-.24,1.63-.32,2.8-.51,4-.08.6-.19,1.19-.31,1.88S10.79,216.57,10.64,217.47Zm5,55.64c-.62,0-1.84-1.86-2.55-4.42.14.57.42,1.79.9,3.33l-.43-.6c-.83-3.05-1.6-5.92-2.13-8.64a20.24,20.24,0,0,1,1,3.15A22.31,22.31,0,0,0,11.34,261a8,8,0,0,1-.5-3.84c.44,1.06.71,2,1,2.87s.54,1.67.75,2.48.39,1.62.66,2.54.6,1.89,1,3c.1,2.5-1.27-2.8-1.64-2.85.18.88.4,1.75.6,2.63.11-.23.56,1,1,2.1.35.88.78,1.62,1,1.49l.45,1.54-.2-.34Zm147.45,53.11,0,0s0,0,0,0Z"/><path class="cls-1" d="M59.48,338.49c2.44.66-2.26-1.43-1.33-1.59a12.13,12.13,0,0,1,3.17,1.8c.45-.09-.6-1-.28-1.23a12,12,0,0,0-3.9-1.83,11.85,11.85,0,0,1-3.82-1.88c.34-.23,1.51.19-.64-1.19l.58.31c-3.56-2-2.11-2.5-4.78-3.22l.38-.38a37.86,37.86,0,0,1-6.08-4.36h.16c-1.17-.83-1.91-1.37-2.44-1.78a11.14,11.14,0,0,1-1.13-1c-.61-.64-1.34-1.3-3.64-3.51.81.58,1.65,1.12,2.5,1.65-1.41-1.69-2.18-1.63-3.23-2.81.12,0,.18-.34.81.11l-2.54-2.11-2.88-2.63c-1.49-1.21,0,.48,0,.84A6.68,6.68,0,0,1,28.75,312c-.56-.78-1-1.57-.92-1.74.39.27,1.61,1.63,1.07.59l-2.3-1.58c-1.74-3.13,2.5,1.49,3.86,2.6-1.14-1.39-1.88-2.28-2.73-3.13A22.57,22.57,0,0,1,25,305.46,11.8,11.8,0,0,1,26,307.71c-.43.48-2.27-2.61-3.78-4.68.73,1.48,0,.85-.86,0a1.72,1.72,0,0,0-.32-.34l-.29-.3.16.26c-.06,0-.09.12-.06.37,1.32,1.72,1.92,3.33,2.71,4.49,0-.85.69.12,1.64,1.38a36.79,36.79,0,0,0,2.73,3.49c.45.51.92,1,1.38,1.49l.49.57c0,.19-.22.11-1.12-.65.78.62,2.83,3.11,2.86,2.68.82.9,1.68,1.78,2.52,2.68s1.68,1.78,2.58,2.61a3.87,3.87,0,0,1,.34.55c.23.14.29.13.3.07,1.89,1.89,3.93,3.62,6,5.38,1,.85,2.09,1.66,3.14,2.5s2.13,1.63,3.22,2.4c2.16,1.59,4.43,3,6.7,4.45,1.14.7,2.33,1.34,3.49,2,.59.33,1.16.67,1.76,1l1.8.91c-.69-.39-1.32-.79-2-1.2S60.16,338.94,59.48,338.49Z"/><path class="cls-1" d="M16.82,295.94c.82,1.39,1.58,2.83,2.49,4.18.16-.13.61.16.72,0-.74-1.12-1.37-2.25-2.08-3.39C18.39,298,17.11,296,16.82,295.94Z"/><path class="cls-1" d="M19.74,301.51a3.71,3.71,0,0,1,1,.85l-1.44-2.24C19.19,300.21,19.23,300.54,19.74,301.51Z"/><polygon class="cls-1" points="29.07 295.93 29.84 296.85 28.63 295.28 29.07 295.93"/><path class="cls-1" d="M35.07,305.86a9.74,9.74,0,0,0-2-2.64A27.83,27.83,0,0,0,35.07,305.86Z"/><polygon class="cls-1" points="37.38 303.07 36.12 301.83 37.45 303.25 37.38 303.07"/><path class="cls-1" d="M81.59,346c.34.1.68.16,1,.24Z"/><path class="cls-1" d="M93.84,349c-3.38-.46-8.13-1.92-9.08-1.6.09-.08.09-.21-.4-.39l-2.19.05,1.9.69a13.11,13.11,0,0,1-2.34-.27c-.94-.21-2-.53-3-.85a27.22,27.22,0,0,1-2.79-1,10.1,10.1,0,0,1-1.63-.85,9.3,9.3,0,0,0,3.08.59,14.36,14.36,0,0,1,4.06,1.24c-.18-.25-1-.86.16-.59-6.15-1.62-11.27-4.06-17.38-6.4,4.35,2.86-3.25-1.08-2.15.31L64.72,341l-.3.07c1,.5,2.07,1,3.14,1.43-.5-.6-1-.83-.68-1.1,4.14,2,1.14,1,4.06,2.76,1.61.62,3.24,1.19,4.86,1.78h-.43a2.27,2.27,0,0,0,.77.17,104.79,104.79,0,0,0,16.94,4C96.25,350.3,91.46,349.24,93.84,349Z"/><path class="cls-1" d="M125.86,348.58c.07-.06.1-.09,0-.08Z"/><path class="cls-1" d="M123.76,348.77l-3,1.1c1.58-.25,3.18-.39,4.76-.74l.26-.55a6.31,6.31,0,0,1-2.7.61Z"/><path class="cls-1" d="M120.92,349.22c-.06-.21-.77-.16-1.54,0s-1.63.23-1.94.3l-.16,1.14c2.47-.41,2.26-1,.89-1.15C120.4,349,119.43,350,120.92,349.22Z"/><polygon class="cls-1" points="98.9 350.24 99.62 350.05 97.91 349.84 98.9 350.24"/><path class="cls-1" d="M100.89,349.74l-1.23.31,1.7.21A1,1,0,0,0,100.89,349.74Z"/><path class="cls-1" d="M108.32,350.82l-2.51-.17C106.53,350.72,107.34,350.77,108.32,350.82Z"/><polygon class="cls-1" points="105.81 350.64 103.85 350.44 103.91 350.52 105.81 350.64"/><path class="cls-1" d="M101.32,350.26a1.27,1.27,0,0,0,.68.63,5.77,5.77,0,0,0,2.37.28l-.46-.64C103,350.49,102.14,350.36,101.32,350.26Z"/><polygon class="cls-1" points="46.31 313.71 44.88 312.66 44.97 312.83 46.39 313.88 46.31 313.71"/><path class="cls-1" d="M52.28,319.87a9.18,9.18,0,0,0,1,.48A3.69,3.69,0,0,0,52.28,319.87Z"/><path class="cls-1" d="M57.33,323.37a19.88,19.88,0,0,0,4.82,2.76c1.76.35,1.36-1,1.87-1.78-.09-.35-3.63-2.68-4.1-2.29,1.41,1.5-2.59-1.15.37,1.14.06.52-1.68-.07-3-1.27.33-.22,1.54.81.87-.13-1.2-.34-1.4-.83-1.39-.15-1.83-.86-2.21-.74-3.51-1.3.52.33,1.13.81,1.81,1.35Z"/><path class="cls-1" d="M56.45,318.44c-.08.38.84.61,1.46,1A12.15,12.15,0,0,0,56.45,318.44Z"/><path class="cls-1" d="M75.06,336.55c-.87-.25-1.7-.6-2.55-.9a1.78,1.78,0,0,1,.9.79,6.78,6.78,0,0,1,1,.19C74.84,336.69,75.2,336.72,75.06,336.55Z"/><path class="cls-1" d="M73.49,336.6l-.08-.13S73.36,336.51,73.49,336.6Z"/><path class="cls-1" d="M114.82,350.79c-.53,0-1.28,0-1.92.07C112.9,351.12,114.17,350.93,114.82,350.79Z"/><path class="cls-1" d="M160.23,335.73a3.62,3.62,0,0,0-1.09.42Z"/><path class="cls-1" d="M171.39,317.51v.14l1-1.16a31.07,31.07,0,0,0-3.33,3.36A15.08,15.08,0,0,0,171.39,317.51Z"/><path class="cls-1" d="M168.75,320.19c.1-.12.21-.22.31-.34A4,4,0,0,0,168.75,320.19Z"/><path class="cls-1" d="M13.22,226c.17-1.43-.34-2.59-.49-2.23l-.17,2.8c.57-.68,0-.77.28-2.39Z"/></g><g id="e"><path class="cls-1" d="M34.28,192c.41.51.69.54.82.55l-2.25-2.9-2.13-3c0,.31,1,2.21,0,1.12A4.74,4.74,0,0,0,32.57,190l-.58-.24c1.3,1.07,1.4,2.4.61,1.87l-.94-.58c.8.79,1.65,1.72,2.75,2.76l-1.65-2c1.37.87,2.69,1.76,4.09,2.54C35.82,192.9,35.59,193.6,34.28,192Z"/><path class="cls-1" d="M39.23,195.6a6.41,6.41,0,0,0-1.35-.76Z"/><path class="cls-1" d="M36.84,194.26l.3.46h0c-.08.07-.1.15,0,.28h.27l-.19-.28a1.12,1.12,0,0,1,.62.12Z"/><path class="cls-1" d="M37.22,196.44c-.33-.17-.52-.34-.85-.51.17.13.37.31.57.47S37.28,196.62,37.22,196.44Z"/><path class="cls-1" d="M39.76,199.22c-.06-.08-.18-.19-.26-.29Z"/><path class="cls-1" d="M41.72,195.15a.16.16,0,0,0-.09,0Z"/><path class="cls-1" d="M1.66,103.22a5.47,5.47,0,0,0,0,1.4Z"/><path class="cls-1" d="M4,136.89l.14.17C4.14,136.89,4,136.82,4,136.89Z"/><path class="cls-1" d="M20.14,161.2l.31.27C20.31,161.22,20.22,161.15,20.14,161.2Z"/><path class="cls-1" d="M29.38,187.35l1.08,1.77.2.23C30.75,189.2,29.71,187.12,29.38,187.35Z"/><path class="cls-1" d="M13.23,134.59a8.37,8.37,0,0,0-.18-1C13.12,133.92,13.17,134.26,13.23,134.59Z"/><path class="cls-1" d="M3.21,107.64c0-1.25.14-2.5.3-3.74l.13,1.2a12.78,12.78,0,0,0,0-4c.08.12.17,0,.34-.36.2-1.94-.21-3.06-.74-2.12l.08.67-.71,1.27c.33.26.36,1,.3,2-.25-.09-.61-.19-.94-.3.22-1.52.81-2.69.5-3.61l-.2,2L2,100.61a12.35,12.35,0,0,0-.11,1.65h0c0,.54,0,1,0,1.37a5.84,5.84,0,0,1-.26,1.46,14.89,14.89,0,0,1,.35,2.81l-.06,1.85c0,.21,0,.42-.06.63l-.1-.11c.05.24.08.49.11.73,0,.76,0,1.51-.07,2.27a7.51,7.51,0,0,1-.19.82,10.78,10.78,0,0,0-.35,3.44c.63.64.58-1.26.66-2.8l.29,0c0,.44,0,.57.26,0,.37,3-.82,1.75-.26,4.21l.26-1.39c.4,1.08.09,2.9.56,4,.32.07.31-.39.23-1.13a14.55,14.55,0,0,1,0-2.8l.46.94-.43-4.18c-.7-1.24-.79-.18-1.13-2.6,0-.1,0-.2,0-.3a3.36,3.36,0,0,1,.16-.33l.17.51L2.4,111a1.84,1.84,0,0,1,1.12-1A6.43,6.43,0,0,1,3.21,107.64Zm-.4-3.93c-.06.66-.14,1.35-.18,2,0,.12-.06.23-.1.35a1.45,1.45,0,0,0-.11.37c-.1-.43-.21-.86-.28-1.3.2.11.44-.48.67-1.48Zm-.63,10.75a11.52,11.52,0,0,1-.09-1.17l0-.09A5.55,5.55,0,0,1,2.18,114.46Z"/><path class="cls-1" d="M50.43,210h-.18A.22.22,0,0,0,50.43,210Z"/><path class="cls-1" d="M3.53,110.07V110h0A.11.11,0,0,0,3.53,110.07Z"/><path class="cls-1" d="M9.65,128.82l-.09,0C9.59,128.84,9.62,128.84,9.65,128.82Z"/><path class="cls-1" d="M49.79,21.61a5.15,5.15,0,0,0,1.35-1.06C50.84,20.37,50.19,21.23,49.79,21.61Z"/><polygon class="cls-1" points="15.79 61.81 14.86 63.21 15.75 62.2 15.79 61.81"/><polygon class="cls-1" points="11.41 71.22 11.29 71.35 10.9 72.95 11.02 72.81 11.41 71.22"/><path class="cls-1" d="M1.48,109.82c.26-2.25-.39-2-.38-3.34a58.92,58.92,0,0,0-.44,6.17C1,110.27,1.12,109.65,1.48,109.82Z"/><path class="cls-1" d="M.31,116.2a6.28,6.28,0,0,1,.17-1.5C.14,114.55.28,116.64.31,116.2Z"/><path class="cls-1" d="M1.8,123.05c0-.44.25-1.12.56-.84C2.14,121.58,1.5,120.72,1.8,123.05Z"/><path class="cls-1" d="M3.66,149.13,3.17,148l.23,1.49C3.39,149.06,4,149.71,3.66,149.13Z"/><path class="cls-1" d="M9.07,128.13a10.72,10.72,0,0,0-.25-2.26C8.72,126.19,8.75,128.28,9.07,128.13Z"/><polygon class="cls-1" points="6.7 157.02 6.03 155.17 6.69 157.21 6.7 157.02"/><path class="cls-1" d="M8.57,166.44l.84,1.44v-.37c-.27-.45-.58-.93-.84-1.41Z"/><path class="cls-1" d="M16.14,149.61l.61,2.27c.34-.71-.18-.63-.39-2l.85,1.35C17,150,16.21,149.23,16.14,149.61Z"/><path class="cls-1" d="M35.13,208c1,1,2,1.91,2.95,2.87.13-.16.58,0,.64-.24l-2.43-2.29C36.93,209.35,35.39,208,35.13,208Z"/><path class="cls-1" d="M38.66,212a3.43,3.43,0,0,1,1,.44c-.58-.49-1.1-1-1.65-1.55C38,211,38.07,211.28,38.66,212Z"/><path class="cls-1" d="M46.26,204.22c.27.2.57.36.85.55-.45-.33-.9-.65-1.34-1Z"/><path class="cls-1" d="M24.14,177.19a2.54,2.54,0,0,0-.36.29C23.78,177.6,23.88,177.53,24.14,177.19Z"/><path class="cls-1" d="M62,100.49l-.18.23a13.15,13.15,0,0,1,3.41-.51c-.09.11,0,.26-.73.38,5-.62,1.21-1.28,5.35-2a6,6,0,0,1-1,0c-1,.2-1.94,0-1.57-.18-2,.66-2.13.24-2.31,1-1.28.54-2.76.24-1.29-.26l-3.78,1,2.31-.2c-.53.69-3.69.32-4.3,1.12Z"/><path class="cls-1" d="M75.24,100.44c-1.73-.52,1.29-.44-2-.72l1.68-.92,3-.07c0-.27,2.14-.66.68-.77a6.94,6.94,0,0,1-1.29.21c.14-.29,1.11-.47,1.94-.59s1.5-.21,1.05-.48c-1.16.11-1.84.18-2.39.28a7.12,7.12,0,0,0-1.7.52,31.12,31.12,0,0,1-4.73,0c-.63.14-.68.49-1.48.64l.55-.07.17.84a8.41,8.41,0,0,1,2-.3l-3.33,1.3C70.57,101,73.87,100.23,75.24,100.44Z"/><path class="cls-1" d="M177.83,32.85l1.07,1.29A7.8,7.8,0,0,0,177.83,32.85Z"/><path class="cls-1" d="M179.05,82.42c.09,0,.28-.26.61-.71A6.91,6.91,0,0,0,179.05,82.42Z"/><polygon class="cls-1" points="177.66 32.61 177.66 32.71 177.82 32.85 177.66 32.61"/><path class="cls-1" d="M114.76,2.1a8.54,8.54,0,0,0,1.43,0Z"/><path class="cls-1" d="M147.34,11.18h-.25C147.28,11.25,147.39,11.24,147.34,11.18Z"/><polygon class="cls-1" points="88.47 96.08 88.39 96.18 88.47 96.18 88.47 96.08"/><path class="cls-1" d="M84,97.64a5.64,5.64,0,0,0,1.16-.12Z"/><path class="cls-1" d="M81.49,99.07l.78-.58c2.17.39,3.49,0,5.61-.06l-4.77-.09c-2.26-.36-.77-.52,1-.7a2,2,0,0,1-1-.09c-.21.21-5.22.86-1,.78-.13.66-2.69.37-3.81.65.83.07-.38.44-.11.64a7.3,7.3,0,0,1,2.12-.35c.44.29-.94.49-2,.51,1.37.2-1.66.65.25.73a41.75,41.75,0,0,0,9.72-1.79A42,42,0,0,1,81.49,99.07Z"/><path class="cls-1" d="M130.36,3.68c-.22,0-.13,0,.06.09Z"/><path class="cls-1" d="M166.8,96.67c.49-.3.85-.54,1.14-.75Q167.36,96.27,166.8,96.67Z"/><path class="cls-1" d="M144.51,99.29a4.49,4.49,0,0,0-1,.26,8.15,8.15,0,0,0,.86-.16Z"/><path class="cls-1" d="M179.66,54.13a2.15,2.15,0,0,0-.33-.76A2.58,2.58,0,0,0,179.66,54.13Z"/><path class="cls-1" d="M185,63.88v0s0,0,0,0Z"/><path class="cls-1" d="M128.52,232.44v.06S128.53,232.44,128.52,232.44Z"/><path class="cls-1" d="M72.39,216a1.09,1.09,0,0,0-.19-.27A1.11,1.11,0,0,0,72.39,216Z"/><path class="cls-1" d="M72,217.63a7.49,7.49,0,0,0,3.08.44c.45-.54-2-1.31-2.73-2.1,0,.07.06.13,0,.15l-1.45-.9c1.32,1-.52.55-1.32.21-.57-.26-1.7-.8-1.45-.91.3.12.61.2.92.3-1-.74-2.61-.86-3.55-1.83,0-.17.48,0,.6-.05a9.22,9.22,0,0,1-2.17-.72c-.73-.35-1.52-.76-2.52-1.2l1.44.07c-1.9-.21-5-2.64-6.89-4.63.16.29.53.69.19.6-1.36-.85-2-2-1.18-1.83-1.63-.46-4.19-4.14-6.23-5a92.67,92.67,0,0,1-9.52-4.6,9.73,9.73,0,0,1,.92.78c.15,1.1.54,1.43-1,.62,1.31,1,1.3.16,2.94,1.88-.87-.46-1.57-.14-.05,1.59a26.29,26.29,0,0,0,3.31,2.33c.54.33,1.07.65,1.6.94l1.64.81,3.23,1.53c1.12.49,2.24,1,3.4,1.64a1.39,1.39,0,0,0,.45.69A14.66,14.66,0,0,0,57,209.5c1,.77,2.24,1.7,3.06,2.26-1,.06-2.21-.73-3.54-1.52.78.57,2.09,1.6,3.13,2.27l1-.62c4.7,2.88-1.59,0,.44,1.49A15,15,0,0,0,64,214.47c-3.91-2,1.15-.76-2.66-2.93.92-.27,3,1.07,4.24,1.92,1.11,1.42-1.52-.28-2.2.08,1.58.8,1.38.53,2.22.57C67.91,215.68,71,216,72,217.63Z"/><path class="cls-1" d="M78.39,225.53a.87.87,0,0,0-.55-.09Z"/><path class="cls-1" d="M55.87,211.93c1.15.81,2.12,1.37,2.35.91a3.73,3.73,0,0,1,1.7,1.49,7.15,7.15,0,0,1,2.3,1c.85.48,1.75,1,2.59,1.56,1.66,1.08,3.15,1.83,3.45,1.21l-1.52-.69a13.74,13.74,0,0,0-1.86-.77l.57-.84c-1.7-.92-.57.53-3-.85.22.16.45.3.67.45a21.56,21.56,0,0,1-3.29-1.83c-1.21-.73-2.37-1.62-3.34-2.3.39-.08-1-1.11-.46-1.32-1.39-.81-2.64-1.78-3.59-1.91-.69-.73-2.14-1.35-3-2.36.23.56-2-.5.59,1.3-.21-.14-.14,0-.35-.12,1.28,1.59,2.36,1.55,3.7,2.62.64.86-1.59-.7-.89,0,.46.28,1,.71,1.59,1.16Z"/><path class="cls-1" d="M148.19,229.25a117.52,117.52,0,0,1-11.6,4.67A107.64,107.64,0,0,0,148.19,229.25Z"/><path class="cls-1" d="M77.36,233.32a8.69,8.69,0,0,1,2.94.92c.37-.2-.64-.8-.41-1.11a8.52,8.52,0,0,0-3.55-.76,8.71,8.71,0,0,1-3.52-.8c.26-.3,1.33-.23-.71-1l.54.12c-3.35-.92-2.13-1.81-4.53-1.75l.27-.45a10.76,10.76,0,0,1-1.38-.36c-.5-.18-1-.41-1.57-.64l-2.92-1.35h.14a22,22,0,0,1-3.49-1.59c-.64-.39-1.35-.8-3.68-2.18.81.28,1.61.56,2.42.81-1.44-1.2-2.14-.87-3.23-1.64.11,0,.11-.36.74-.13-.85-.39-1.7-.77-2.55-1.18l-2.93-1.52c-1.48-.53.06.56.13.88a4.68,4.68,0,0,1-1.69-1c-.62-.51-1.12-1.1-1.08-1.27.39.13,1.67,1,1,.21L46,216.79c-2-2.28,2.44.6,3.82,1.17A30.16,30.16,0,0,0,47,216a21.45,21.45,0,0,1-3-2.09,9.07,9.07,0,0,1,1.3,1.66c-.14.26-.78-.11-1.56-.76s-1.72-1.55-2.55-2.25c.87,1.1.13.74-.79.25a1.19,1.19,0,0,0-.35-.19l-.31-.16.19.17c-.06,0-.07.13,0,.34A29.09,29.09,0,0,1,43,216.09c-.3-1.46,3.29,2.34,4.65,3l1.45.93.52.37c0,.16-.18.16-1.09-.26.78.33,3,2,2.93,1.57,1.71,1.17,3.48,2.25,5.23,3.36a2.4,2.4,0,0,1,.38.4c.22.06.28,0,.28,0a101.88,101.88,0,0,0,25,10.54c-1.29-.38-2.32-1-3.6-1.5C80.87,234.5,76.59,233.71,77.36,233.32Z"/><path class="cls-1" d="M55.42,221.41l.45.2A2.32,2.32,0,0,0,55.42,221.41Z"/><path class="cls-1" d="M53.14,211.16a6.93,6.93,0,0,0-2.2-1.75C51.66,210,52.38,210.61,53.14,211.16Z"/><polygon class="cls-1" points="53.49 207.23 54.87 208.1 54.78 207.96 53.49 207.23"/><path class="cls-1" d="M108.9,237.81c-1.53,0-3.42-.17-5-.22a7.34,7.34,0,0,0-2.79.14c0-.1,0-.21-.4-.3l-1.81.45,1.67.33a14.26,14.26,0,0,1-4.61-.06,18.36,18.36,0,0,1-3.95-.88c3.29.25,1.75-.64,6.22.3-.19-.2-1-.59,0-.6-1.33-.06-2.61-.28-3.88-.43s-2.52-.35-3.76-.61-2.51-.46-3.8-.67-2.55-.5-3.92-.69c4.07,1.65-2.9-.23-1.78.81.79.15,1.59.25,2.38.37l-.25.15,2.84.66c-.5-.49-.93-.62-.71-.94,1.85.56,2.14.68,2.28.87s.14.37,1.5.88c1.43.25,2.86.55,4.3.7l-.36.06a1.47,1.47,0,0,0,.66,0l3.65.46,3.66.25,1.83.13h1.83l3.66.05C111.08,238.68,106.94,238.38,108.9,237.81Z"/><path class="cls-1" d="M135.66,233.69c0-.06.06-.1,0-.08Z"/><path class="cls-1" d="M133.91,234.05l-2.33,1.32c1.3-.35,2.62-.67,3.89-1.11l.14-.57a4.73,4.73,0,0,1-2.17.83Z"/><path class="cls-1" d="M128.69,235.33l0,1.18c2-.67,1.74-1.26.58-1.23,1.79-.73,1.13.37,2.26-.56C131.43,234.32,129.21,235.15,128.69,235.33Z"/><polygon class="cls-1" points="113.29 238.28 113.87 238.01 112.41 238.01 113.29 238.28"/><path class="cls-1" d="M114.84,237.55l-1,.45h1.44A1,1,0,0,0,114.84,237.55Z"/><path class="cls-1" d="M121.25,237.59l-2.11.2A18.6,18.6,0,0,0,121.25,237.59Z"/><path class="cls-1" d="M117.45,237.87a10.79,10.79,0,0,0,1.61-.08c-.54,0-1.08,0-1.61,0Z"/><path class="cls-1" d="M115.31,238c.26.39.58.8,2.67.5l-.48-.59Z"/><path class="cls-1" d="M64.11,214.93c-.46-.18-.94-.34-1.39-.54l.1.14c.46.19.93.35,1.39.53Z"/><path class="cls-1" d="M70.14,218.92c.36.09.64.15.89.19A2.45,2.45,0,0,0,70.14,218.92Z"/><path class="cls-1" d="M80.72,220c-.12-.32-3.41-1.68-3.78-1.14,1.43,1-2.39-.31.48,1,.12.46-1.47.43-2.75-.38.26-.28,1.42.37.73-.34-1.07,0-1.3-.42-1.2.22a21.43,21.43,0,0,0-3.2-.23,39.72,39.72,0,0,1,3.9,1.71,16.18,16.18,0,0,0,4.46,1.34C80.91,222.08,80.36,220.92,80.72,220Z"/><path class="cls-1" d="M73.51,216.47c0,.31.81.26,1.38.53A5.26,5.26,0,0,0,73.51,216.47Z"/><path class="cls-1" d="M91.64,229.09l-2.26-.28a1.32,1.32,0,0,1,.84.54h0a.08.08,0,0,0,0,.09h0l-.08-.09C90.46,229.25,91.91,229.35,91.64,229.09Z"/><path class="cls-1" d="M126.68,236.85a9.58,9.58,0,0,0-1.6.29C125.08,237.4,126.15,237,126.68,236.85Z"/><path class="cls-1" d="M163.57,220.65a2.73,2.73,0,0,0-.91.35Z"/><path class="cls-1" d="M172.88,203.44c-.84.86-2.74,2.46-3,3.16.31-.57,2-1.57,2.23-2.26v.1C172.34,204.11,172.63,203.8,172.88,203.44Z"/><path class="cls-1" d="M186.43,55.91a19.27,19.27,0,0,1-.6-3.46l.24.2a27.45,27.45,0,0,0-2.7-9.51,5.87,5.87,0,0,1-1.81-.93A15.33,15.33,0,0,0,179.44,41a68.53,68.53,0,0,0-7-11.36.56.56,0,0,1-.59.24c-.63-1.14-2.32-2.8-1.93-3.08-.67-.32-1.77-1.1-2.67-1.67s-1.67-.88-1.55-.46l-.41-.31c-.86-1.48-2.4-3.49-6-6.07l-.2-.12a8.46,8.46,0,0,0-.71-.49l.65.45c-.53-.26-.76,0-.86.42a11.9,11.9,0,0,0-2-1.75,4.9,4.9,0,0,1,2.34.81c-.93-.69-1.88-1.27-2.88-1.87s-2-1.21-3-1.72h.63l-2.57-.89c1.42.56,3.46,1.73,2.7,1.94a26.79,26.79,0,0,1-3.5-1.58,10.78,10.78,0,0,0-3.33-1c.38-.88-.38-1.36.62-1.53a1,1,0,0,1,.27.17,11.71,11.71,0,0,1,4.79.84l-1.63-.91-1.22-.56c-.69-.31-1.17-.51-1.63-.69l-1.51-.62c-.6-.25-1.38-.54-2.51-1-.14-.33,1-.07,2,.13s2,.57,1.52.14c1.45.73,2.92,1.37,4.33,2.17a3.47,3.47,0,0,0-1.3-.33,23.47,23.47,0,0,1,3.53,1.52,18.23,18.23,0,0,0,3,1.24c1.26,1-2.36-.92-.89.08a7.37,7.37,0,0,0-3.73-.65c3.25,1.86,2.22.34,5.16,1.74.62.54,1.23,1.07,1.81,1.67,1.27.73-.23-.51-.23-.69a27.83,27.83,0,0,1,3,2.31c-.26-.33-.93-1-.63-1,.83.77,1.69,1.5,2.51,2.23A9,9,0,0,1,166,21.22c-.67-1.08,1.65.18,2.46.75-.92-1.13-1.81-2.35-2.81-3.42l-3.12-2.26-2.88-1.94c-1-.64-2-1.19-3.06-1.8a31.26,31.26,0,0,0-3.65-1.74l.45-.11a19.79,19.79,0,0,0-4.72-2.34,10.26,10.26,0,0,0-3-.6c-.87,0-1.72-.06-2.79-.21a20.55,20.55,0,0,1-4-1c0-.8-3.39-1-2.9-1.59,2.19.74,1.83.33,1.3-.2a13,13,0,0,1-4.78-.83c1-.12-1.12-1,1.4-.5-3.38-1.12-5.33-1.41-7.22-1.12-2.88-.23-3.28-.5-3.66-.78s-.76-.66-3.63-.83l.87-.17C119,.4,117.85.31,116.66.23l1.08.49q-2.08,0-4.23.09c-2.59.27,1,.52.66.82l.91-.48c1.67.25,4.1.06,4.4.49-2.75-.24-2.14.29-3.25.38.88.06,1.75.06,2.63.06l.8.51a30.32,30.32,0,0,0,6.09.61c-1-.38-1.79.09-2.69-.38,1.37-.43,4.59,0,7.71.57,0,.17,1,.49.56.49a2.54,2.54,0,0,1-.9-.19c.15.34-1.59.12,1.23,1a18.51,18.51,0,0,0-3.47.67,50.35,50.35,0,0,1-5.32-1l.12-.08c-1.44-.33-4.59-.23-4.78-.74-.9,0-3.38-.08-.9.45-1.39-.07-2.78-.07-4.16-.07.74-.82-3.2-1.24,1-1.7-.14,0-1.68,0-4.14.08l.12-.09a.58.58,0,0,0,.33-.14c.5,0,.8,0,.88.18,1.48-.55-.68-.83-3-.91l-.55.49a19.1,19.1,0,0,0-5.49-.4l3-1,.79-.46-4,.62c.52-.27-1.41-.1-.58-.43-.31.06-1.73.27-1.33.36L101,.47c-2.06.87-.77,1-4.18,1.85a7.5,7.5,0,0,0,4.2-.63c.18,0,.37-.06.55-.09C99.65,2.31,97.79,3,96,3.79c-1.39,0-3.14.43-4,.37l.14,0c-.52,0-.81,0-.36-.36-.31-.19.57-.48,1.76-.48.19,0-.1.15.1.15.29-.35.39-.73-1.1-.86a8.36,8.36,0,0,0,2.67-.45l-1.49.13C95.8,1.86,99.14.94,99.07.51c-.64.67-2.12.19-3.34.19.91-.22,2.85-.65,1.33-.65-.53.23-4.55,1.17-1.63,1a18.31,18.31,0,0,1-4.21.86c1.58-.48.48-.53.88-1-1.41.56-1.29,1-1.48,1.21-2.09.09-3.61,0-5.19,0A18.28,18.28,0,0,0,80,3.22c-.59.22,2.75-.89,2.41-.39a9.75,9.75,0,0,1-2.09.72,12.34,12.34,0,0,1-1.71.24,10.24,10.24,0,0,0-3.55.7l1,.39c-.91.34-3,1.26-4,1.68-.36-.11-3.52.54-1.36-.46a10.32,10.32,0,0,0-4.36,2.39,16.74,16.74,0,0,1-4.66,3c2.51-1,2.74-1.24,4.69-2.08-1.93,1.23-.23.41-.23.93-1.41.16-5.17,2.44-2.74.64-.81.39-2,.93-3.13,1.53A14.26,14.26,0,0,0,58,14l1.5-.56a22.34,22.34,0,0,0-3.09,2,10.62,10.62,0,0,0-1.82,1.85c2.67-1.74,2.17-2.4,5.8-4.31,4.17-1.59-.73.87,2.17.18l2.61-1.82L63.75,12c.07-.41,1.16-1,2.18-1.41s1.94-.85,1.59-1.14a35.3,35.3,0,0,0,3.62-1,30.24,30.24,0,0,1,3.85-1c.7-.55-.47-.12-1.47.18C75.2,7,75,6.2,77.44,6c1.17-.23.17-.63-1.83,0,1.74-.49,3.35-1.17,5.3-1.6-.71,0-1.4.06-2.11.06.64-.2,1.31-.43,2-.59-.61,0-1.2.12-1.8.21a51.51,51.51,0,0,1,6-1.48,19.29,19.29,0,0,1,4.74-.28C86.39,3.4,80.69,4.55,79,6a6,6,0,0,0,1.69-.63,2.78,2.78,0,0,1,2-.25l.91-.72A16.65,16.65,0,0,1,86,3.68c.88-.14,1.65-.21,1.82,0-.81.25-1.46.45-2,.67s-1,.44-1.37.64c-.71.37-1.26.71-1.94,1.07h0l0,0-.13.07v0L82,6.39l-.38.13A31.45,31.45,0,0,0,78.38,7.6c-1.14.24-.46-.26-.37-.39a13.44,13.44,0,0,0-5,1.92,28,28,0,0,1-5,2.39c-.11-.18-.94,0-1.6.19s-1.2.38-.79.06a16.17,16.17,0,0,0-4.53,3c-.2-.08-.88.26-1.5.56a5.48,5.48,0,0,0-1.11.42s0-.12.16-.25l-.36.36A17.66,17.66,0,0,0,56.38,17c.54-.22.64-.09.66.12l0,0c-1.43.62-4,2.5-4.65,2.5-1.32,1.1,0,.85-2,2,0-.15-.16-.09.25-.35a11.62,11.62,0,0,0-2,1.22,10.07,10.07,0,0,0-1.74,1.65c.5-.27,1-.59,1.45-.9a4.6,4.6,0,0,0-.9,1c-2.19,1.8-.47-.25-.64-.2-1.09.7-1.24,1-1.19,1.11l-.33.17c-.7.38-1.51,1-1.08.38a25.88,25.88,0,0,0-3.92,3.84c-.12.1-.25.18-.37.29a25.82,25.82,0,0,1-3.45,4C35,35.46,33.22,37.09,32,38.59c.13-.51-.35-.21-.67-.21-.78,2.4-.59,1.46-1.92,4.11.24-.24.5-.46.74-.69l-.75,1a20.17,20.17,0,0,0-1.67,2.6L28,45l-1,2c-.31.42-.46.42-.6.4.23-.48.47-1,.75-1.46a20.41,20.41,0,0,1,1.21-1.86,11.91,11.91,0,0,0-2.64,3.76c-.09.12-.18.26-.29.44-.09-.87,1.88-2.83,2.78-4.65-2.62,2.33,1.53-2.85-.28-1.37A3.22,3.22,0,0,1,27.27,44a27.91,27.91,0,0,1-1.61,2.3,22.65,22.65,0,0,0-2.27,3.32c0-.23.12-.47.67-1.22L23,48.85c.64-.1-.3,1.64-.33,2.22a1.09,1.09,0,0,0-.08.15c-1.72,2.36.3-1.39-.55-.22l-.2,1-.4.48c-.2-.17-.37-.38.13-1.33-.81,1.18-1.75,1.85-2.35,3.29a45.09,45.09,0,0,0-2,4.7,10.07,10.07,0,0,1,.66-1.41c-.36.82-.69,1.65-1,2.5-.32.49-.51.67-.29-.35-.81,1.8.08.81-.59,2.48l1.21-2c0,.34,0,.82.84-.71-.22.62-.47,1.24-.71,1.85a6,6,0,0,0-.5.85l.13,0c-.24.55-.48,1.09-.74,1.63l-.09.11c.18-.68-.54.21-.71.21.08-.1.17-.2.25-.31s-.16.11-.29.29a6.29,6.29,0,0,1,.81-1.76c-.59.2-.76,1.16-1.16,2.32a2,2,0,0,1-.3.25,9.12,9.12,0,0,0,.42-1.87c-.2.67-.44,1.32-.69,2-.43.08-.68-.4-.68-1a37.37,37.37,0,0,1-2.19,4.61c1.95-5.29,4.49-9.69,7-15-3,3.82,1.19-3-.22-2.06L17.14,54.1l-.06-.29c-.52.93-1.07,1.85-1.54,2.81.62-.41.87-.83,1.12-.53-2.13,3.69-1,1-2.9,3.53C13,61,12.41,62.51,11.76,64l.06-.4a1.94,1.94,0,0,0-.2.7c-.59,1.21-1,2.48-1.56,3.72s-1,2.48-1.45,3.76l-1.33,3.8-1.14,3.9c-.6,2.86,1.11-1.35,1,.85.23-.72.5-1.52.77-2.32l0,.43-.12.14V80.7c.39-1.37-.23-1,.5-2.3s.48.23.73.73c-.54.85-1.34,4.14-1.2,2l-.4,3.75c-.24-.1-.15-.91-.15-1.31-.21.87-.45,1.73-.62,2.61l-.07-.12c-.22,2.17-1,5.07-.8,6.79,1-2.66.56-.06.55,1.1l-.15.8-.53.45v.1c-.4,0-.78-.7-.73-2.27.54-.63.41-2.63.76-4A12.32,12.32,0,0,0,5,92.78c-.06-1.06-.85,1.91-1,1.69s-.62-.94,0-2.7c.61-2.73.69-.18.75-1,.83-.55.82-3.75,1.42-5.32.09-.16,0,.39,0,.67.3-1.41,1.23-4.28.83-4.64L6.24,85c-.36.72-.08-1.17-.67-.17,0,.34-.11.68-.18,1l0-.42c-.16.5-.33,1-.45,1.52a1.09,1.09,0,0,0,.25-.1c-.07.26-.14.53-.23.79l-.14-.25s0,0,0,0l.13-.52c-.45.15-.94.35-1.31,2.64l.48-.22c-.18.61-.34,1.22-.47,1.84-.28,1.42-.5,2.9-.66,4.15.88.74,1.28,2.14,2.2,3.4-.61,3.61-1.11,7.4-1.6,11.28a.62.62,0,0,1,.55.22c-.34,1-.27,3.09-.79,3,.41,1.27.8,4.63,1.31,4v.45a12.62,12.62,0,0,0-.79,2.76c-.1.75-.17,1.5-.22,2.25l-1.83.82a9.52,9.52,0,0,1-.11-1.06v.81l.07.32,1.87-.84c-.05.76-.07,1.53-.07,2.3s.36.84.85.65A12.23,12.23,0,0,0,4.21,128,4.67,4.67,0,0,1,3.52,126l.23,6-.28-.44c.16.78.4,1.54.59,2.31-.32-1.3-.31-3.36.25-2.91.59,2.61.28,4.17,1.19,6.32-1,.11-1,.9-1.64.22a1.22,1.22,0,0,1,0-.27,11.05,11.05,0,0,1-1.65-3.94,75.91,75.91,0,0,0,.86,8.1c-.49.48-1.23-3.93-1.43-2.87l-.22-4.17a3.29,3.29,0,0,0,.38,1.09,20,20,0,0,1-.54-3.26,9.13,9.13,0,0,0-.54-2.74c.16-1.4.55,2.1.55.6a6.21,6.21,0,0,0,1.4,3c-.08-3.26-.85-1.78-1.28-4.54l.34-2.1c-.14-1.25-.28.42-.42.51a17.86,17.86,0,0,1,.12-3.27c-.11.34-.24,1.12-.45.94.4-1.93,0-3.82.86-5.59-.38,1-.9-1.17-1-2-.28,1.22-.59,2.44-.84,3.67.18,2.35.17,4.19.24,6.19a53.43,53.43,0,0,0,.66,6.44L.56,133c0,4,.52,5.59,1.27,7,.36.71.74,1.37,1.1,2.27a12.55,12.55,0,0,1,.52,1.57c.18.6.38,1.3.55,2.12-.67.34.77,3,0,2.95-.37-2-.56-1.55-.78-.91a10.81,10.81,0,0,1,1.48,4c-.58-.73-.39,1.31-1.09-.84.62,3.06,1.09,4.73,2.22,6.06,1,2.35,1,2.76.84,3.2s-.23.88.77,3.21L6.92,163l1.16,3v-1.24l.84,1.68.9,1.64c1.25,2,.09-1,.49-.87l-.8-.51C9.09,165.26,8,163.41,8.22,163c.89,2.28,1.1,1.58,1.62,2.42l-1-2.12.13-.85c-.78-2.16-1.15-3.89-2-5.08.08,1,.79,1.37.79,2.28a7.62,7.62,0,0,1-1.44-2.46c-.24-.56-.48-1.17-.72-1.81l-.67-2c.14-.11,0-1,.19-.65a2,2,0,0,1,.23.78.09.09,0,0,1,.11,0h0c0,.15,0,.11,0,0,.27.08.63.83.23-1.37.7.79,2,2.45,2.09,2.34a26.5,26.5,0,0,1,1.41,4.62L9.07,159c.28,1.28,1.73,3.71,1.33,4.09.37.71,1.25,2.74.76.53.48,1.13,1,2.25,1.58,3.35-1-.26.12,3.07-1.94-.1l1.65,3.3-.12-.06a.72.72,0,0,0-.25-.21c-.16-.42-.28-.65-.16-.78-1.05-1-.52.88.27,2.78l.66.24a16.36,16.36,0,0,0,1.48,4.47c-.61-.61-1.18-1.25-1.78-1.87l-.69-.48c.67,1,1.27,2,2,3-.43-.32.42,1.18-.17.64.16.22.83,1.31.78,1l-.35-.64c1.48,1.35,1.2.22,3.09,2.71a6,6,0,0,0-2-3.22l-.19-.28c1.25,1.22,2.46,2.43,3.74,3.58l.9,1.33c.1.76,1.52,2.73.52,2.2-.06.33-.56-.28-1-1.28,0-.14.11,0,.11-.14-.43-.11-.79,0-.43,1.25a6.43,6.43,0,0,0-1.28-2l.6,1.19a24.91,24.91,0,0,0-2-2.57c-.67-.78-1.27-1.31-1.44-1.2.82.26.84,1.67,1.3,2.67-.49-.65-1.55-2.07-1-.84.46.38,2.55,3.35,1.46,1a15.35,15.35,0,0,1,2.14,3.15c-1-1.11-.68-.17-1.23-.32,1,.95,1.3.69,1.58.76,1.54,3.38,1.4,5.32,4.22,8.5.38.41-1.63-2-1.07-1.88,2.33,2.1,1.69,3.71,3.59,5.64l.07-1c.58.58,1.91,2.1,2.58,2.83-.06.33,1.48,2.8-.06,1.33a8.84,8.84,0,0,0,3.28,3,11.41,11.41,0,0,1,3.84,3.09,37.45,37.45,0,0,0-3-3.42c1.66,1.22.43,0,.93-.13.5,1.19,3.46,3.75,1.24,2.19a22.72,22.72,0,0,0,4.08,3.82L37.83,209a19.77,19.77,0,0,0,2.55,2.1,8.39,8.39,0,0,0,2.12,1c-2.21-1.78-2.68-1.18-5.28-3.78-2.47-3.16,1,.31-.36-2l-2.27-1.71.86,1c-.78.14-3-3.22-3.28-2.44a19.41,19.41,0,0,0-1.84-2.81c-.29-.39-.6-.75-.91-1.24s-.64-1-1-1.76c-.68-.41,0,.5.53,1.23-.95-1.27-1.63-.86-2.54-2.8-.56-.91-.65.07.51,1.56-.5-.65-1.06-1.23-1.5-1.88s-1-1.32-1.44-2.08l.63,1.8-1.1-1.54.68,1.47a48,48,0,0,1-3.07-4.53,16.1,16.1,0,0,1-1.7-3.87c1.06,1.17,2.22,2.88,3.38,4.39A14.44,14.44,0,0,0,26,194.42c-.2-.7-1.93-1.66-1.84-2.82l-.94-.49c-.81-.8-2.29-2.84-2-3.28a21.26,21.26,0,0,0,2.19,2.36c.59.5,1.09.83,1.68,1.32h0l.38.25.2.24a27.73,27.73,0,0,0,1.92,2.54c.55.88-.12.46-.26.46a13.17,13.17,0,0,0,3.11,3.66,17.17,17.17,0,0,1,3.49,3.53c-.31.33,1.62,2.5.84,2a13.17,13.17,0,0,0,3.87,3c-.05.49,2.32,2.4,1.23,1.94.64.31,1.25.63,1.89.91.89,1.09,3.25,2.73,3.33,3.38,1.25.86.75-.24,2.25,1.23-.14,0,0,.17-.38-.12a10.2,10.2,0,0,0,3.41,2.52c-1.12-1-.21-.28-1.53-1.44.09-.09.58.1,1.22.48a10.81,10.81,0,0,1,2.17,1.63c-2.58-1,1.37,1.77.13,1.32,3.52,2.52,6.13,3.08,9.52,4.29l1.42.78,1.5.76,3,1.53a30.7,30.7,0,0,0,5.66,2l-.39-.17,2,.34c1,.4-.23.65,1.47,1.11-.73.34-2.92-1-4.73-1.25,2.63,1.78-2.87-.61-1.17.65a2.8,2.8,0,0,1,1.67.13,24.93,24.93,0,0,1,2.39.82c.86.33,1.76.7,2.62,1a10.83,10.83,0,0,0,2.39.51c2.47.93-1.3.14-.08.6l.92-.11c1,.41,1.26.64,1.16.88A24.18,24.18,0,0,0,90,234.37c-3-.38,1.12-.42-1.8-1a27.88,27.88,0,0,1,4.64.57c-1.76-.15,2.19,1.28-1.64.35.21.36.7.46,1.34.46a11.16,11.16,0,0,1,2.31.12c-.92.1-3,.18-2.79.24a18.21,18.21,0,0,1,5.35.65,17,17,0,0,0,4.15.42c.49-.1,1-.18,1.63-.26l1.85-.31c1.27-.2,2.59-.38,3.75-.64a36,36,0,0,0,7.48-.08l-.44.28a22.34,22.34,0,0,0,2.71-.23c1-.16,2.12-.36,3.21-.45l.55.38c.32-.09.82-.18,1.32-.28l1.62-.38,3.53-.74c0-.24-2.1.2-1.18-.3-1.12.21-2.05.45-1.6.65-1.12.22-1.19-.22-2.19-.22l4.23-1.14h.51c-.18.16-.82.38-.09.24l.1-.25h0l.2-.56c1.1-.28,1.44-.24,1.31,0a19.89,19.89,0,0,0,2.68-1.16,12,12,0,0,1,2.78-1.07,7.59,7.59,0,0,1-3.28,1.7c1-.22,1.84-.54,2.84-.83-1.13.92-6.13,2-5.13,2.52,1.55-.55,3.47-1.17,5.25-2,.9-.39,1.8-.77,2.6-1.18s1.53-.83,2.14-1.21a7,7,0,0,0,2.64-.77,20.47,20.47,0,0,1,3.18-1.4c.36,0,1.12-.18.79.21l-.63.29a36.86,36.86,0,0,0,8.61-5l1.59-.23c4.36-2.34-1.28-.25,3-3a11,11,0,0,0,3.25-1.62l1.66-1c.45-.27.78-.42.89-.35.76-.61,1.12-.85,1-1.21-.72.47-2.18,1.7-1.56.7a34,34,0,0,1,3.24-2.24c0,.13-.62,1-.24.59.66-.56,1.42-1.25,2.25-2s1.76-1.52,2.6-2.37,1.67-1.71,2.38-2.53a14.35,14.35,0,0,0,1.68-2.4c-.8.9-.62,1.28-1.94,2.22-.16-.21.51-.74.66-1.1-.48-.2-1,1.36-2.48,2.2l1.68-2.28-1.47.7,1-1.29.89-1.32,1.75-2.71a28.05,28.05,0,0,0-4.12,4.65,12.66,12.66,0,0,1-4,3.81c.39-.5-.09-.26-.33-.23a5.77,5.77,0,0,0,.6-.78c-.61.58-.72.75-.65.79-.88,1-2.13,2-2.61,2.76L163.46,213c-.11-.23.15-1.24,1.89-2.5-3,2.24-5.6,4.39-8.34,6.39a48.71,48.71,0,0,1-4.28,2.83c-.75.44-1.52.88-2.33,1.29s-1.68.77-2.57,1.14c-.34,0,.86-.59.3-.41a25.05,25.05,0,0,0-2.15,1.5,1.35,1.35,0,0,1,.69-.62c-3.5,1.88-5.74,1.91-8,3.12-.24-.26,1.76-.87,1.41-.87-3.73,1.1-5.35,2.7-9.17,3.7,1.14-.76-1-.25-2.06-.25-.37.15-.81.31-1.29.47l-1.58.44c-1.14.28-2.41.64-3.75.89l-4.11.75c-1.37.18-2.71.36-3.93.54.61-.64-.77-.5-2.31-.45s-3.34.15-3.54-.35c-1.08,0-2.76.09-2.9.45.61-.17,2.08.17,1.88.37-1.59,0-4,0-4.28.42l-1.94-.64c-.14.35-.81.74-1.91.64-2.33-1.15.19.75-3.22-.25a7.57,7.57,0,0,0,1.89-.71,10.16,10.16,0,0,0-2.64-.14c-.34-.34,1.27-.63,2.55-.63l-2.08-.58a20.11,20.11,0,0,1-4.1.22,18,18,0,0,1-4.94-.75c.61-.2,1.65.08.92-.6-.71-.11-1.56-.13-2.46-.22a7.31,7.31,0,0,1-2.71-.71c.26.07.13,0,.38,0a7.89,7.89,0,0,1-2.77-.76,21.06,21.06,0,0,0-2.39-1.16c.06,0,.09-.11.2-.11L76,225.14a6.13,6.13,0,0,1-3.59-1.47,13.71,13.71,0,0,0-2.12-1.91l.5.14A14.82,14.82,0,0,0,67.54,220c-.67-.33-1.35-.62-1.92-.92a10.36,10.36,0,0,1-1.27-.79c1.24,1.11.3.57,1.06,1.69,1.3.55,1.3-.28,3.3,1-.51.36-3.33-.73-4.08-.73a2.74,2.74,0,0,1-1.49-2.22,30.62,30.62,0,0,1-3.6-2.37L55.45,213c-.71-.26-1.47-.31-2.36-.62A7.06,7.06,0,0,1,50.16,210h.09c-.44-.14-1.23-1.12-1.82-1.35.52,1.25-1.37-.66-.63.72-1.56-1.3-1.27-2.14-1.1-2.63-1.66-.3-2.62-3-5.13-4.8.62.17,3.08,2.4,2.36,1.17-1.16-.67-2.32-1.36-3.44-2.11l1.21,1.23c-2.53-1.74-2.53-2.85-3.53-4.3,0-.4.76.39,1.35,1a33.56,33.56,0,0,0-2.56-2.5c-.41-.26-1.18-.93-2-1.62A20.2,20.2,0,0,0,32.78,193l-.27-.44a.46.46,0,0,1,.23.12c-.17-.19-.32-.34-.46-.48l-.87-1.33.29.18-.44-.44-.86-1.35-.65-.58L30,189c-.3.12-.83-.16-1.46-.71a11.8,11.8,0,0,1-1-1,16.29,16.29,0,0,1-.94-1.4,27.11,27.11,0,0,0,1.6,2.76l-.51-.37c-.78-1.12-1.37-2.26-2-3.34s-1.23-2.17-1.75-3.17a23.74,23.74,0,0,1,1.58,2.28,19.31,19.31,0,0,0-2-3.72c-.76-1.2-1.42-2.27-1.3-3,2.5,2.92,3,4.72,5.39,7.92.56,2.07-1.71-1.94-2.09-1.86l1.07,2c.09-.23.7.69,1.36,1.44s1.34,1.37,1.34.65c-2.52-4.27-4.94-8.48-6.85-12.27,1.93.54,3.76,1,5.76,1.44,0,0,0,0,0,0a8.64,8.64,0,0,0,1,1.4c-.26-.07-.57-.13,0,.81.77,2.08,2.24,2.59,3,4l-.33-.38a10.46,10.46,0,0,0,2.76,3.66c.08,1.44-2.65-3.45-1.85-1.15a39.74,39.74,0,0,0-3.2-4.31c1,1.91,1.4,3.91.7,3.63,3,3.62,1.36-.9,3.93,2.26.52.8,1,1.6,1.52,2.36l1.27.24c1,1.32-1.18-.4.45,1.6a3.52,3.52,0,0,1,1.08,1.06,4,4,0,0,0,1,1c-.19.07-.37.19.47,1.19.17,0,.33-.3,1,.49-.16,1.1-1.86-1.92-1.64-.5,1.92,2.27,1.77,1,2.3,1.11a4.36,4.36,0,0,1-.34-.45c.18-.15.83.94,1,.62a7.87,7.87,0,0,0-1-1c.77.5-.53-1.47-1.1-2.14A18.34,18.34,0,0,1,37.33,189c-1-1.28-2-2.72-2.88-3.84.17.2.51.52.44.2-.58-.8-1.06-1.5-1.5-2.15l-1.16-1.92-2.8-4.51-.94-.2c-1-1.6-1.51-1.84-1.93-1.73s-.71.58-1,.17c-.46-.77-1.16-1.28-1.24-2.12l.41.27c-1.36-2.17-1-.4-1.87-2.5-1.11-1.52.6,1.51-.22.6-.88-2.29-1.79-.87-2.79-4.6.27.09.45-.65,1.45,1.35-.18-.72-.31-1.45-.44-2.17,1.17,2.28.52.85,1.65,3.21,1.07.84,1.3.41,2.23,1.19-.55-.78-.91-.44-1.49-1.78-.6-1.66.39.13.65.2a3.9,3.9,0,0,1-1.06-2.19,3.53,3.53,0,0,0-.85-2.07c-.49.65-.64.26-.49,1.84-.78-1.33-1.05-3.24-.41-3.33l-.65-.08c0-.37-.42-1.47-.3-1.6l-.43-.38a6.33,6.33,0,0,0,1,3.76c-.65-.58-.5,1.34-1.55-.91-.39-1,.26-.24.38-.36-2.33-5-1-5.52-2.62-9.57.57,1,.95,3.62,2.08,5.43,0-1.34-1.06-2.49-1.33-3.69.56,1,.81,1.07.66-.21l-.48-.4a8.18,8.18,0,0,1-.52-2.17c-.11,0-.1.31,0,1a14.25,14.25,0,0,1-.79-1.56c-.25-.62-.49-1.32-.73-2.07a27.57,27.57,0,0,1-1.11-4.9c.39,0,.7,1.17,1,2s.46,1.33.46.07c-.46-1.31-1.42-2.27-1.53-4.7.62.91.2-1.18.47-1.18l-1.31-2.93a37,37,0,0,0-.56-3.92,7.3,7.3,0,0,1,.09.94c-1.12-2.17-.24-4.2-.76-7.06l.39,1.31a28.89,28.89,0,0,0-.69-5.63h.53c-.72-.2-1-4-1.18-4.83a23.22,23.22,0,0,1,0,5,14.92,14.92,0,0,0,.28,4.85,47.77,47.77,0,0,1-1.83-5.45c0-.82.15-1.14.31-1.21-.31-.69-.78-.89-1-2.17l.22-.3,1-.44c.09.65.25,1.07.63.27l-.19-.46,1-.46c.11,1.2.26,2.15.61,2a11.28,11.28,0,0,0,0-2.25l3.43-1.5-3.43,1.5a11.9,11.9,0,0,0-.26-1.45l-.11.57-.6-2.55A35.24,35.24,0,0,1,12,119l-1,.45-.21-.53c0-1.08.4-1,.4-.29-.11-1.41,0-1.07-.3-1.61,0-.64,0-1.12,0-1.48.55-.28,1.11-.56,1.68-.81-.07.74-.12,1.49-.19,2.24L13,117v-2.45c.62-.27,1.24-.53,1.87-.77.4,0,1.39-.28.76.23l-.93.41c1.1-.38,2.24-.88,3.39-1.38l1.71-.76.85-.38.64-.3c1.67-.81,3.28-1.64,4.67-2.41h1.71c5.14-1.67-1.27-.54,3.88-2.54,1.45.08,6.51-2,6.88-1.59,1-.38,1.42-.5,1.42-.89-.9.24-2.84,1-1.84.24a36.47,36.47,0,0,1,4.1-1.23c-.06.13-1,.76-.46.51.81-.35,1.85-.7,3-1.1s2.38-.82,3.61-1.22a55.85,55.85,0,0,0,6.48-2.49c-1.27.37-1.32.8-3.07,1,0-.26.88-.43,1.23-.66-.32-.41-1.69.71-3.55.85.94-.47,1.85-.88,2.85-1.31H52c1.87-.44,3.65-.8,5.31-1.07,19.88-3.15,34.13-3.28,45.29-2.41-2.27.29-4.48-.37-6.81,0,.11-.1.4-.16-.07-.16-3.09-.12-4.32.82-6.8.36l.31-.3c-.21,0-1.67.27-1.37.61a32.62,32.62,0,0,1,4.31-.13,13,13,0,0,1-3.62.48l-.12.53c-1.55.57-3.15-.14-4.67.47l1.82.28a1.55,1.55,0,0,1-.31.06A5.28,5.28,0,0,0,87,97.12a6.49,6.49,0,0,1,4.56.75c1.27.19-.46.67-.31,1,2.06-.1,1.95-.69,4-.78.46,0,.42.15.26.21l1.25-.19c.07.17,3.54.48,1.46.74-.31,0-.87-.1-1.31-.1,1.41.27,3.33.59,4.86.89s2.68.74,2.58,1c1.52.29,1.12,0,3.52.38,1.18-.29,0-.89,2.72-.81-.69-.16-1.39-.35-2.09-.49a11.27,11.27,0,0,1-1.29.13c.73.06,1.46.09,2.2.19-1.41,0-1.19.29-1.64.64-3.36-.28-4.22-1.16-5.92-1.45,1.07-.29,2.88,0,2.25-.55,1.65.62,1.92-.25,3.85.37l-.39.1c1.64-.24,1.8.29,3.17.11-.11.09.06.17.22.26,2.9.17-.88-.43,2.12-.52,2.56.43.71.94,1.38,1.28-4.37.1,0,.86-4.72.79-.07.68,1.71,1,4.18,1.27-1.56-.51,1.17-.86-.9-1.63,3.75.19,3.65-1.14,7.75.13l-.12.09,1.81-.22,2.36.66c-1.61.48-3.37-.16-4.61.06,2.81,1.18,4,0,7.45.47,2.77,1.2-3.59,0-3.65.66.69-.07,2.55.53,2.3.7-3.23-.7-2,.15-5.51-.78,1.75,0-.23-.27.14-.52a27.51,27.51,0,0,1-6.06-.73c-.6.42,1.91.73,3.31,1.19a15.68,15.68,0,0,1,4.14.59,10.24,10.24,0,0,0,3.73.43c3.12.36.17.51.35.6,2.77.62,1.27-.25,2.17-.25a16.5,16.5,0,0,1,4.42.57,11.59,11.59,0,0,0,3.6.58,23.27,23.27,0,0,1,2.64-.36c1.07-.16,2.28-.3,3.56-.43a33.85,33.85,0,0,0,3.87-.61l1.89-.34.9-.17.84-.25c-.46.39.16.4.48.54,2.33-1.71,1.51-1,4.51-2.63-.9.23-1.86.36-2.78.54a18.76,18.76,0,0,0,2.84-1.32,8,8,0,0,1,2.75-1c-2.56.16,2.09-1.49,3.94-2.68-.15.31.21.4,1.23-.3a4.25,4.25,0,0,1-1,.16,2.31,2.31,0,0,0,.23-.18,10.42,10.42,0,0,0,2.9-1.65c.43-.29.82-.57,1.2-.78a3.35,3.35,0,0,1,1-.5l-.23.22c.91-.66,1.88-1.25,2.74-2l.22.91a11.17,11.17,0,0,0,2.52-2.38c.54-.79.74-1.32.37-1.11,1.85-1.68.92-.55,1.46-.55A19,19,0,0,1,173,90.53c-.71.81-1.45,1.53-2,1.53.2-.09.64-.43.64-.59-1.28,1-2.05,1.6-2.45,2s-.45.62-.4.79c.09.33.57.49-.74,1.57.73-.49,1.42-.87,2.1-1.28a7.2,7.2,0,0,0,2-1.6,11.72,11.72,0,0,0,1.92-2c.72-1,1.54-2.07,2-2.85A11.2,11.2,0,0,1,172,91.93c1.26-1,1.13-1.54,2.26-2.38L174,90l1-1.5c.63.21,3.2-3.7,2-1.17.71-1,.75-1.23.76-1.45s0-.37.54-1.37a18.09,18.09,0,0,1-1.33,1.7l-1.4,1.65-.35-.4c.66-1.46,1.2-1.48,2.2-2.9l-.57-.21,2-2.26c-.49.14.71-1.83.94-2.44a2.56,2.56,0,0,1,1.1-.88c.28-.2.55-.58.87-2l-.14.17c.24-.78.39-1.42.56-2.13s.5-1.47.84-2.58a3.19,3.19,0,0,1-.08,1.11,22.65,22.65,0,0,0,1.12-5.52c.26-1.87.26-3.52.78-4.24a.51.51,0,0,1,.18.31c.34-1.14.08-5.2.6-2.69a41.86,41.86,0,0,0-.94-4.42c.27,0,.46,1,.64,1.4-.14-1.07-.23-2.14-.47-3.19l.12.11c-.34-1.27-.65-2.78-1.11-4.17a19.6,19.6,0,0,0-.68-2,14.18,14.18,0,0,0-.78-1.56c.77,4.25-1.16-1.78-1.44-1.28-.24-.72-.11-1.34.28-1.34a1.07,1.07,0,0,1,.77.4,4.89,4.89,0,0,1,1,1.57,5,5,0,0,0,.55,2.08,25.81,25.81,0,0,1,.88,2.61,10.55,10.55,0,0,0-.52-2.42c-.25-.64-.51-1.19-.78-2,.67,1.07-.27-2.34-.07-2.34a2,2,0,0,1,.73.63,5.9,5.9,0,0,1,.79,2.23c.88,3.22-.52.5-.12,1.42a5.54,5.54,0,0,0,.44,2.87,18.61,18.61,0,0,1,.76,3.69c0,.25-.21-.43-.29-.75.17.85.3,2.2.44,3.36a6.18,6.18,0,0,0,.53,2.28c-.1-1.47-.42-2.91-.63-4.35C185.79,55,186.29,57.31,186.43,55.91ZM29.58,178.56a3.62,3.62,0,0,1,.67,1.31c-.24-.42-.44-.87-.67-1.3Zm-7.31-.31h0a6.17,6.17,0,0,1,.49,1c-.21-.4-.41-.77-.59-1.15Zm-1.12-3.5h0a1,1,0,0,1-.11.92l-.5-1.09ZM15.56,161c.66-.07,1.45,2.23,2.26,2.69v.05c.39.49,1.46,3.1.81,2.71-.54-1.91-1.81-1.22-1.72-3.22-.46-.14-.44.37-.24,1.06-.17-.19-.3-.29-.4-.29a19.45,19.45,0,0,1-.65-2C15.47,161.36,15.36,160.86,15.56,161Zm-4.65-94.3a18.27,18.27,0,0,1,2.14-3.9c-1.36,3.36,0,2-2.29,6.45.22-.12.73-.66.65-.13a1.24,1.24,0,0,1-.1.2L10.09,71.7c0-.63.06-1.26.14-1.89-.31.55-.6,1.1-.86,1.67A18.64,18.64,0,0,1,10.91,66.65Zm-1,5.44-.09.18a2,2,0,0,0-.1.21.86.86,0,0,0,0-.33C9.73,72.2,9.8,72.19,9.89,72.09ZM8.52,76.21l.38-1,.39-.09C8.83,77.4,8.78,76.42,8.52,76.21Zm4.59,77.45a38.24,38.24,0,0,1,1.43,4.94,5.44,5.44,0,0,1-.27-.54c-1.32-4.33-1.88-5.54-2.13-4.95s-.08,3,.13,5.8c-.4-1.48-.86-3-1.21-4.53s-.64-3.11-1-4.66l-.22.46c-.14-1-.73-1.71-.49-2.34a25.37,25.37,0,0,1,1.6,2.38C11.79,151.51,12.65,153,13.11,153.66Zm-2.25-8.12c.3.22.49-.23.71,1.53-.16-.1-.24,0-.24.28ZM9.68,125.39a6.24,6.24,0,0,1,0,3.43c.33.14.49,1,.61,2.08a18.42,18.42,0,0,0,.61,3.13c.38,3.47-.79,2.42,0,5.47l.25-1.17c.3,1.31.52,2.31.7,3.31s.39,2,.59,3.56c-.47.49-.16-1.38-.58-2l-.25,1.52c-.15-.65-.87-1.89-.34-1.89-.28.07-.89-.88-.28,1l-.69-1.37a.86.86,0,0,0-.09.35c-.12-.42-.19-.87-.3-1.3a12.14,12.14,0,0,1,.19-2.48c.15-.09.35.81.51,1.31a10.1,10.1,0,0,0-.5-3.23c.22,2.07-.22,1-.59,1.53a40.46,40.46,0,0,1-.74-4.1c0-1.79.32-3.28.86-2.15-.37-1.1-.2-2.31-.77-3.47.68,2.19-1.13.15-.2,2.94-.3.48-.56-.1-.56-1A20.9,20.9,0,0,1,8.19,128c.17.76.38.1.59.27-.45-2.19-.91-1.13-1,.48l-.56-2.57v.26c-.14-.89-.18-1.76-.26-2.63l0,0c.57-.38.95-.38.89.25l.36-1.41.2,2.12c.45-.9,0-2.35,0-3.45C8.74,120.05,8.93,124.1,9.68,125.39ZM9.61,120l0-.06a6.61,6.61,0,0,0-.44-3.62l.54-.24c.09.77.18,1.57.29,2.23.38-.94.4.37.53,1.26Zm3.18-51.3c-.47.93-.93,1.82-1.27,2.55a4.43,4.43,0,0,0-.46,1.67c-.1,1-.36,2.28-.56,3.61a5.81,5.81,0,0,1-1.35,2.72c-.37-.35.26-1.33-.22-1.55A6.76,6.76,0,0,0,10,74.24a9.46,9.46,0,0,1,1.28-4c1.13.24,1-4.1,2.51-4.47A11.11,11.11,0,0,0,12.79,68.72Zm1.65-2.49c0-.1.05-.22.08-.33.16-.32.3-.64.47-1A8.66,8.66,0,0,1,14.44,66.23Zm1.17,6.48a3.58,3.58,0,0,1,.28-1l.22-.25C15.94,71.9,15.78,72.31,15.61,72.71ZM47.37,24.6s-.06,0-.06-.05l.59-.41C47.74,24.29,47.56,24.44,47.37,24.6ZM90.08,9.11h.39c-2.06.37-4.11.81-6.12,1.32a13.32,13.32,0,0,1,3.31-1.05,32.68,32.68,0,0,0-3.41.69l.59-.36L87,9.27,89.08,9c1.39-.19,2.71-.44,4-.53A28.26,28.26,0,0,1,90.08,9.11Zm10.39-1.27Zm2,87.56.43-.12.56,0C103,95.35,102.7,95.37,102.42,95.4Zm28.32-85.17c-.5,0-1,0-1.51.06-.65-.16-1.29-.33-1.94-.47a23.73,23.73,0,0,0-5.82-2.67,92.11,92.11,0,0,1,10.24,2.51l-.38-.38c1.08.39,2,.29,2.56.8Q132.32,10.23,130.74,10.23Zm25.09,10-.23-.18,2.54,1.5h0c0,.49-.08.81-.36.73-1.17-.82-2.4-1.62-3.67-2.37a7.34,7.34,0,0,0-1-.83C154,19.47,155,19.81,155.83,20.24ZM151,18.05a16,16,0,0,1,1.51,1c-.86-.48-1.73-1-2.62-1.4A4.09,4.09,0,0,1,151,18.05Zm2.63,79.1a.74.74,0,0,1,.32-.29L148.15,99l.7-.5c-.54-.21-2.48.55-4.54,1a4.37,4.37,0,0,1-1.27.5,3.74,3.74,0,0,1-1.49,0l.29-.33a4.27,4.27,0,0,0-1.67-.09l-1.44.09h-1.67l.71-.24c6.12-.12,12.51-1.44,20.57-5.07C156.89,95.17,155.32,96.08,153.66,97.15Zm26.89-29.28A36.62,36.62,0,0,1,179.8,72l-.11-.56a23.4,23.4,0,0,1-.32,2.5c-.48-.22-.47.65-.77.39A8.21,8.21,0,0,0,177,77.74c-.32.74-.63,1.54-1,2.33a9.83,9.83,0,0,1-1.39,2.16l.07-.56a7,7,0,0,1-.82,1.61c-.42.58-1,1.21-1.51,1.86A19.7,19.7,0,0,1,170.52,87c-.61.55-1.26,1.09-1.82,1.55v-.15c.88-1,1.06-1.51.81-1.53a35.94,35.94,0,0,0,2.75-3.07l.45-.29.63-1.16a33.59,33.59,0,0,0,3.21-5.61c0,.22-.05.49-.09.76.44-1.27,1-2.48,1.32-3.77,0-.15.09-.3.13-.45a36.84,36.84,0,0,0,1.82-10.11c.06,0,.13,0,.24,0a36.22,36.22,0,0,1,.69,4.86Zm.83-7.75c0,1-.36.66-.36-.12-.27,1.92-.67,2.23-1.06,1.92V60l-.17-1.89a9,9,0,0,1-.09,1,40.29,40.29,0,0,0-.65-5.31c0-.38.11-.59.23-.44-.44-1.23-.44-3.22-.79-3.86.2,1.34,0,1.13-.34.46s-.4-1.37-.63-2c.14-.05.41.32.26-.41-.36-.94-.77-1.88-1.14-2.81l.88,2.49-.34-.23a49.06,49.06,0,0,0-9.83-16.25,9.92,9.92,0,0,1-1.1-3.22l0,0a28.77,28.77,0,0,1,2.31,2.1l-.22.49c1.61,2,3.14,3.52,4.61,5.2a23.17,23.17,0,0,1,3.92,6c-.66-.49-1.47-2.33-1.52-2a9.68,9.68,0,0,0,1.78,2.44,4.62,4.62,0,0,1,1.33,2.72,8,8,0,0,0-.5-1.07,1.57,1.57,0,0,0-.2-.3,3.49,3.49,0,0,0,.2.72c.17.76.39,1.53-.61-.24a22.2,22.2,0,0,1,1.78,3.87,26.29,26.29,0,0,1,1,4l.09,2.12c.06.63.11,1.24.17,1.82.14,1.15.18,2.23.28,3.15C180.94,57.57,181.31,60,181.38,60.12Z"/><path class="cls-1" d="M172.44,29.59l0,0h0Z"/><path class="cls-1" d="M186.68,65.88l-.41-1.55.08-.21a23.61,23.61,0,0,0-.57-2.49c0,1.73.58.95.15,2.86-.36,1.67-.52-.08-.88-.59.12.5,0,1.32.4,1.41a20.79,20.79,0,0,0-.5,2.76,9.43,9.43,0,0,0,0,1.68,10.53,10.53,0,0,1-.08,1.86,12.7,12.7,0,0,1-.92,3.25c-.3,0-.51.28-.68.77a5.77,5.77,0,0,0-.23.84c-.09.33-.18.66-.28,1a15.56,15.56,0,0,1-.65,2,1.94,1.94,0,0,1-1,1.12c1.26-2.08,1.67-5.31,1.38-4.94-.3,1-.84,2.22-1.3,3.35a24.74,24.74,0,0,1-1.47,2.79c1-1,1.34-.33,1.23.76.34-.88.92-1.78,1.4-2.88s1.13-2.27,1.64-3.54a34.21,34.21,0,0,0,1.44-3.93l.58-2c.15-.72.27-1.37.38-2l-.79.46C185.68,64.27,186.23,69.28,186.68,65.88Z"/><path class="cls-1" d="M174.56,31.49a25.18,25.18,0,0,1,2.59,3.57l-1-1A20.77,20.77,0,0,0,179,37.78c-.13-.05-.08.15,0,.56,1.17,2,2.16,2.89,2,1.62l-.49-.62c-.07-.57-.19-1.12-.31-1.68-.58,0-1.3-1.18-2.15-2.53a24.83,24.83,0,0,0-2.83-3.78c.35.29.72.56,1.08.83a12.12,12.12,0,0,1,1,.9,5.79,5.79,0,0,1,1.62,2.58l.3-.48c1.06,1.76,1.45,3.41,2.33,4.25a23.66,23.66,0,0,0-1.18-2.08l.25-.09c-.43-.73-1-1.52-1.52-2.3a11.53,11.53,0,0,1-1.4-2.24l-1.75-1.61a16.3,16.3,0,0,1-1.14-1.21l-1.45-1.78h.16a12.81,12.81,0,0,1-3.12-3.28c-.5-.65-1-1.29-1.42-1.84a5.46,5.46,0,0,0-1.33-1.11c-.7,0,0,.7.88,1.58A19.44,19.44,0,0,1,170.76,26c-1.31-.8-2.08-2.28-1.56-1a8.67,8.67,0,0,1-1.37-1.27,3.07,3.07,0,0,1-.49-.74c-.22-.42-.4-.78-1.68-1.49l1.21,1.25a9.54,9.54,0,0,1-2-1.33,8.34,8.34,0,0,0-2-1.21c-.53.39,1.73,1.25,3.37,3.06l-1.12-.35,2,1.4,1.9,1.52a3.92,3.92,0,0,0,1.23.16c.28.05.7.23,1.91,1.23a2.81,2.81,0,0,1,.32,2.39A8.07,8.07,0,0,1,174.56,31.49Z"/><path class="cls-1" d="M87,96.14c-.68.21-2.35.25-2,.63C85,96.34,88,96.57,87,96.14Z"/><path class="cls-1" d="M84.5,96.09l1.78-.16L85,95.81C84.9,95.9,85,96,84.5,96.09Z"/><path class="cls-1" d="M122.2,103.53a5.55,5.55,0,0,0-1.81-.22C120.5,103.66,121.62,103.51,122.2,103.53Z"/><path class="cls-1" d="M1.66,122.45V121A10,10,0,0,0,1.66,122.45Z"/><path class="cls-1" d="M165.14,94.67c-1.53,1.19-2.7,2-3.87,2.78a16.34,16.34,0,0,1-1.84,1.11c-.66.36-1.4.73-2.26,1.12a16.85,16.85,0,0,0,3-1.1,13.71,13.71,0,0,0,2.2-1.41,23.2,23.2,0,0,1,4.54-2.84Z"/><path class="cls-1" d="M166.86,95.3c-2.22,1.52-.74,1.21-2.91,2.36a10.45,10.45,0,0,0,1.37,0C164.45,97.45,167.61,95.36,166.86,95.3Z"/><polygon class="cls-1" points="178.4 85.02 179.68 83.39 178.53 84.56 178.4 85.02"/><path class="cls-1" d="M184.25,71.3l-.11.14c-.09.66-.14,1.33-.26,2l.12-.14C184.1,72.63,184.17,72,184.25,71.3Z"/><path class="cls-1" d="M173.93,28.05c1.61,2.17,1.81,1.49,2.93,2.71-1-1.21-1.48-2-2.11-2.77s-1.38-1.61-2.61-2.94C173.91,27.32,174.31,27.94,173.93,28.05Z"/><path class="cls-1" d="M177.47,31.62c-.23-.34-.45-.58-.66-.86A5,5,0,0,1,177.47,31.62Z"/><path class="cls-1" d="M170.41,23.28c.37-.16-1.55-1.76-1.19-1.36A7.69,7.69,0,0,1,170.41,23.28Z"/><path class="cls-1" d="M170.82,34.44a3,3,0,0,0,.56,1q.41.59.75,1.2a6.46,6.46,0,0,1-.47-1.27A1.42,1.42,0,0,0,170.82,34.44Z"/><path class="cls-1" d="M162.45,19c.69.3,1.89.44-.43-1C162.42,18.33,162.9,19,162.45,19Z"/><polygon class="cls-1" points="168.1 31.16 169.41 32.32 167.95 30.8 168.1 31.16"/><path class="cls-1" d="M137,4.59,135.36,4c.44.21-.54.44.23.44Z"/><path class="cls-1" d="M126,3l.18.11c.73.09,1.47.21,2.2.33C127.54,3.23,126.75,3.09,126,3Z"/><polygon class="cls-1" points="116.01 0.5 115.63 0.35 113.76 0.44 114.14 0.59 116.01 0.5"/><path class="cls-1" d="M19.91,49.35c-.72,2.24,1.46-2,1.6-1.12a10.64,10.64,0,0,1-1.85,2.83c.08.44,1-.47,1.22-.15a9.53,9.53,0,0,0,1.9-3.53,10.36,10.36,0,0,1,1.88-3.47c.21.34-.2,1.43,1.17-.52l-.3.54c2-3.28,2.48-1.81,3.2-4.32l.36.38a15.49,15.49,0,0,1,2-2.82c.82-1,1.65-2,2.31-2.71v.15c3.29-4.23,1.94-2.28,6.15-6.55l-1.66,2.38c1.68-1.21,1.54-2,2.71-3,0,.14.37.19-.17.87.69-.81,1.42-1.58,2.13-2.37s1.65-1.81,2.53-2.66c1.16-1.34-.5-.06-.86-.07.31-.66,3-2.44,3.28-2.28-.26.37-1.54,1.52-.56,1,.49-.74,1-1.47,1.53-2.16,1.53-.74,1.16-.15.27.76S46.54,22.78,46,23.38c2.72-2,3.25-2.95,6.21-5A8.88,8.88,0,0,1,50,19.3c-.22-.21.4-.74,1.33-1.39s2.2-1.35,3.21-2c-1.44.59-.8-.06,0-.86a1.52,1.52,0,0,0,.32-.3l.28-.27-.25.15c0-.07-.11-.1-.34-.09-1.64,1.24-3.28,1.6-4.36,2.37.81,0-.09.72-1.33,1.54l-2,1.28a10.71,10.71,0,0,0-1.42,1.18l-1.33,1.26-.57.44c-.18,0-.1-.23.65-1a22.35,22.35,0,0,1-1.69,1.54c-.61.54-1.1,1.06-.89,1.09L39,26.44l-2.52,2.35a3.5,3.5,0,0,1-.54.29c-.14.21-.13.27-.07.28A110.11,110.11,0,0,0,25.77,40.44L24.6,41.91l-1.11,1.53-2.19,3c-1.36,2.1-2.8,4.14-4,6.31.41-.61.83-1.16,1.25-1.72S19.45,50,19.91,49.35Z"/><path class="cls-1" d="M53.28,17.74c-.39.26-.76.44-1.14.7C52.47,18.24,52.86,18,53.28,17.74Z"/><path class="cls-1" d="M16.2,54.61l1.07-1.81C16.91,53.35,16.56,53.93,16.2,54.61Z"/><path class="cls-1" d="M57.4,14l3.26-1.89c-1.26.36.67-.8.79-1-1.39.66-2.7,1.46-4.05,2.18C57.52,13.46,57.23,13.88,57.4,14Z"/><path class="cls-1" d="M56,13.56a4.68,4.68,0,0,1-.83.95c.71-.46,1.45-.85,2.19-1.27C57.31,13.12,57,13.14,56,13.56Z"/><polygon class="cls-1" points="5.82 83.87 5.27 84.71 5.35 85.4 5.82 83.87"/><path class="cls-1" d="M2.52,97.44c-.26-.08-.25,1.15-.24,1.76A10.49,10.49,0,0,0,2.52,97.44Z"/><path class="cls-1" d="M34.48,109.74l1-.14A2.61,2.61,0,0,0,34.48,109.74Z"/></g></g></g></g></svg>